<svg version="1.1" xmlns="http://www.w3.org/2000/svg" xmlns:xlink="http://www.w3.org/1999/xlink" x="0px" y="0px"
	 viewBox="0 0 512 512" style="enable-background:new 0 0 512 512;" xml:space="preserve">
<style type="text/css">
	.dolphin-st0{fill:#FFFFFF;}
</style>
<path class="dolphin-st0" d="M501.9,404.2c-4.4,0-7.6-2.1-9.9-6.6c-1.1-2.1-105-217.4-296.1-213c-42.6,1.1-64.4,12.1-76.5,22h43.7
	c169.4,0,226.2,110.9,228.4,116.3c2.1,4.4,1.1,9.9-3.3,13.1c-4.4,3.3-9.9,3.3-14.1,0c-20.7-17.6-80.8-48.3-145.3-63.7
	c14.1,20.8,38.3,35.1,38.3,35.1c4.4,2.1,6.6,7.7,5.4,12.1c-1.1,4.4-5.4,7.7-11,7.7c-82,0-117-47.2-126.7-64.8
	c-40.4,2.1-65.6,13.1-83,22l-4.4,2.1c-23,9.9-37.1,3.3-43.7-6.6c-7.7-12.1-4.4-34,18.6-56c27.3-97.8,122.4-105.3,162.8-105.3
	c32.8,0,65.6,4.4,95.1,13.1c15.3-9.9,41.6-24.1,68.8-24.1c30.6,0,49.1,12.1,50.3,13.1c3.3,2.1,5.4,6.6,4.4,11
	c-1.1,4.4-3.3,7.7-7.7,8.7c-12,3.3-31.7,13.1-35,22c0,1.1-1.1,4.4,2.1,9.9C476.9,250.4,510.8,384.3,511.8,391
	c1.1,5.6-2.1,11-6.6,13.1C504.1,404.2,503.1,404.2,501.9,404.2z"/>
</svg>
