<svg version="1.1" xmlns="http://www.w3.org/2000/svg" xmlns:xlink="http://www.w3.org/1999/xlink" x="0px" y="0px"
	 viewBox="0 0 512 512" style="enable-background:new 0 0 512 512;" xml:space="preserve">
<style type="text/css">
	.linux-st0{fill-rule:evenodd;clip-rule:evenodd;fill:#FFFFFF;}
</style>
<g>
	<path class="linux-st0" d="M189.6,435.7c18.3-1.9,20.8-21.3,12.1-29.7c-7.1-6.9-46.2-36.1-56.5-47.4c-4.8-5.3-11.2-7.9-13.9-13.9
		c-6.3-13.7-10.7-33.3-2.7-47.4c1.5-2.5,2.4-1.5,1.2,3.9c-6.3,30,13.3,54.5,17.6,42c2.9-8.7,0.3-24.3,1.9-36.5
		c2.8-21.9,22.7-63.8,31.4-66.2c-13.5-24.9,15.9-44.5,15.5-66.4c-0.3-14.3,12.5,17.5,25.3,24.3c14.3,7.5,30-14.1,52.4-25.2
		c6.3-3.1,14.4-6.7,13.9-9.3c-2.7-12.8-29.3,15.9-53.2,16.8c-10.9,0.4-14.9-2.1-19.1-6.1c-12.7-12.3,1.3-2,20.1-5.5
		c8.4-1.5,11.2-2.9,20.1-6.5c8.9-3.6,19.1-8.9,29.2-11.7c7.1-1.9,6.4-7.2,3.7-8.8c-1.6-0.9-3.9-0.8-5.7,2.4
		c-4.3,7.5-24.6,11.9-31,13.7c-8.1,2.5-17.2,4.8-29.2,4.4c-18.1-0.8-14-9.1-26.9-16.5c-3.9-2.1-2.8-8,2.3-13.1
		c2.7-2.7,10-4.1,13.6-10.3c0.5-0.8,5.2-5.7,8.8-8.3c1.2-0.9,1.3-23.1-10-23.6c-9.7-0.4-12.4,7.1-12,14.7c0.4,7.5,4.4,13.6,7.1,13.6
		c5.1,0,0.3,5.6-2.4,6.5c-4.3,1.3-10-16.7-9.3-25.3c0.7-9.1,5.3-24.9,16.8-24.6c10.3,0.3,17.7,13.2,17.3,35.3
		c-0.1,3.7,16.7-1.7,22.3,4.1c4,4.3-13.7-39.3,25.7-42.4c10.4,2,20.3,5.5,24.4,29.2c-1.5,2.5,2.5,19.1-3.9,21.1
		c-7.9,2.4-12.7-0.4-8.1-7.7c3.1-7.5,0.1-26.5-15.7-25.3s-13.7,29.2-9.3,29.7c4.4,0.5,15.2,8.3,22.9,9.7c24.9,4.8,6.7,19.2,9.9,36.5
		c3.6,19.6,16.5,14.4,28.1,66.2c2.4,3.2,12,6.1,21.3,46c8.4,35.8-3.5,62,16.8,59.8c4.5-0.5,11.2-1.7,14.1-11.9
		c7.6-26.5-3.7-58.2-15.3-79.5c-6.7-12.4-12.9-20.9-16.3-23.9c13.2,7.7,30,32.6,33.8,51c5.1,24.3,8.8,34.5,1.1,60.1
		c4.4,2.3,15.5,6.9,15.5,12.3c-11.6-9.5-46.9-11.2-47.7,11.5c-6,0.1-10.5,0.7-14.4,5.2c-14.3,16.8-1.1,50.6-2.4,68.8
		c-1.3,16-5.7,31.8-8.3,47.8c-8.4-0.3-7.6-6.5-4.9-15.2c2.4-7.6,6.3-17.2,6.5-26.4c0.3-8.3-0.7-13.6-2.8-14.8
		c-2.1-1.3-5.3,1.3-10,8.7c-9.7,15.6-30.6,22.5-50.4,24.9c-19.6,2.4-37.8,0.5-47.4-10.3c-3.3-3.7-8.8,1.1-9.5,2
		c-0.9,1.3,3.2,3.9,6.3,9.5c4.5,8.3,8.8,20.7-1.9,26.4C208.1,455.2,198.9,453.4,189.6,435.7L189.6,435.7z M182.5,435
		c7.1,11.1,31.8,57.7-11.6,63.7c-14.5,2-37.8-8.4-60.5-14c-20.4-4.9-41-7.9-52.6-11.2c-6.9-2-9.9-4.4-10.5-7.3
		c-1.6-7.7,8.4-18.5,8.9-27.7c0.5-9.2-3.3-13.9-6.5-21.3c-3.2-7.5-4-13.1-1.5-16.3c2-2.5,6-3.6,12.4-2.9c8.3,0.8,18.1-0.9,23.6-4.1
		c9.1-5.5,13.2-16.8,9.2-30.2c0,13.3-4.4,18.3-15.2,24.4c-10.3,5.7-26.1,1.1-33.4,7.5c-8.8,7.6,3.2,27.3,2.1,41.7
		c-0.8,11.1-12.3,23.6-7.2,34.6c5.2,11.2,29.4,12.4,54.6,17.7c35.8,7.5,56.8,20.5,73.3,21.2c24.1,0.9,27.8-23.9,65.8-24.3
		c11.1-0.5,21.9-0.9,32.8-1.1c12.3-0.1,24.5,0,37,0.3c25.3,0.7,16.5,13.9,32.9,22.3c13.9,7.1,38.6,4.3,44.6-1.3
		c8-7.7,29.7-26.1,46.2-34.5c20.7-10.4,69.2-28.2,34-50.1c-8.3-5.1-27.6-10.5-29.2-47.7c-7.3,6.5-6.5,41.2,14,48.1
		c22.9,7.7,37.2,20.5-5.3,35c-28.1,9.6-32.9,12.7-55.3,31.2c-22.5,18.8-56.1,11.3-50.2-28.2c3.1-20.7,4.8-37.6-0.3-55.6
		c-2.5-8.8-3.7-20-2-27.8c3.3-15.3,11.6-19.9,19.7-5.2c5.1,9.2,6.9,20,25.2,20.9c28.6,1.3,34.4-27.7,43.4-29
		c6.1-0.9,12.3-18.1,7.6-46.1c-4.9-30-22.7-77.3-45.2-101.3c-18.8-20-30.6-37.4-38.1-62.4c-6.3-20.9-9.7-41.3-8.4-60.9
		c1.7-25.3-12.4-60.4-34.6-77c-14-10.5-35.8-16.1-55.7-15.9C235.5,0.3,225,1.9,217,6.3c-33,18-37.7,43.6-37.2,72.9
		c0.4,27.4,1.5,58.9,4.5,88.7c-3.7,13.7-22.9,39.7-35.3,55.6c-16.5,16.4-24.9,48-35.7,75.7c-5.7,14.8-15.3,21.5-16.1,40.4
		c-0.3,5.3,0,19.1,5.1,15.1C121.6,339.5,145.8,377.3,182.5,435z M283.2,38.6c-1.1,3.1-5.3,5.7-2.7,7.9c2.7,2.1,4.3-3.1,9.9-5.1
		c1.5-0.5,8,0.3,9.2-2.9c0.5-1.3-3.5-2.9-5.7-5.2c-2.4-2.3-4.7-4.3-6.8-4.1C281.4,29.7,284.2,35.8,283.2,38.6z M316.9,152.7
		c2-2.1,3.1,3.7,8.7,7.2c4.4,2.8,8.7,0.7,9.7,6.3c0.8,4-1.7,8.4-5.1,7.7C324.3,172.9,310.8,159,316.9,152.7z M225.9,117.5
		c-9.1-0.7-9.7,5.9-6.7,5.7C222.3,123.1,220.5,118.1,225.9,117.5z M210.3,100.7c1.1-0.3,2.5,1.6,2.1,4.1c-0.7,3.6-0.4,5.7,2.1,5.7
		c0.4,0,0.8-0.1,0.9-0.9c1.2-7.1-2.5-12.3-4-12.7C208.1,96.1,208.6,101.1,210.3,100.7L210.3,100.7z M276.4,97.7
		c2.3,0.7,4.5,4.7,5.1,8.9c0,0.4,3.1-0.7,3.1-1.6c0.1-6.9-5.7-10.1-7.3-10C273.6,95.4,274.6,97.1,276.4,97.7L276.4,97.7z
		 M242.6,118.3c8.3-3.9,11.2,2.1,8.3,3.1S247.9,116.9,242.6,118.3z M142.9,258.8c-3.9-0.5,1.2-3.5,3.3-7.1c2.4-4,1.9-9.1,4.4-8.4
		c2.4,0.8,1.1,3.6-0.5,8.3C148.5,255.6,144.4,259,142.9,258.8z"/>
</g>
</svg>
