<svg version="1.1" xmlns="http://www.w3.org/2000/svg" xmlns:xlink="http://www.w3.org/1999/xlink" x="0px" y="0px"
	 viewBox="0 0 512 512" style="enable-background:new 0 0 512 512;" xml:space="preserve">
<style type="text/css">
	.macos-st0{fill:#FFFFFF;}
</style>
<path class="macos-st0" d="M128.5,320.1h-14.3v-52.8c0-19.5-6.8-29.1-20.5-29.1c-3.2,0-6.1,0.7-8.8,2c-2.7,1.3-4.9,3.2-6.9,5.5
	c-2,2.3-3.5,4.9-4.5,7.9s-1.6,6-1.6,9.2v57.5H57.5V264c0-7.6-1.6-13.9-4.9-18.5c-3.3-4.8-8.1-7.2-14.7-7.2c-3.3,0-6.4,0.7-9.2,2.1
	s-5.2,3.5-7.2,5.9s-3.6,5.3-4.8,8.4s-1.7,6.3-1.7,9.5v56H0.7v-68c0-3.7,0-7.5-0.1-11.5c-0.1-4-0.3-8.1-0.5-12.5h12.8v15.1h1.3
	c6.5-11.3,16-16.9,28.5-16.9c6.1,0,11.3,1.6,15.9,4.9c4.5,3.3,7.7,7.9,9.6,13.5h0.4c3.3-6.1,7.5-10.7,12.7-13.9
	c5.2-3.1,11.1-4.7,17.6-4.7c9.1,0,16.3,3.5,21.6,10.4s8.1,16.5,8.1,28.8L128.5,320.1L128.5,320.1z M202.8,320.1l-1.3-11.9h-0.5
	c-6.3,9.2-15.5,13.9-27.7,13.9c-4,0-7.6-0.7-10.8-1.9c-3.3-1.3-6.1-3.1-8.5-5.5c-2.4-2.4-4.3-5.1-5.7-8.3c-1.3-3.2-2.1-6.7-2.1-10.5
	c0-11.2,4.7-19.6,13.9-25.5c9.2-5.9,22.7-8.7,40.4-8.7V260c0-15.1-7.1-22.7-21.1-22.7c-8.8,0-16.5,2.3-23.2,6.7l-3.5-9.9
	c8.1-5.2,17.7-7.9,28.8-7.9c22.4,0,33.5,12.3,33.5,36.8v35.2c0,4.4,0.1,8.5,0.3,12.1c0.1,3.6,0.5,6.9,1.1,9.9L202.8,320.1
	L202.8,320.1z M200.2,272.5h-2.8c-24.7,0-36.9,7.2-36.9,21.7c0,5.7,1.5,10,4.5,12.8c3.1,2.8,6.8,4.1,11.5,4.1c2.9,0,5.9-0.5,8.7-1.5
	c2.8-1.1,5.3-2.4,7.6-4.3c2.3-1.9,4-4.1,5.5-6.8c1.3-2.7,2.1-5.6,2.1-8.9v-17.2L200.2,272.5L200.2,272.5z M299.5,242.6
	c-5.6-3.1-12-4.5-19.5-4.5c-5.2,0-9.9,0.9-13.9,2.8c-4,1.9-7.5,4.4-10.3,7.6c-2.8,3.2-4.9,7.1-6.5,11.5c-1.5,4.4-2.3,9.2-2.3,14.5
	c0,5.3,0.8,10.3,2.4,14.7c1.6,4.4,3.9,8.3,6.7,11.3c2.8,3.1,6.3,5.5,10.1,7.2c4,1.7,8.3,2.5,13.2,2.5c6.8,0,13.6-1.5,20.4-4.5
	l2.8,11.1c-7.1,3.6-15.7,5.3-25.9,5.3c-6.7,0-12.8-1.1-18.3-3.3c-5.5-2.3-10.1-5.3-14.1-9.5c-4-4.1-6.9-9.1-9.1-14.8
	c-2.1-5.7-3.2-12.1-3.2-19.2c0-7.2,1.2-13.9,3.5-19.9c2.4-6,5.6-11.1,9.9-15.5c4.1-4.3,9.2-7.7,15.2-10.1c5.9-2.4,12.4-3.6,19.5-3.6
	c9.2,0,16.9,1.6,22.8,4.9L299.5,242.6L299.5,242.6z M425.6,254.6c0,10-1.3,19.2-4.1,27.5c-2.7,8.3-6.5,15.3-11.6,21.3
	c-5.1,6-11.1,10.5-18.1,13.9c-7.1,3.3-14.9,4.9-23.5,4.9c-8.3,0-15.9-1.6-22.7-4.8s-12.8-7.7-17.7-13.5c-4.9-5.7-8.8-12.7-11.5-20.5
	c-2.7-7.9-4.1-16.7-4.1-26.1c0-9.9,1.5-19.1,4.3-27.3s6.8-15.5,11.9-21.3c5.1-5.9,11.2-10.5,18.1-13.9c7.1-3.3,14.8-4.9,23.2-4.9
	c8.4,0,16,1.6,22.9,4.8c6.9,3.2,12.8,7.6,17.6,13.3c4.8,5.7,8.5,12.5,11.2,20.5C424.3,236.4,425.6,245.2,425.6,254.6z M410.2,255.4
	c0-7.6-1.1-14.7-3.1-21.2c-2-6.5-4.8-12.3-8.5-17.1c-3.6-4.9-8-8.7-12.9-11.5c-5.1-2.7-10.5-4.1-16.7-4.1c-6.3,0-11.9,1.3-17.1,4.1
	c-5.2,2.7-9.5,6.5-13.2,11.5c-3.6,4.9-6.4,10.7-8.5,17.5c-2,6.8-3.1,14.1-3.1,22.1c0,7.5,1.1,14.5,3.1,21.1s4.8,12.3,8.5,17.1
	c3.6,4.8,8,8.7,13.1,11.5c5.1,2.8,10.7,4.1,16.8,4.1c6.3,0,11.9-1.3,17.1-4.1c5.2-2.8,9.5-6.7,13.2-11.6c3.6-4.9,6.4-10.8,8.4-17.5
	C409.2,270.5,410.2,263.3,410.2,255.4L410.2,255.4z M512,285.7c0,5.5-1.1,10.4-3.1,14.9s-4.9,8.4-8.7,11.5
	c-3.7,3.2-8.3,5.6-13.6,7.3c-5.3,1.7-11.3,2.5-17.9,2.5c-13.2,0-23.7-2.7-31.5-8.1l4-12c8.5,5.3,18,8,28.4,8
	c8.8,0,15.6-2.1,20.4-6.3c4.8-4.1,7.2-9.7,7.2-16.8c0-6.5-1.9-11.7-5.6-15.7c-3.7-4-9.9-7.6-18.5-10.9c-22-8.3-32.9-20.3-32.9-36.1
	c0-4.9,0.9-9.5,2.9-13.7c2-4.1,4.7-7.9,8.3-10.8c3.6-3.1,7.7-5.3,12.7-7.1c4.9-1.6,10.1-2.5,15.9-2.5c11.1,0,20,2,27.1,6.1
	l-4.4,11.9c-6.3-4-14-5.9-23.2-5.9c-7.3,0-13.3,1.9-17.9,5.5c-4.5,3.7-6.8,8.5-6.8,14.7c0,2.9,0.4,5.5,1.2,7.9
	c0.8,2.3,2.1,4.4,4.1,6.5c1.9,2,4.5,4,7.7,5.9c3.2,1.9,7.3,3.7,12.3,5.9c5.7,2.3,10.5,4.7,14.7,7.3c4,2.7,7.3,5.5,10,8.5
	c2.7,3.1,4.5,6.4,5.6,10C511.5,277.5,512,281.3,512,285.7L512,285.7z"/>
</svg>
