<svg version="1.1" xmlns="http://www.w3.org/2000/svg" xmlns:xlink="http://www.w3.org/1999/xlink" x="0px" y="0px"
	 viewBox="0 0 512 512" style="enable-background:new 0 0 512 512;" xml:space="preserve">
<style type="text/css">
	.switch-st0{fill:#FFFFFF;}
</style>
<g>
	<path class="switch-st0" d="M120.9,386.6c1.3,1.7,2,2.5,2.7,3.3c4.9,6.8,10.3,13.5,14.9,20.4c2.4,3.5,5.6,2.4,8.5,2.1
		c0.8,0,1.6-3.2,1.6-4.9c0.1-10.4,0.1-20.7,0.1-31.1c0-1.3-0.1-2.7-0.1-4.1h-8.3v26c-5.6-7.7-11.1-14.1-15.6-21.2
		c-3.1-4.7-6.5-6-11.9-4.7l0,0c0,13.5,0,26.8-0.1,40.1h8.3L120.9,386.6L120.9,386.6z"/>
	<path class="switch-st0" d="M232.8,0.1c-22.4,0-44.8-0.3-67.2,0.1c-31.5,0.5-55.3,14.8-71.5,41.6c-8.3,13.6-11.1,28.7-11.1,44.4v148.3
		c0,3.9,0.1,7.7,0.4,11.5c2.7,42.5,37.6,76.3,80.4,77.1c22.8,0.4,45.6,0.1,68.4,0.1c6.4,0,6.4,0,6.4-6.4V161.9V5.9
		C238.5,0.3,238.4,0.1,232.8,0.1z M212,296.6c-1.3,0-2.5,0.1-3.7,0.1c-14,0-27.9,0.1-41.9,0c-28.4-0.1-50.8-18.7-56.1-46.5
		c-0.7-3.9-0.9-7.9-0.9-11.9c0-51.2-0.1-102.4,0-153.6c0-28.8,17.9-51.3,45.1-57.2c1.9-0.4,3.9-0.9,5.6-0.9h52L212,296.6L212,296.6z
		"/>
	<rect x="208.9" y="433.2" class="switch-st0" width="16.7" height="76"/>
	<path class="switch-st0" d="M176.9,432.7c-2.8-0.1-4,0.8-4.7,3.6c-3.9,15.2-8,30.5-12,45.6c-0.3,1.5-0.8,2.8-1.5,5.3
		c-0.7-2.4-1.1-3.6-1.5-4.8c-3.9-13.5-7.9-26.9-11.9-40.4c-2.8-9.3-2.8-9.1-12.4-9.3c-3.3-0.1-4.4,1.2-5.2,4.1
		c-4.3,15.3-8.8,30.5-13.2,45.7c-0.4,1.3-0.9,2.5-1.6,4.5c-4.5-17.5-8.9-34.1-13.5-50.8c-0.3-1.2-1.3-3.1-2-3.1
		c-4.9-0.1-10-0.1-15.3-0.1c0.4,1.7,0.5,2.8,0.8,3.7c5.6,20.1,11.3,40.3,17.1,60.4c1.1,3.9,1.2,9.3,3.9,11.3c2.8,2,8,0.9,12.3,0.9
		c7.1,0,5.6,0.7,7.3-5.6c4.1-14.3,8.1-28.5,12.4-43.9l0,0c0.5,1.7,0.9,2.5,1.2,3.3c3.9,13.9,7.9,27.7,11.5,41.7
		c0.9,3.5,2.4,4.5,5.7,4.3c3.5-0.3,6.9-0.3,10.4,0c2.8,0.1,3.9-0.9,4.7-3.6c6.4-23.2,12.9-46.1,19.5-69.3c0.3-1.1,0.5-2.1,0.8-3.6
		C185.2,432.8,181.1,433,176.9,432.7z"/>
	<path class="switch-st0" d="M15.5,386.2c5.7,7.9,11.1,14.5,15.9,21.7c2.8,4.4,6.1,6,11.5,4.5c0-13.3,0-26.7,0.1-40.1h-8v24.8
		c-6-6.8-11.5-13.3-16.3-20.7c-3.1-4.7-6.8-4.9-11.5-4.1v40.1h8.3V386.2z"/>
	<path class="switch-st0" d="M270.3,317.9c0,4.9,0.3,5.3,5.2,5.3c15.2,0,30.5,0.1,45.7-0.1c5.5-0.1,11.1-0.4,16.4-1.5
		c40.3-8.1,67.3-41.2,67.3-82.3c0.1-51.9,0-103.7,0-155.6c0-3.9-0.1-7.9-0.7-11.9c-5.1-40.7-40-71.7-80.9-71.9
		c-15.5-0.1-30.9,0-46.5,0c-6.4,0-6.4,0-6.4,6.3v154.8l0,0L270.3,317.9L270.3,317.9z M334.1,145.5c18,0,32.3,14.3,32.3,32.4l0,0
		c-0.1,18-14.4,32.4-32.4,32.4c-18-0.1-32.3-14.5-32.1-32.7C302,159.7,316.3,145.5,334.1,145.5z"/>
	<path class="switch-st0" d="M60.3,468.8c-6-2.3-12.5-3.7-18.8-5.3c-5.6-1.6-11.5-2.7-16.9-4.5c-1.6-0.5-3.6-3.1-3.5-4.8
		c0-1.9,2-3.9,3.5-5.3c0.8-0.8,2.4-1.3,3.5-1.3c5.1-0.5,10.3-1.5,15.2-0.9c6.4,0.7,12.7,2.7,19.5,4.1c1.6-3.9,3.3-8.3,5.2-12.7
		c-9.1-3.6-18-5.6-27.2-6c-9.5-0.4-18.5,1.3-26.7,6.8c-6.7,4.3-10.1,10.4-9.3,18.4c0.7,7.6,5.3,12.4,12.3,14.8
		c6.4,2.3,13.3,3.7,19.9,5.3c5.5,1.3,11.1,2.3,16.3,4.1c2.1,0.8,4.7,3.6,4.8,5.6c0.1,2.3-2.1,4.8-3.9,6.8c-0.9,0.9-2.7,1.6-4.1,1.7
		c-6.1,0.5-12.3,1.6-18.3,0.9c-7.1-0.9-14-3.5-21.3-5.5c-2,3.6-4.3,7.7-7.1,12.7c5.6,2,10.8,4.1,16.1,5.6
		c13.7,3.3,27.5,3.6,40.7-1.6c9.2-3.6,13.7-10.5,13.9-20.5C74,477.4,68.5,471.9,60.3,468.8z"/>
	<path class="switch-st0" d="M73.6,372v40.5h8.5v-40.3c-1.3-0.1-2.4-0.1-3.3-0.1L73.6,372L73.6,372z"/>
	<path class="switch-st0" d="M211.1,372.3h-33.7v8.7h5.6c8.1,0.1,6.9-0.9,7.1,7.2v20.3c0,1.3,0.1,2.8,0.3,4h8.8v-31.6h12.1v-8.5H211.1z"/>
	<path class="switch-st0" d="M395.1,372.6c-5.9-0.9-12-0.5-18-0.4c-0.8,0-2.1,1.9-2.1,2.9c-0.1,5.7-0.1,11.5-0.1,17.3l0,0
		c0,5.7,0.1,11.5-0.1,17.3c0,2.4,0.8,3.2,3.1,3.1c4.8-0.1,9.6,0.1,14.3-0.1c10.9-0.4,19.6-8.5,20.3-18.8
		C413.2,383.4,406.1,374.3,395.1,372.6z M395.5,403.2c-3.6,0.7-7.5,0.3-11.3,0.4c-0.3-3.1-0.5-6-0.7-8.9v-2.4v-8.9
		c-0.1-2,0.5-2.8,2.7-2.8c2.9,0.1,6,0,8.8,0.5c5.1,0.9,8.5,5.6,8.8,10.8C403.7,397.1,400.4,402.4,395.5,403.2z"/>
	<path class="switch-st0" d="M360.1,447.8c9.3-0.1,16.4,4.1,21.7,11.7c4.3-3.7,8.3-7.2,12.3-10.8c-9.3-14.8-28.3-21.7-45.3-16.5
		c-18,5.5-29.5,22-28.8,41.5c0.5,17.5,13.9,33.3,31.2,37.3c16.5,3.9,35.6-3.9,42.7-17.3c-3.9-3.5-7.9-6.8-11.9-10.4
		c-12.4,13.3-26.3,15.3-37.2,5.3c-9.7-8.8-10.4-23.5-1.6-33.1C347.7,450.6,353.5,448,360.1,447.8z"/>
	<path class="switch-st0" d="M478.4,492.8c0-18.7,0-37.5-0.1-56c0-1.3-0.9-3.6-1.5-3.6c-4.8-0.3-9.6-0.1-14.8-0.1v29.6h-34.8v-29.5h-15.9
		l0,0v23.1v49.5c0,1.5-0.8,3.7,2,3.7h13.9v-30.1h35.2v30.1c4.5,0,8.7-0.1,12.9,0c2.4,0.1,3.2-0.8,3.1-3.1
		C478.3,501.9,478.4,497.4,478.4,492.8z"/>
	<path class="switch-st0" d="M459.9,370.7c-11.9-0.1-21.6,9.7-21.6,21.7c0.1,11.9,9.5,21.5,21.3,21.7c11.9,0.1,21.7-9.7,21.6-21.7
		C481.2,380.4,471.6,370.8,459.9,370.7z M459.5,404.8c-6.8-0.1-12.1-5.6-12.1-12.4c0-6.7,5.5-12.3,12.1-12.4
		c6.8-0.1,12.5,5.6,12.5,12.4C472,399.1,466.1,405,459.5,404.8z"/>
	<path class="switch-st0" d="M271.7,413v-8h-22.4v-9.2h20.8v-7.6h-20.9v-8.3h22.7V372l0,0c-9.5,0-18.7,0.1-27.7,0.1
		c-2.9-0.1-3.7,0.9-3.7,3.7c0.1,9.5,0.1,18.9,0.1,28.4c0,8.7,0,8.7,8.5,8.7L271.7,413L271.7,413z"/>
	<path class="switch-st0" d="M308.5,436.8c0.3-3.2-1.1-4-4.1-4c-18.8,0.1-37.6,0.1-56.4,0.1c-1.3,0-2.5,0.1-3.7,0.1v16.3H268
		c0,2.3,0,3.7,0.1,5.1c0,16.9,0,33.7-0.1,50.7c0,3.1,0.7,4.5,4,4.1c2.9-0.3,5.9-0.3,8.8,0c3.3,0.3,4-1.1,4-4.1
		c-0.1-17.1-0.1-34.1-0.1-51.1v-4.7c6.9,0,13.3-0.1,19.7,0.1c2.9,0.1,4.3-0.5,4-3.9C308.3,442.7,308.3,439.8,308.5,436.8z"/>
	<path class="switch-st0" d="M382,483.2L382,483.2L382,483.2z"/>
	<path class="switch-st0" d="M341.1,412.2v-40h-8.3v26.1c-6-7.9-11.1-14.8-16.3-21.7c-3.9-5.1-5.1-5.5-11.6-3.7c0,12.7,0,25.3,0.1,38.1
		c0,0.5,1.2,1.6,1.9,1.7c2.1,0.3,4.1,0.1,6.7,0.1v-26.1c1.3,1.5,2,2.3,2.7,3.1c4.7,6.3,9.3,12.5,14,18.8
		C333.6,413.4,334.9,413.8,341.1,412.2z"/>
	<path class="switch-st0" d="M505.7,497.5l-2.7,7.2c-0.1,0.1-0.4,0.1-0.4,0l-2.4-7.2h-3.9l0,0v11.3h2.3v-6.5c0-0.4,0.5-0.5,0.5-0.1l2.4,6.7
		h2.4l1.7-6.8c0.1-0.1,0.4-0.1,0.4,0v6.8h2.7v-11.3H505.7z"/>
	<polygon class="switch-st0" points="484.5,499.8 487.9,499.8 487.9,508.8 491.3,508.8 491.3,499.8 494.1,499.8 494.1,497 484.5,497 	"/>
	<path class="switch-st0" d="M133.2,97.1L133.2,97.1c0,16.9,13.7,30.7,30.5,30.5c16.7-0.1,30.1-13.7,30.1-30.5
		c0.1-16.8-13.6-30.7-30.4-30.7C146.8,66.4,133.2,80.1,133.2,97.1z"/>
</g>
</svg>
