<svg version="1.1" xmlns="http://www.w3.org/2000/svg" xmlns:xlink="http://www.w3.org/1999/xlink" x="0px" y="0px"
	 viewBox="0 0 512 512" style="enable-background:new 0 0 512 512;" xml:space="preserve">
<style type="text/css">
	.wii-st0{fill:#FFFFFF;}
</style>
<path class="wii-st0" d="M77.2,367.9c-9.7-2.7-19.3-11.7-23.5-22.4c-2.8-7.1-12.9-42.7-48.4-170.4L0,156l24-0.1
	c13.2-0.1,24.1,0,24.4,0.3c0.3,0.3,9.2,35.1,20,77.3L88,310.4l9.3-35.6c22.1-84.7,25.9-98.3,28.7-104.1c3.7-7.9,10.4-13.6,18.1-15.6
	c4.1-1.1,13.6-1.1,17.6,0c8.7,2.3,15.3,8.4,19.1,17.6c2.3,5.6,7.1,23.5,25.2,92.9c6.1,23.5,11.3,43.1,11.5,43.6
	c0.3,0.5,7.9-28.1,20.1-76.1l19.7-77.1h24.4c19.3,0,24.3,0.1,24.1,0.7c-0.1,0.4-5.3,18.9-11.6,41.3c-29.7,106.9-40,142.9-42.9,149.2
	c-4.9,10.8-13.2,18.3-23.2,20.8c-4.1,1.1-13.1,1.1-17.2,0c-5.7-1.5-8.9-3.5-13.9-8.3c-3.9-3.9-5.1-5.5-7.1-9.7
	c-3.5-6.9-6.7-18.3-27.6-95.2c-4.9-18.1-9.1-33.2-9.2-33.7c-0.1-0.4-5.2,17.2-11.3,39.3c-13.3,48.5-20.3,73.6-22.4,80.4
	c-4.7,14.8-13.2,24.3-24.5,27.2C90.8,368.9,80.9,368.9,77.2,367.9L77.2,367.9z M329.7,293.5v-73.6h45.9v147.2h-45.9V293.5z
	 M422,293.5v-73.6h45.9v147.2H422V293.5z M485.1,359.9v-7.3h-2.7c-2.5,0-2.7-0.1-2.7-1.3v-1.3h14v1.3c0,1.2-0.1,1.3-2.7,1.3h-2.7
	v14.5h-3.2v-7.2H485.1z M494.8,358.4v-8.7h4.8l1.6,5.3c0.9,2.9,1.6,5.6,1.6,6c0,1.7,1.1-0.7,2.7-5.9l1.7-5.5h4.8v17.2h-3.2v-6
	c0-6.5,0-6.5-2.4,1.3c-1.5,4.8-1.5,4.8-3.1,4.5c-1.6-0.1-1.7-0.3-3.3-5.9l-1.6-5.6l-0.1,5.7l-0.1,5.7h-3.2L494.8,358.4L494.8,358.4z
	 M346.3,194.5c-10.4-2.1-18.9-10.9-20.8-21.5c-2.1-12.8,6.4-25.6,19.2-28.9c6.5-1.7,14.9-0.8,20.8,2.3c3.6,1.9,8.9,7.1,10.8,10.4
	c6.3,11.5,2.5,26.5-8.3,33.6C362,194.1,352.9,195.9,346.3,194.5z M438.4,194.5c-13.5-2.7-22.9-16.1-20.8-29.3
	c1.6-10.1,9.3-18.5,19.2-21.1c6.5-1.7,14.9-0.8,20.8,2.1c3.6,1.9,8.7,6.7,10.7,10.1c6.5,11.3,2.8,26.7-8.1,33.7
	C454.1,194.1,445.2,195.9,438.4,194.5L438.4,194.5z"/>
</svg>
