<svg version="1.1" xmlns="http://www.w3.org/2000/svg" xmlns:xlink="http://www.w3.org/1999/xlink" x="0px" y="0px"
	 viewBox="0 0 512 512" style="enable-background:new 0 0 512 512;" xml:space="preserve">
<style type="text/css">
	.wiiu-st0{fill:#FFFFFF;}
</style>
<g id="Capa_x0020_1" transform="translate(-5.825 -5.621)">
	<g id="_56610944">
		<path id="_56666168" class="wiiu-st0" d="M419.7,238c0,34.9,41.2,30,41.2,5.5v-57.9h-41.2V238L419.7,238z"/>
		<path id="_56603080" class="wiiu-st0" d="M362.7,274.7c0,17.2,11.9,27.5,29.3,27.5h99.1c14.8,0,26.7-10.1,26.7-24.8v-72.4
			c0-8.8-6.5-18.4-14.7-18.4h-22.9v59.6c0,45.3-78.9,44.9-78.9,0.9v-61.5h-17.5c-11.3,0-21.2,7.2-21.2,18.4L362.7,274.7L362.7,274.7
			z"/>
		<path id="_56604928" class="wiiu-st0" d="M225.5,202.8c0,9.3,7.9,17.3,17.9,17.3c10.4,0,18.5-7.7,18.5-17.3c0-9.7-8.1-17.3-18.5-17.3
			C233.4,185.5,225.5,193.2,225.5,202.8z"/>
		<path id="_56605920" class="wiiu-st0" d="M259.1,336.7v-99.5h-30.7v99.5H259.1z"/>
		<path id="_56605848" class="wiiu-st0" d="M287.8,202.8c0,9.3,8.1,17.3,18.1,17.3c10.1,0,18.4-7.7,18.4-17.3c0-9.7-8.1-17.3-18.4-17.3
			C295.9,185.5,287.8,193.2,287.8,202.8z"/>
		<path id="_56607936" class="wiiu-st0" d="M321.4,336.7v-99.5h-30.8v99.5H321.4z"/>
		<path id="_56607472" class="wiiu-st0" d="M179.7,193.9l-26.8,105.3c0,0-20.5-79.1-24.1-90.5c-3.2-11.2-10.1-16.1-19.9-16.1
			c-9.9,0-16.5,4.9-20.1,16.1C85.5,220,65,299.2,65,299.2L38.1,193.9H5.8c0,0,30.9,112.3,35.2,125.5c3.2,10.1,11.2,18.4,22.5,18.4
			c13.3,0,19.6-9.7,22.3-18.4c3.1-8.9,23.1-83.1,23.1-83.1s20.1,74.1,22.8,83.1c3.1,8.7,9.2,18.4,22.3,18.4
			c11.7,0,19.3-8.1,22.8-18.4c4.1-13.2,35.2-125.5,35.2-125.5L179.7,193.9L179.7,193.9z"/>
	</g>
</g>
</svg>
