<svg version="1.1" focusable="false" xmlns="http://www.w3.org/2000/svg" xmlns:xlink="http://www.w3.org/1999/xlink"
	 x="0px" y="0px" viewBox="0 0 800 800" style="enable-background:new 0 0 800 800;" xml:space="preserve">
<path fill="#fff" d="M731.4,472.1c0,1.5-0.2,2.5-0.5,3.1c-19,79.8-58.9,144.4-119.6,194c-60.7,49.6-131.8,74.3-213.4,74.3
	c-43.5,0-85.5-8.2-126.1-24.6c-40.6-16.4-76.9-39.7-108.7-70.1l-57.6,57.6c-5.7,5.7-12.4,8.5-20.1,8.5s-14.4-2.8-20.1-8.5
	c-5.7-5.7-8.5-12.4-8.5-20.1l0-200c0-7.7,2.8-14.4,8.5-20.1c5.7-5.7,12.4-8.5,20.1-8.5l200,0c7.7,0,14.4,2.8,20.1,8.5
	c5.7,5.7,8.5,12.4,8.5,20.1c0,7.7-2.8,14.4-8.5,20.1l-61.2,61.2c21.1,19.6,45.1,34.8,71.9,45.5c26.8,10.7,54.6,16.1,83.5,16.1
	c39.9,0,77.1-9.7,111.6-29c34.5-19.3,62.2-46,83-79.9c3.3-5.1,11.2-22.5,23.7-52.2c2.4-6.8,6.8-10.3,13.4-10.3h85.7
	c3.9,0,7.2,1.4,10,4.2C730,464.9,731.4,468.3,731.4,472.1L731.4,472.1z M742.6,115l0,200c0,7.7-2.8,14.4-8.5,20.1
	c-5.7,5.7-12.4,8.5-20.1,8.5l-200,0c-7.7,0-14.4-2.8-20.1-8.5c-5.7-5.7-8.5-12.4-8.5-20.1c0-7.7,2.8-14.4,8.5-20.1l61.6-61.6
	c-44-40.8-96-61.2-155.8-61.2c-39.9,0-77.1,9.7-111.6,29c-34.5,19.3-62.2,46-83,79.9c-3.3,5.1-11.2,22.5-23.7,52.2
	c-2.4,6.8-6.8,10.3-13.4,10.3H79.2c-3.9,0-7.2-1.4-10-4.2c-2.8-2.8-4.2-6.2-4.2-10v-3.1c19.3-79.8,59.5-144.4,120.5-194
	c61-49.6,132.4-74.3,214.3-74.3c43.5,0,85.7,8.3,126.8,24.8c41.1,16.5,77.5,39.8,109.4,69.9l58-57.6c5.7-5.7,12.4-8.5,20.1-8.5
	c7.7,0,14.4,2.8,20.1,8.5C739.7,100.6,742.6,107.3,742.6,115z"/>
</svg>