<svg version="1.1" focusable="false" xmlns="http://www.w3.org/2000/svg" xmlns:xlink="http://www.w3.org/1999/xlink"
	 x="0px" y="0px" viewBox="0 0 800 800" style="enable-background:new 0 0 800 800;" xml:space="preserve">
<path fill="#fff" d="M742.9,608.9c0,15.4-5.4,28.5-16.2,39.2l-78.5,78.5c-10.8,10.8-23.9,16.2-39.2,16.2c-15.4,0-28.5-5.4-39.2-16.2
	L400,557L230.3,726.7c-10.8,10.8-23.9,16.2-39.2,16.2c-15.4,0-28.5-5.4-39.2-16.2l-78.5-78.5c-10.8-10.8-16.2-23.9-16.2-39.2
	c0-15.4,5.4-28.5,16.2-39.2L243,400L73.3,230.3c-10.8-10.8-16.2-23.9-16.2-39.2c0-15.4,5.4-28.5,16.2-39.2l78.5-78.5
	c10.8-10.8,23.9-16.2,39.2-16.2s28.5,5.4,39.2,16.2L400,243L569.7,73.3c10.8-10.8,23.9-16.2,39.2-16.2s28.5,5.4,39.2,16.2l78.5,78.5
	c10.8,10.8,16.2,23.9,16.2,39.2s-5.4,28.5-16.2,39.2L557,400l169.7,169.7C737.5,580.5,742.9,593.6,742.9,608.9z"/>
</svg>