<svg version="1.1" focusable="false" xmlns="http://www.w3.org/2000/svg" xmlns:xlink="http://www.w3.org/1999/xlink"
	 x="0px" y="0px" viewBox="0 0 800 800" style="enable-background:new 0 0 800 800;" xml:space="preserve">
<path fill="#fff" d="M742.9,239.9c0,11.8-4.1,21.8-12.4,30.1L410.2,590.2L350,650.4c-8.3,8.3-18.3,12.4-30.1,12.4
	c-11.8,0-21.8-4.1-30.1-12.4l-60.2-60.2L69.5,430.1c-8.3-8.3-12.4-18.3-12.4-30.1s4.1-21.8,12.4-30.1l60.2-60.2
	c8.3-8.3,18.3-12.4,30.1-12.4s21.8,4.1,30.1,12.4l130.1,130.5l290.2-290.7c8.3-8.3,18.3-12.4,30.1-12.4c11.8,0,21.8,4.1,30.1,12.4
	l60.2,60.2C738.7,218,742.9,228.1,742.9,239.9z"/>
</svg>