<svg version="1.1" focusable="false" xmlns="http://www.w3.org/2000/svg" xmlns:xlink="http://www.w3.org/1999/xlink"
	 x="0px" y="0px" viewBox="0 0 800 800" style="enable-background:new 0 0 800 800;" xml:space="preserve">
<path fill="#fff" d="M657.9,280.2c0-37.7-30.8-68.5-68.5-68.5H486.5c-12,0-18.8-13.7-12-24c10.3-17.1,15.4-37.7,10.3-60
	C478,93.4,452.3,66,419.7,59.2c-56.5-12-104.5,30.8-104.5,84c0,17.1,5.1,30.8,12,44.6c6.9,10.3,0,24-13.7,24H210.7
	c-37.7,0-68.5,30.8-68.5,68.5v119.9c0,12,13.7,18.8,24,12c17.1-10.3,37.7-15.4,60-10.3c34.3,6.9,61.7,32.6,68.5,65.1
	c12,54.8-30.8,104.5-84,104.5c-17.1,0-30.8-5.1-44.6-12c-8.6-6.9-22.3,0-22.3,12v102.8c0,37.7,30.8,68.5,68.5,68.5h377
	c37.7,0,68.5-30.8,68.5-68.5L657.9,280.2L657.9,280.2z"/>
</svg>