<svg version="1.1" focusable="false" xmlns="http://www.w3.org/2000/svg" xmlns:xlink="http://www.w3.org/1999/xlink"
	 x="0px" y="0px" viewBox="0 0 800 800" style="enable-background:new 0 0 800 800;" xml:space="preserve">
<style type="text/css">
	.mail-st0{fill:#FFFFFF;}
</style>
<path class="mail-st0" d="M742.9,304.3v303.8c0,16.8-6,31.3-18,43.2c-12,12-26.4,18-43.2,18H118.4c-16.8,0-31.3-6-43.2-18
	c-12-12-18-26.4-18-43.2V304.3c11.2,12.5,24.1,23.6,38.6,33.3c92.3,62.8,155.7,106.8,190.2,132c14.5,10.7,26.3,19.1,35.4,25.1
	c9.1,6,21.1,12.1,36.2,18.4c15.1,6.2,29.1,9.4,42.1,9.4h0.8c13,0,27-3.1,42.1-9.4c15.1-6.2,27.1-12.4,36.2-18.4
	c9.1-6,20.9-14.3,35.4-25.1c43.4-31.4,106.9-75.4,190.6-132C719.1,327.7,731.9,316.6,742.9,304.3z M742.9,191.8
	c0,20.2-6.2,39.4-18.7,57.8c-12.5,18.4-28.1,34.1-46.7,47.1c-95.9,66.6-155.6,108-179.1,124.4c-2.6,1.8-8,5.7-16.3,11.7
	c-8.3,6-15.2,10.8-20.7,14.5c-5.5,3.7-12.1,7.8-19.9,12.4c-7.8,4.6-15.1,8-22,10.3c-6.9,2.3-13.3,3.4-19.1,3.4h-0.8
	c-5.9,0-12.2-1.1-19.1-3.4c-6.9-2.3-14.2-5.7-22-10.3c-7.8-4.6-14.4-8.7-19.9-12.4c-5.5-3.7-12.4-8.5-20.7-14.5
	c-8.3-6-13.7-9.9-16.3-11.7c-23.2-16.3-56.6-39.6-100.3-69.8s-69.8-48.4-78.4-54.5c-15.8-10.7-30.7-25.4-44.8-44.2
	c-14-18.8-21-36.2-21-52.2c0-19.9,5.3-36.5,15.9-49.7c10.6-13.3,25.7-19.9,45.3-19.9h563.3c16.6,0,30.9,6,43,18
	C736.8,160.6,742.9,175,742.9,191.8L742.9,191.8z"/>
</svg>