<svg xmlns="http://www.w3.org/2000/svg" xmlns:xlink="http://www.w3.org/1999/xlink"
	 x="0px" y="0px" viewBox="0 0 800 800" style="enable-background:new 0 0 800 800;" xml:space="preserve">
<g>
	<path class="fill no-stroke" d="M409.2,57.1c-147.4,0-315.9,84.9-315.9,324.8c0,174.2,130.9,360.9,331,360.9h3c75.2-1.4,156.1-50,156.1-153.6
		c0-19.8-7.4-37-13.9-52.1c-1.7-4-3.4-7.9-4.9-11.9c-14.8-37.3,1.5-50.9,39.9-78.3c43.5-31,103.1-73.3,102.3-185.5
		C706.8,194.8,634,57.1,409.2,57.1z M423.9,108.6c33.1,0,60,26.9,60,60s-26.9,60-60,60s-60-26.9-60-60S390.8,108.6,423.9,108.6z
		 M235.4,502.9c-33.1,0-60-26.9-60-60s26.9-60,60-60s60,26.9,60,60S268.5,502.9,235.4,502.9z M252.5,314.3c-33.1,0-60-26.9-60-60
		s26.9-60,60-60s60,26.9,60,60S285.6,314.3,252.5,314.3z M418.8,660.6c-38.4,0-68.6-30.2-68.6-68.6c0-38.4,30.2-68.6,68.6-68.6
		c38.4,0,68.5,30.2,68.5,68.6C487.3,630.4,457.2,660.6,418.8,660.6z M578.2,331.4c-33.1,0-60-26.9-60-60s26.9-60,60-60
		c33.1,0,60,26.9,60,60S611.4,331.4,578.2,331.4z"/>
</g>
</svg>