<svg version="1.1" xmlns:cc="http://creativecommons.org/ns#" xmlns:dc="http://purl.org/dc/elements/1.1/" xmlns:rdf="http://www.w3.org/1999/02/22-rdf-syntax-ns#" xmlns:svg="http://www.w3.org/2000/svg" xmlns="http://www.w3.org/2000/svg" xmlns:xlink="http://www.w3.org/1999/xlink" x="0px" y="0px" viewBox="0 0 128 128" style="enable-background:new 0 0 128 128;" xml:space="preserve">
<style type="text/css">
	.audacity-st0{fill:#FFFFFF;}
</style>
<g>
	<path class="audacity-st0" d="M95.8,92.9L95,91.3l-0.3,2.5l-0.7,6.5l-2-6.7l-1-3.3l-0.6,2.8L86,112.3l-0.9-21.5L85,89.3l-0.6,1.2l-0.5,1
		L82,95.3l-1,18l-3.3-15.7L76,89.3l-1.4,6.3L71,111.3l-1.4-14.7L69,90.3l-1.6,6.6L63,115.3l-1.1-13.9L61,90.3l-2,6l-0.1,4.5
		l-0.3,11.5l-4.9-19.3L52,86.3l-1,7.9l-2,15.1l-2.9-16.5L46,92.3l-2-2V97v12.3l-3-14l-0.5-1.3L39,90.3v5.5v13.5l-2.3-11.4L36,94.3
		l-0.2,2.2l-0.8,9.8l-3-10l-0.4-0.4L31,95.3v9v2.8c4.3,4.7,8.4,9.8,15.4,9.7c6,2.1,5.2-6.9,10.6,0.5c5,6.8,8,2.8,11.3-0.5
		c4.7,7.3,6.2-8.7,10.2-1.5c6.2,2.4,11.7,3.6,12.7-4.6c0.6-3,3.3-4.6,5.8-6.3v-9L95.8,92.9z"/>
	<path class="audacity-st0" d="M31.5,81.8l2.5,9.5v-7.9v-6.1l3,5l2-19l1.1,13.1L41,87.3l2.8-6.5l0.2-0.5l1-24l1.9,22.8l0.1,1.2l2,4l0.8-10.1
		L52,48.3l4.4,30.8L58,90.3l1.6-12.4L64,44l0.7,28.9L65,85.3l2-6l0.9-5l3.1-18L73.6,74l1.4,9.3l2-8l0.1-1.1L80,49.3l2.6,26.4
		l0.4,3.6l1,4l1.5-5.6L89,64.3l1,14l0.3,0.7l1.7,3.3l0.7-4.3l1.3-8.7l0.6,10.6l0.4,6.4l1.6-4.4l0.4-1V68.3c-2.7-3.4-5.4-7.4-8.8-7.8
		c-5.9,2.9-3.6-9.8-6.1-13.5c-0.8-9.8-2.9-5.4-5.2,1.3c-1.3,9.7-6.6,5.1-9.3-1.3c-2.4-2-5.2-12.7-6.6-4.5c-2.3,5.7-4.5,15.2-7.2,4.3
		c-2-7.8-6.3,4.9-9.4,7c-6.3,4.8-9.7,11.5-12.5,18.7c-0.4-0.3-0.7-0.6-1.1-0.8V80L31.5,81.8z"/>
	<polygon class="audacity-st0" points="83.9,91.5 84.4,90.5 84,90.3 	"/>
	<polygon class="audacity-st0" points="97,82.3 97,80.9 96.6,81.9 	"/>
	<polygon class="audacity-st0" points="31,80 31,81.5 31.5,81.8 	"/>
	<path class="audacity-st0" d="M95,86.3l-0.4-6.4l-2-2L92,82.3l-1.7-3.3L87,82.3l-1.5-4.6L84,83.3l-1-4l-0.4-3.6L79,82.3l-1.9-8.1L77,75.3
		l-2,8L73.6,74L70,81.3l-2.1-7l-0.9,5l-2,6l-0.3-12.4c-1.2,4.2-2.7,9.8-2.7,10.4c0,0.7-1.5-3.1-2.4-5.4L58,90.3l-1.6-11.2L55,76.3
		l-2,8l-2-12l-1.2,1.9L49,84.3l-2-4l-0.1-1.2L45,82.3l-1.2-1.5L41,87.3l-0.9-10.9L40,76.3l-3,9l-3-1.9v7.9l-2.5-9.5L31,81.5v13.8
		l0.6,0.6l3.4-0.6l0.8,1.2l0.2-2.2l0.7,3.6l0.3,0.4l2-2.5v-5.5l1.5,3.7l0.5-0.7l3,3.8v-6.8l2,2l0.1,0.5l0.9-4.5l4,5.9l1-7.9l1.7,6.7
		l3.3-1.7l1.9,9.5l0.1-4.5l2-6l0.9,11.1l3.1-8.1l2.4,3.6l1.6-6.6l0.6,6.3l1.4-6.3l3.6,5.3l1.4-6.3l1.7,8.3l3.3-7.3l1,5l1.9-3.8
		l0.1-1.3l0.4,0.2l0.6-1.2l0.1,1.5l2.9,1.5l2.4,0.8l0.6-2.8l1,3.3l2,0.7l0.7-0.5l0.3-2.5l0.8,1.6L97,92v-9.8l-0.4-0.4L95,86.3z"/>
	<path class="audacity-st0" d="M89.3,20.6C82,14.8,71.6,12.3,60,12.3s-19.6,3.3-27,9c-3.8,3-8,9.2-10.8,16.2C20.6,45.2,19,52.7,19,52.3
		c0-4.8,1.3-10,3.2-14.8c0.4-2,0.8-4,1.2-5.9c-0.7,1-1.4,1.9-2,2.9c-1.3,5.3-3,12.4-5.3,21.8v48c-3.4,0-6.8-0.7-9.9-2.1
		c4.2,6.2,10.1,10.1,16.9,10.1V46.2c0-8.3,4.3-15.9,11.7-21.7s17.8-9.4,29.3-9.4s22,3.7,29.3,9.4c0.4,0.3,0.8,0.7,1.2,1
		C93.1,23.8,91.3,22.1,89.3,20.6z"/>
	<path class="audacity-st0" d="M101,110.3V49.4c-0.7,0.1-1.4,0.3-2,0.6v59.3c-0.7,0-1.4-0.2-2-0.6v0.6c1,2,3,3,5,3v-2.7
		C101.7,110,101.4,110.3,101,110.3z"/>
	<path class="audacity-st0" d="M113,50.2v-4c0-10.2-5-19.5-12.8-26.3c5.5,6.3,8.8,14,8.8,22.3l1,8.1c8.9,4.5,13,12.2,13,26
		c0,15.6-7.4,27.9-18,30.8v5.2c13,0,23-14.3,23-32C128,66.5,121.9,54.7,113,50.2z"/>
	<path class="audacity-st0" d="M23.9,28.7c0.5-2.6,0.9-4.8,1-6c-0.2,0.3-0.5,0.5-0.7,0.8c-0.5,1.7-1.3,4.5-2.3,8.8
		C22.4,31,23.1,29.9,23.9,28.7z"/>
	<path class="audacity-st0" d="M26,106.9v5.4c2,0,4-1,5-3V107v-2.8C30.4,105.6,28.1,106.4,26,106.9z"/>
	<path class="audacity-st0" d="M22.2,37.5c-1.9,4.8-3.2,10-3.2,14.8C19,52.7,20.6,45.2,22.2,37.5z"/>
	<path class="audacity-st0" d="M99,50c-0.8,0.4-1.5,0.8-2,1.3v17v12.7v1.3V92v3.3v9v4.3c0.6,0.4,1.3,0.6,2,0.6V50z"/>
	<path class="audacity-st0" d="M123,76.3c0-13.8-4.1-21.5-13-26l-1-8.1c0-8.4-3.3-16.1-8.8-22.3c-0.6-0.6-1.3-1.1-2-1.6
		c-8.9-7-21-11.1-34.3-11.1s-25.4,4.1-34.3,11.1c-1.7,1.4-3.4,2.8-4.9,4.4c-0.2,1.3-0.5,3.4-1,6c2.5-3.8,6.4-7.7,13.9-11.7
		c-6.3,3.9-10.5,9.1-14.5,14.6c-0.4,1.9-0.8,3.9-1.2,5.9c2.8-7,7-13.2,10.8-16.2c7.4-5.7,15.4-9,27-9s22,2.5,29.3,8.3
		c2,1.5,3.7,3.2,5.2,5c6.6,5.6,10.4,12.8,10.4,20.7V107C115.6,104.2,123,91.9,123,76.3z M111.7,58.6l-2.6-7.8l4.1,6.4L111.7,58.6z"
		/>
	<path class="audacity-st0" d="M31,104.3v-9V81.5V80v-8.3V51.3c-0.9-0.9-2.6-1.8-4.3-2l1.1,0.7l0.3,2.6l-1.9-2l0.2-1.2c-0.1,0-0.3,0-0.4,0
		v57.6C28.1,106.4,30.4,105.6,31,104.3z"/>
	<path class="audacity-st0" d="M16,56.3c-1.2,4-9.8,11.4-9.8,19.4C6.2,67.7,9.2,58.5,16,56.3c2.2-9.4,4-16.5,5.3-21.8
		c-0.4,0.6-0.9,1.2-1.3,1.8c0.6-1.4,1.2-2.7,1.8-4.1c1.1-4.3,1.8-7.1,2.3-8.8C18.5,29.8,15,37.7,15,46.2v4C6.1,54.7,0,66.5,0,80.3
		c0,8.5,2.3,16.2,6.1,21.9c3.1,1.4,6.4,2.1,9.9,2.1V56.3z"/>
	<path class="audacity-st0" d="M101,110.3c0.4,0,0.7-0.3,1-0.7V49.3c-0.3,0-0.7,0-1,0.1V110.3z"/>
	<polygon class="audacity-st0" points="28.1,52.6 27.8,50 26.7,49.3 26.4,49.2 26.4,49.3 26.1,50.5 	"/>
</g>
</svg>
