<svg version="1.1" xmlns:serif="http://www.serif.com/"
	 xmlns="http://www.w3.org/2000/svg" xmlns:xlink="http://www.w3.org/1999/xlink" x="0px" y="0px" viewBox="0 0 512 512"
	 style="enable-background:new 0 0 512 512;" xml:space="preserve">
<style type="text/css">
	.creativeclouds-st0{fill:#FFFFFF;}
</style>
<path class="creativeclouds-st0" d="M478.2,247.7v14.7c-0.1,0.8-0.3,1.6-0.4,2.4c-0.8,6.4-1.3,12.8-2.3,19.2c-3.4,20.6-10.8,39.8-21.9,57.5
	c-16.7,26.9-39.4,47.4-67.8,61.4c-16.4,8.1-34.1,13.3-52.3,15.4c-4,0.5-8.1,0.9-12.1,1.3H164.6c-0.8-0.1-1.6-0.4-2.4-0.4
	c-15.8-1-31-4.6-45.5-10.9c-31.6-13.8-55.1-36.2-70.5-67c-6.8-13.6-11.2-28.3-13-43.4c-0.4-3.7-0.9-7.3-1.3-11v-14.3
	c0.1-0.8,0.4-1.6,0.4-2.4c0.8-13.7,3.6-27,8.6-39.8c13.3-34.4,36.5-59.9,69.5-76.4c17.1-8.6,35.4-13.1,54.4-14.1
	c9.3-0.5,18.7,0,28,1.3c0.8,0.1,2.1-0.3,2.6-0.9c13.4-13.6,28.6-24.7,45.7-33.1c16.6-8.1,34.1-13.4,52.6-15.5
	c4.3-0.5,8.7-0.9,13-1.4h13.4c0.9,0.1,1.8,0.3,2.6,0.4c6.6,0.8,13.3,1.3,19.8,2.4c20.5,3.4,39.5,10.8,57.2,21.7
	c27,16.7,47.6,39.4,61.7,67.9c8.1,16.4,13.4,34.1,15.4,52.3C477.4,239.3,477.8,243.5,478.2,247.7 M228.7,152.6
	c0.3,0.4,0.3,0.5,0.4,0.6c9.2,4.5,18,9.8,26.2,15.9c0.5,0.4,1.8,0.2,2.4-0.2c22.7-14.4,47.4-19.4,73.8-14.7
	c25.9,4.6,47.1,17.6,63.2,38.3c18.3,23.4,25.2,49.9,20.2,79.4c-3.4,19.8-11.3,37.5-24.7,52.3c-24.5,27.1-55.3,38.3-91.4,33.5
	c-22.3-2.9-41.5-12.5-57.4-28.6c-20.4-20.6-41-41.1-61.5-61.7c-2.7-2.7-5.8-4.9-9.7-5.4c-6.9-0.8-13.1,2.6-16.1,8.8
	c-2.6,5.5-2.3,11.7,3.4,17.4c22.8,22.4,45.5,45,68.3,67.5c3.9,3.9,8.1,7.4,12.5,10.7c16.7,12.1,35.4,18.8,55.8,21.5
	c16,2.1,31.8,1.7,47.5-1.9c30-6.7,54.8-22,74.4-45.7c16.2-19.5,25.9-41.9,29.3-67.1c2-14.4,1.6-28.9-1.2-43.2
	c-4.5-23.3-14.4-44.1-30.1-61.8c-30.1-33.8-67.9-48.9-112.9-45.5c-17.3,1.3-33.7,6.4-49.1,14.5C243.7,141.4,235.9,146.6,228.7,152.6
	 M217.6,388.4c-0.6-0.6-1.2-1.2-1.9-1.7c-9.3-8.8-18.7-17.6-27.9-26.5c-1.8-1.7-3.4-2.6-6-2.5c-9.3,0.2-18.7,0.3-27.9-1.8
	c-45.8-10.4-72.4-60.1-55.5-103.9c13.3-34.5,50.1-55.6,86.5-49.1c16.3,2.9,30.6,9.8,42.3,21.9c14.3,14.8,29,29.1,43.5,43.7
	c3.3,3.3,7.1,4.8,11.6,4.2c5.9-0.8,10.6-3.6,12.7-9.4c2.1-5.7,1.1-11.1-3.2-15.4c-15.2-15.4-30-31.1-45.8-45.9
	c-30.6-28.6-66.7-37.1-106.7-24.9c-53.7,16.3-85.2,71.8-72.9,126.5c11.2,49.9,54.8,84.9,105.8,84.9c14.3,0,28.5,0,42.8,0
	C215.9,388.5,216.6,388.5,217.6,388.4"/>
</svg>