<?xml version="1.0" encoding="utf-8"?>
<!-- Generator: Adobe Illustrator 24.0.1, SVG Export Plug-In . SVG Version: 6.00 Build 0)  -->
<svg version="1.1" id="Calque_1" xmlns:serif="http://www.serif.com/"
	 xmlns="http://www.w3.org/2000/svg" xmlns:xlink="http://www.w3.org/1999/xlink" x="0px" y="0px" viewBox="0 0 512 512"
	 style="enable-background:new 0 0 512 512;" xml:space="preserve">
<g>
	<path d="M325.5,172.4c-5.5,0-10.9-0.9-16.1-2.8c-19.1-6.8-32.7-25.6-32.7-46c0-30.5,0-61.1,0-91.7h-153
		c-16.5,0-30.3,13.8-30.3,30.3V448c0,16.5,13.8,30.3,30.3,30.3h262.7c16.5,0,30.3-13.8,30.3-30.3V172.4H325.5z"/>
	<path d="M325.5,154h90.8L297.5,34.5l0,0l-2.3-2.3v91.5C295.2,140.2,309,154,325.5,154z"/>
</g>
</svg>
