<svg version="1.1" xmlns:serif="http://www.serif.com/"
	 xmlns="http://www.w3.org/2000/svg" xmlns:xlink="http://www.w3.org/1999/xlink" x="0px" y="0px" viewBox="0 0 512 512"
	 style="enable-background:new 0 0 512 512;" xml:space="preserve">
<style type="text/css">
	.ggdocs-st0{fill-rule:evenodd;clip-rule:evenodd;fill:#FFFFFF;}
	.ggdocs-st1{fill:#FFFFFF;}
</style>
<g>
	<path class="ggdocs-st0" d="M276.7,31.9h18.9H123.7c-16.5,0-30.3,13.8-30.3,30.3V448c0,16.5,13.8,30.3,30.3,30.3h262.7
		c16.5,0,30.3-13.8,30.3-30.3V172.4h-91.2c-5.5,0-10.9-0.9-16.1-2.8c-19.1-6.8-32.7-25.6-32.7-46C276.7,93.1,276.7,62.5,276.7,31.9
		L276.7,31.9z M174.6,397.8h121v-20.6h-121V397.8z M174.6,357.2h161.6v-20.6H174.6V357.2L174.6,357.2z M174.6,316.6h161.6V296H174.6
		V316.6L174.6,316.6z M174.6,255.4V276h161.6v-20.6H174.6L174.6,255.4z M416.7,153.6L416.7,153.6l0,1.7c0,1.9,0,3.8,0,5.7V153.6
		L416.7,153.6z M297.5,34.5l-2.3-2.3v91.5c0,16.5,13.8,30.3,30.3,30.3h90.8l-2.2-2.2l-68.2-49L297.5,34.5L297.5,34.5z"/>
	<g>
		<path class="ggdocs-st1" d="M295.2,32.2v91.5c0,16.5,13.8,30.3,30.3,30.3h90.8L295.2,32.2L295.2,32.2z"/>
	</g>
</g>
</svg>