<svg version="1.1" xmlns:serif="http://www.serif.com/" xmlns="http://www.w3.org/2000/svg" xmlns:xlink="http://www.w3.org/1999/xlink" x="0px" y="0px" viewBox="0 0 512 512" style="enable-background:new 0 0 512 512;" xml:space="preserve">
<style type="text/css">
	.ggsheets-st0{fill:#FFFFFF;}
</style>
<g>
	<rect x="180.3" y="266.7" class="ggsheets-st0" width="42.7" height="21.3"/>
	<rect x="244.3" y="352" class="ggsheets-st0" width="85.3" height="21.3"/>
	<rect x="180.3" y="309.3" class="ggsheets-st0" width="42.7" height="21.3"/>
	<rect x="180.3" y="352" class="ggsheets-st0" width="42.7" height="21.3"/>
	<rect x="244.3" y="266.7" class="ggsheets-st0" width="85.3" height="21.3"/>
	<path class="ggsheets-st0" d="M325.5,172.4c-5.5,0-10.9-0.9-16.1-2.8c-19.1-6.8-32.7-25.6-32.7-46c0-30.5,0-61.1,0-91.7h-153
		c-16.5,0-30.3,13.8-30.3,30.3V448c0,16.5,13.8,30.3,30.3,30.3h262.7c16.5,0,30.3-13.8,30.3-30.3V172.4H325.5z M351,266.7V288v21.3
		v21.3V352v21.3v21.3H159v-21.3V352v-21.3v-21.3V288v-21.3v-21.3h21.3h149.3H351V266.7z"/>
	<rect x="244.3" y="309.3" class="ggsheets-st0" width="85.3" height="21.3"/>
	<path class="ggsheets-st0" d="M325.5,154h90.8L297.5,34.5l-2.3-2.3v91.5C295.2,140.2,309,154,325.5,154z"/>
</g>
</svg>