<svg version="1.1" xmlns:serif="http://www.serif.com/" xmlns="http://www.w3.org/2000/svg" xmlns:xlink="http://www.w3.org/1999/xlink" x="0px" y="0px" viewBox="0 0 512 512" style="enable-background:new 0 0 512 512;" xml:space="preserve">
<style type="text/css">
	.ggslides-st0{fill:#FFFFFF;}
</style>
<g>
	<rect x="191" y="277.3" class="ggslides-st0" width="128" height="85.3"/>
	<path class="ggslides-st0" d="M325.5,172.4c-5.5,0-10.9-0.9-16.1-2.8c-19.1-6.8-32.7-25.6-32.7-46c0-30.5,0-61.1,0-91.7h-153
		c-16.5,0-30.3,13.8-30.3,30.3V448c0,16.5,13.8,30.3,30.3,30.3h262.7c16.5,0,30.3-13.8,30.3-30.3V172.4H325.5z M340.3,384
		c0,11.7-9.6,21.3-21.3,21.3H191c-11.7,0-21.3-9.6-21.3-21.3V256c0-11.7,9.6-21.3,21.3-21.3h128c11.7,0,21.3,9.6,21.3,21.3V384z"/>
	<path class="ggslides-st0" d="M325.5,154h90.8L297.5,34.5l-2.3-2.3v91.5C295.2,140.2,309,154,325.5,154z"/>
</g>
</svg>