<svg version="1.1" xmlns="http://www.w3.org/2000/svg" xmlns:xlink="http://www.w3.org/1999/xlink" x="0px" y="0px"
	 viewBox="0 0 2500 2438" style="enable-background:new 0 0 2500 2438;" xml:space="preserve">
<style type="text/css">
	.illustrator-st0{fill:#FFFFFF;}
</style>
<g>
	<path class="illustrator-st0" d="M1093.8,1082.5c-10.4-32.3-19.8-63.5-30.2-95.8c-10.4-32.3-19.8-62.5-28.1-92.7c-8.3-29.2-15.6-56.3-22.9-81.3
		h-2.1c-9.4,44.8-20.8,89.6-35.4,134.4c-15.6,50-31.3,102.1-47.9,154.2c-14.7,53.1-30.3,102.1-45.9,145.8h264.6
		c-6.3-21.9-14.6-47.9-24-75C1112.5,1144,1103.1,1113.8,1093.8,1082.5z"/>
	<path class="illustrator-st0" d="M2057.3,0.3H442.7C197.9,0.3,0,198.2,0,443v1552c0,244.8,197.9,442.8,442.7,442.7h1614.6
		c244.8,0,442.7-197.9,442.7-442.7V443C2500,198.2,2302.1,0.3,2057.3,0.3z M1528.1,1717.9h-217.7c-7.3,1-14.6-4.2-16.7-11.5
		l-85.4-247.8H820.8l-79.2,244.8c-2.1,9.4-10.4,15.6-19.8,14.6H526c-11.5,0-14.6-6.3-11.5-18.8L850,733.6
		c3.1-10.4,6.3-21.9,10.4-34.4c4.2-21.9,6.3-44.8,6.3-67.7c-1-5.2,3.1-10.4,8.3-11.5h269.8c8.3,0,12.5,3.1,13.5,8.3l380.2,1072.9
		C1541.6,1712.7,1538.5,1717.9,1528.1,1717.9z M1887.5,1706.5c0,11.5-4.2,16.7-13.5,16.7h-204.2c-10.4,0-15.6-6.3-15.6-16.7V904.4
		c0-10.4,4.2-14.6,13.5-14.6H1874c9.4,0,13.5,5.2,13.5,14.6V1706.5z M1865.6,765.8c-23.9,25.1-59.3,38.6-94.8,36.5
		c-34.4,1-67.7-12.5-92.7-36.5c-24-26-36.5-60.4-35.4-95.8c-1-35.4,12.5-68.8,37.5-92.7c25-24,58.3-36.5,92.7-36.5
		c40.6,0,71.9,12.5,94.8,36.5c22.9,25,35.4,58.3,34.4,92.7C1903.1,705.4,1890.6,739.8,1865.6,765.8z"/>
</g>
</svg>