<svg version="1.1" xmlns="http://www.w3.org/2000/svg" xmlns:xlink="http://www.w3.org/1999/xlink" x="0px" y="0px"
	 viewBox="0 0 256 256" style="enable-background:new 0 0 256 256;" xml:space="preserve">
<style type="text/css">
	.lazarus-st0{fill:#FFFFFF;}
</style>
<g transform="translate(0.000000,256.000000) scale(0.100000,-0.100000)">
	<path class="lazarus-st0" d="M1203.7,2476.8c-68.8-22.9-85.1-46.8-109-161.6c-18.2-87-31.6-113.8-82.2-159.7
		c-71.7-64.1-227.6-119.5-298.3-105.2c-16.3,3.8-66.9,25.8-110.9,49.7c-70.8,38.2-85.1,43-127.2,39.2c-32.5-3.8-57.4-13.4-82.2-33.5
		c-47.8-38.2-131.9-148.2-165.4-218c-48.8-100.4-34.4-159.7,56.4-228.5c63.1-48.8,85.1-79.4,102.3-146.3
		c26.8-98.5-1.9-250.5-58.3-317.4c-12.4-15.3-55.5-45.9-95.6-67.9c-44.9-24.9-78.4-50.7-89.9-69.8c-37.3-61.2-18.2-159.7,58.3-302.1
		c50.7-93.7,63.1-106.1,147.2-148.2l70.8-34.4l88.9,29.6c148.2,49.7,228.5,29.6,329.9-80.3c56.4-62.1,69.8-102.3,69.8-208.4
		s13.4-127.2,106.1-173.1c90.8-44,127.2-53.5,233.3-61.2c153-10.5,196,14.3,215.1,125.3c5.7,37.3,18.2,84.1,27.7,105.2
		c44,99.4,233.3,205.6,366.2,205.6c35.4,0,66.9-10.5,142.5-47.8c53.5-25.8,106.1-47.8,118.6-47.8c32.5,0,92.7,48.8,145.3,119.5
		c76.5,102.3,93.7,142.5,91.8,214.2c-2.9,93.7-15.3,116.6-98.5,192.2c-88.9,80.3-101.3,107.1-91.8,201.7
		c7.6,83.2,37.3,164.5,77.4,208.4c18.2,19.1,63.1,52.6,101.3,72.7c95.6,52.6,99.4,61.2,86.1,168.3
		c-20.1,158.7-110,334.6-193.1,377.7c-37.3,19.1-66,17.2-145.3-11.5c-82.2-28.7-137.7-31.6-202.7-10.5
		c-60.2,21-167.3,99.4-203.7,149.2c-24.9,34.4-28.7,47.8-33.5,138.6c-9.6,152-33.5,190.3-134.8,221.8
		C1460.9,2479.6,1241.9,2489.2,1203.7,2476.8z M1416,2418.4c121.4-22.9,152-58.3,161.6-183.6c8.6-110,26.8-148.2,104.2-219.9
		c70.8-66,139.6-106.1,218.9-128.1c59.3-16.3,62.1-16.3,162.5,5.7c121.4,26.8,138.6,26.8,179.7-4.8c38.2-29.6,95.6-141.5,109-214.2
		c14.3-77.4-3.8-107.1-107.1-175c-59.3-39.2-89.9-66-107.1-95.6c-57.4-98.5-69.8-279.2-23.9-374.8c12.4-26.8,48.8-75.5,81.3-110
		c74.6-80.3,84.1-98.5,75.5-149.2c-5.7-42.1-62.1-139.6-109-189.3c-60.2-66-106.1-68.8-219.9-16.3c-44.9,20.1-99.4,40.2-121.4,44
		c-84.1,12.4-250.5-45.9-327.9-115.7c-49.7-44.9-71.7-87-87-164.5c-13.4-67.9-36.3-110-73.6-133.9c-21-13.4-44.9-17.2-122.4-16.3
		c-110.9,0-166.4,13.4-207.5,50.7c-26.8,23.9-29.6,31.6-38.2,121.4c-4.8,60.2-15.3,109-27.7,134.8
		c-27.7,56.4-129.1,147.2-208.4,187.4c-85.1,42.1-148.2,50.7-230.4,31.6c-121.4-28.7-173.1-15.3-229.5,62.1
		c-73.6,102.3-98.5,197.9-65,249.5c9.6,14.3,48.8,47.8,88,74.6c105.2,72.7,139.6,131,159.7,272.5c9.6,70.8,1.9,153-19.1,208.4
		c-5.7,14.3-40.2,57.4-75.5,95.6c-79.4,83.2-94.7,120.5-74.6,177.8c21,62.1,73.6,142.5,122.4,188.4c59.3,55.5,85.1,55.5,200.8-1.9
		c87-43,90.8-43,165.4-39.2c100.4,4.8,199.8,45.9,274.4,111.9c59.3,52.6,77.4,84.1,104.2,184.5c23.9,84.1,39.2,110,78.4,126.2
		C1263,2429.9,1345.2,2431.8,1416,2418.4z"/>
	<path class="lazarus-st0" d="M1283.1,1902.1c0-91.8,3.8-177.8,7.6-191.2c4.8-15.3,7.6,12.4,8.6,78.4c1,56.4,4.8,105.2,10.5,108
		c6.7,3.8,6.7,11.5,0,23.9c-4.8,9.6-10.5,34.4-10.5,54.5c-1,20.1-4.8,49.7-8.6,65C1286.9,2057,1283.1,1997.8,1283.1,1902.1z"/>
	<path class="lazarus-st0" d="M717,1835.2c-126.2-9.6-180.7-24.9-192.2-55.5c-12.4-32.5-3.8-37.3,28.7-18.2c42.1,24.9,52.6,21,92.7-33.5
		c20.1-27.7,51.6-60.2,69.8-71.7c36.3-23.9,121.4-52.6,166.4-54.5c43-1.9,54.5-26.8,54.5-121.4c0-74.6-3.8-91.8-31.6-153.9
		c-33.5-73.6-107.1-179.7-124.3-179.7c-7.6,0-7.6-2.9,0-10.5c7.6-7.6,6.7-23.9-2.9-59.3c-18.2-66.9-17.2-111.9,1-111.9
		c20.1,0,52.6,34.4,52.6,55.5c0,9.6,6.7,26.8,15.3,38.2c8.6,12.4,16.3,41.1,18.2,65c1.9,29.6,12.4,58.3,36.3,93.7
		c55.5,83.2,84.1,149.2,89.9,200.8c7.6,80.3-21,310.7-43,339.4c-15.3,22-122.4,88.9-135.8,85.1C809.8,1841.9,766.8,1839,717,1835.2z
		 M824.1,1774c17.2-8.6,27.7-10.5,34.4-3.8c11.5,11.5,59.3-31.6,59.3-52.6c0-22.9-66-66.9-98.5-66c-64.1,1.9-144.4,77.4-128.1,120.5
		C698.9,1792.2,786.8,1793.1,824.1,1774z"/>
	<path class="lazarus-st0" d="M780.1,1754.9c7.6-19.1,41.1-29.6,54.5-16.3c13.4,13.4,8.6,16.3-28.7,24.9
		C780.1,1768.3,775.4,1767.3,780.1,1754.9z"/>
	<path class="lazarus-st0" d="M1721,1801.7c-13.4-7.6-33.5-13.4-44-14.3c-11.5,0-34.4-15.3-51.6-34.4l-29.6-34.4l2.9-170.2l2.9-170.2
		l54.5-109c33.5-66.9,57.4-128.1,61.2-156.8c3.8-25.8,9.6-50.7,13.4-56.4c3.8-4.8,11.5-28.7,18.2-52.6c9.6-36.3,9.6-50.7-1.9-84.1
		c-14.3-40.2-13.4-40.2,12.4-59.3c42.1-30.6,48.8-24.9,43,31.6c-2.9,26.8-7.6,84.1-10.5,126.2c-2.9,42.1-8.6,80.3-12.4,86.1
		c-4.8,4.8-10.5,22.9-14.3,38.2c-3.8,16.3-25.8,61.2-47.8,100.4c-82.2,145.3-106.1,236.2-80.3,310.7c10.5,31.6,17.2,38.2,36.3,36.3
		c39.2-1.9,150.1,34.4,179.7,59.3c15.3,12.4,38.2,38.2,50.7,56.4c12.4,19.1,27.7,36.3,34.4,38.2c5.7,2.9,30.6-8.6,54.5-23.9
		c24.9-15.3,48.8-27.7,53.5-27.7c19.1,0,8.6,27.7-21,60.2c-25.8,26.8-43,34.4-93.7,44C1827.1,1814.2,1747.7,1816.1,1721,1801.7z
		 M1826.1,1743.4c30.6-36.3-25.8-98.5-97.5-106.1c-39.2-4.8-45.9-1.9-78.4,29.6c-33.5,34.4-34.4,35.4-19.1,58.3
		c19.1,28.7,29.6,29.6,57.4,3.8c17.2-16.3,24.9-18.2,41.1-9.6c11.5,6.7,20.1,17.2,20.1,24.9
		C1749.6,1764.5,1810.8,1763.5,1826.1,1743.4z"/>
	<path class="lazarus-st0" d="M1113.8,1116.2c-23.9-20.1-38.2-27.7-41.1-19.1c-1.9,5.7-10.5,11.5-18.2,11.5c-12.4,0-13.4-7.6-8.6-40.2
		c3.8-30.6,13.4-46.8,36.3-65c16.3-13.4,54.5-47.8,84.1-76.5c29.6-28.7,64.1-59.3,77.4-67.9c15.3-10.5,22-23.9,20.1-40.2
		c-1-13.4,4.8-25.8,12.4-29.6c7.6-2.9,14.3,0,14.3,6.7c1,6.7,5.7,4.8,13.4-5.7c11.5-14.3,14.3-14.3,24.9-1.9
		c8.6,9.6,8.6,14.3,1,14.3c-5.7,0-10.5,4.8-10.5,10.5c0,4.8,4.8,6.7,9.6,3.8c5.7-2.9,9.6,1,9.6,8.6c0,16.3,105.2,119.5,157.8,155.8
		c40.2,26.8,62.1,66.9,61.2,110c0,17.2-2.9,25.8-5.7,20.1c-6.7-17.2-18.2-15.3-58.3,11.5l-35.4,22.9l-66.9-15.3
		c-65-14.3-140.5-10.5-220.9,12.4C1155.9,1146.8,1139.6,1139.2,1113.8,1116.2z"/>
	<path class="lazarus-st0" d="M791.6,939.3c-8.6-9.6-22-31.6-30.6-48.8c-16.3-30.6-16.3-32.5,1.9-37.3c14.3-2.9,17.2-11.5,15.3-32.5
		c-4.8-38.2,10.5-34.4,44,12.4c34.4,47.8,35.4,55.5,4.8,84.1c-12.4,11.5-21,25.8-18.2,29.6C817.4,961.3,806.9,956.5,791.6,939.3z"/>
	<path class="lazarus-st0" d="M1721,860.9c0-4.8-10.5-11.5-23.9-14.3c-41.1-10.5-30.6-37.3,26.8-70.8c35.4-20.1,45.9-17.2,23.9,6.7
		c-10.5,10.5-8.6,11.5,8.6,6.7c29.6-9.6,47.8,23.9,23.9,44C1755.4,855.2,1721,871.5,1721,860.9z"/>
	<path class="lazarus-st0" d="M829.9,824.6c-25.8-30.6-31.6-44.9-15.3-39.2c11.5,4.8,13.4,0,9.6-19.1l-4.8-25.8l22,19.1l22,19.1l-7.6-22.9
		c-4.8-15.3-3.8-20.1,3.8-16.3c5.7,3.8,12.4-3.8,16.3-18.2c2.9-13.4,9.6-23.9,14.3-23.9s8.6,1.9,8.6,3.8c0,1.9,6.7,20.1,14.3,40.2
		l15.3,37.3l-23.9-25.8c-19.1-22-23.9-22.9-28.7-10.5c-3.8,9.6,3.8,25.8,19.1,43c28.7,28.7,28.7,28.7-2.9,44.9
		C863.3,844.7,847.1,843.7,829.9,824.6z"/>
	<path class="lazarus-st0" d="M889.1,764.4c-5.7-10.5-7.6-19.1-5.7-19.1c2.9,0,9.6,8.6,15.3,19.1c5.7,10.5,7.6,19.1,5.7,19.1
		C901.6,783.5,894.9,774.9,889.1,764.4z"/>
	<path class="lazarus-st0" d="M1679.8,755.8c-17.2-10.5-23.9-20.1-17.2-23.9c5.7-3.8,10.5-3.8,10.5,0s8.6-1,19.1-10.5
		c20.1-18.2,20.1-18.2,14.3,14.3c-5.7,32.5-5.7,32.5,14.3,14.3s27.7-7.6,7.6,12.4C1713.3,777.8,1711.4,776.8,1679.8,755.8z"/>
</g>
</svg>