<svg version="1.1" xmlns="http://www.w3.org/2000/svg" xmlns:xlink="http://www.w3.org/1999/xlink" x="0px" y="0px"
	 viewBox="0 0 48 48" style="enable-background:new 0 0 48 48;" xml:space="preserve">
<style type="text/css">
	.paintnet-st0{fill:#FFFFFF;}
</style>
<g>
	<g>
		<path class="paintnet-st0" d="M36,21c0-2.2-1.8-4-4-4c-1.3,0-2.5,0.6-3.2,1.6C28.3,18.2,27.7,18,27,18c-0.9,0-1.6,0.4-2.2,1
			c-0.4-1.1-1.5-2-2.8-2c-0.4,0-0.7,0.1-1.1,0.2c-0.4-1.8-2-3.2-3.9-3.2c-1.9,0-3.5,1.3-3.9,3.1c-0.2,0-0.4-0.1-0.6-0.1
			c-1,0-1.9,0.4-2.5,1.1V20v2.9V31l4.5-4l4.5-4l5,4l2.5-2l2.4,1.9l7.1-5.7C36,21.1,36,21.1,36,21z"/>
		<polygon class="paintnet-st0" points="22.4,32.1 24.9,35 31.5,28.9 28.9,26.9 		"/>
		<polygon class="paintnet-st0" points="38,34 38,26.8 38,24 38,22.9 31.5,28.9 		"/>
		<path class="paintnet-st0" d="M44.8,15.3c-0.4-0.4-1-0.5-1.4-0.1L36,21.2c0,0,0,0,0,0c0.3-0.1,0.7-0.2,1-0.2c0.4,0,0.7,0.1,1,0.2v1.7
			l6.6-6.1C45.1,16.4,45.1,15.8,44.8,15.3z"/>
	</g>
	<polygon class="paintnet-st0" points="22.4,32.1 24.9,35 31.5,28.9 28.9,26.9 	"/>
</g>
<g>
	<path class="paintnet-st0" d="M8,4v40h32V4H8z M38,36H24.8c-0.2,0.5-0.4,0.9-0.8,1.3c-1.2,1.1-7,1.7-7,1.7s0.5-1.5,1.2-3H10V6h28V36z"/>
	<path class="paintnet-st0" d="M24.3,33c-1.1-1.2-3-1.4-4.2-0.3c-0.6,0.5-1.3,1.9-1.9,3.3h6.6C25.2,35,25,33.9,24.3,33z"/>
</g>
</svg>