<svg version="1.1" xmlns="http://www.w3.org/2000/svg" xmlns:xlink="http://www.w3.org/1999/xlink" x="0px" y="0px"
	 viewBox="0 0 2500 2499" style="enable-background:new 0 0 2500 2499;" xml:space="preserve">
<style type="text/css">
	.sublimetext-st0{fill:#FFFFFF;}
</style>
<g>
	<path class="sublimetext-st0" d="M2369.6,0H130.4C58.8,0,0.2,58.6,0.2,130.2v2238.6c0,71.6,58.6,130.2,130.2,130.2H2403l0,0
		c53.1,0,96.2-43.1,96.8-96.2V130.2C2499.8,58.6,2441.2,0,2369.6,0z M1960.5,1262.8l-0.6,425.2c0,1,0,1.9,0.1,2.9
		c1.6,19.6-3.6,29.4-10.6,34c-5.3,3.4-10.1,7.8-13,13.4c-3.1,6.1-18.5,10.5-21.8,11.4c-0.5,0.1-0.9,0.3-1.4,0.4L607.4,2166.8
		c-0.9,0.3-1.8,0.6-2.6,1c-38.9,16-55.8,4.3-63-6.8c-3.5-5.5-5.2-12-5-18.6c1.2-36.9,7.5-256.6,0.4-370.6
		c-7-111.6,45.5-125.2,56.7-126.8c1.7-0.2,3.4-0.6,5-1.1l446.1-136.2c31.3-9.6,31.6-53.7,0.5-63.8L626.7,1309
		c-1-0.3-2.1-0.6-3.1-0.8c-90.7-19.8-86.2-67.9-86.2-67.9l2.8-382.7c0-1.8-0.1-3.7-0.4-5.5c-13-81.5,32.4-96.2,36.5-97.3
		c0.3-0.1,0.6-0.2,0.9-0.3l1304.9-414.1c1.5-0.5,3-1.1,4.4-1.8c13.1-6.3,86.7-38.9,69.4,38.7c-0.6,2.5-0.9,5.1-0.8,7.7l3.3,392.7
		c0,1.9,0.2,3.8,0.5,5.7c2,11,6,57.3-62.9,70.6c-1.3,0.2-2.5,0.6-3.8,0.9l-427.7,133.7c-31.2,9.8-31.3,54,0,63.8l427.9,134.2
		c70.5,25.5,69.9,62.5,68.6,71.3C1960.6,1259.5,1960.5,1261.2,1960.5,1262.8z"/>
</g>
</svg>