<svg version="1.1" xmlns="http://www.w3.org/2000/svg" xmlns:xlink="http://www.w3.org/1999/xlink" x="0px" y="0px"
	 viewBox="0 0 512 512" style="enable-background:new 0 0 512 512;" xml:space="preserve">
<style type="text/css">
	.visualparadigm-st0{fill:#FFFFFF;}
</style>
<g transform="translate(0.000000,512.000000) scale(0.100000,-0.100000)">
	<path class="visualparadigm-st0" d="M1487,4032L420,2965l1063-1063c584-584,1067-1062,1072-1062c13,0,805,792,805,805c0,6-364,375-810,820
		l-810,810l397,397c219,219,402,398,408,398c5,0,191-181,412-402l403-403l-300-300l-300-300l408-408l407-407l558,558l557,557
		L3622,4033L2555,5100L1487,4032z"/>
	<path class="visualparadigm-st0" d="M675,2200l-150-150l1015-1015L2555,20l1015,1015l1015,1015l-153,152l-152,153l-863-863l-862-862l-860,860
		c-473,473-862,860-865,860S757,2282,675,2200z"/>
</g>
</svg>