<svg version="1.1" xmlns="http://www.w3.org/2000/svg" xmlns:xlink="http://www.w3.org/1999/xlink" x="0px" y="0px"
	 viewBox="0 0 193 193" style="enable-background:new 0 0 193 193;" xml:space="preserve">
<style type="text/css">
	.visualstudio-st0{fill:#FFFFFF;filter:url(#Adobe_OpacityMaskFilter);}
	.visualstudio-st1{fill:#FFFFFF;}
	.visualstudio-st2{mask:url(#mask0_1_);}
</style>
<g>
	<g>
		<g>
			<g>
				<defs>
					<filter id="Adobe_OpacityMaskFilter" filterUnits="userSpaceOnUse" x="8.3" y="8.3" width="176.5" height="176.5">
						<feColorMatrix  type="matrix" values="1 0 0 0 0  0 1 0 0 0  0 0 1 0 0  0 0 0 1 0"/>
					</filter>
				</defs>
				<mask maskUnits="userSpaceOnUse" x="8.3" y="8.3" width="176.5" height="176.5" id="mask0_1_">
					<path class="visualstudio-st0" d="M40.6,157.5l-29.4-22.1c-0.9-0.7-1.7-1.6-2.2-2.6s-0.8-2.1-0.8-3.3V63.4c0-1.1,0.3-2.3,0.8-3.3
						c0.5-1,1.3-1.9,2.2-2.6l29.4-22.1c-0.8,0.7-1.4,1.7-1.7,2.7c-0.4,1-0.4,2.1-0.3,3.2v110.3c-0.2,1.1-0.1,2.2,0.3,3.2
						S39.8,156.8,40.6,157.5z"/>
					<path class="visualstudio-st1" d="M181.5,38.9c-1.2-0.8-2.6-1.2-4.1-1.2c-0.9,0-1.9,0.2-2.7,0.5c-0.9,0.4-1.7,0.9-2.3,1.5l-0.5,0.5
						l-58.7,56.2l-32.5,31.1l-30,28.8l-0.5,0.5c-0.7,0.7-1.5,1.2-2.3,1.5c-0.9,0.4-1.8,0.5-2.7,0.5c-1.6,0-3.1-0.5-4.4-1.5
						l-29.4-22.1c1.5,1.1,3.4,1.6,5.2,1.4s3.6-1.1,4.8-2.5l32.6-37.9l26.8-31.1l46.9-54.5c0.7-0.8,1.5-1.5,2.5-1.9
						c1-0.4,2-0.7,3.1-0.7c1.4,0,2.9,0.4,4.1,1.2L181.5,38.9z"/>
					<path class="visualstudio-st1" d="M181.5,154.1l-44.1,29.4c-1.5,1-3.3,1.4-5.1,1.1c-1.8-0.2-3.4-1.1-4.6-2.5l-47-54.6L53.9,96.5L21.2,58.6
						c-1.2-1.4-2.9-2.3-4.8-2.5c-1.9-0.2-3.7,0.3-5.2,1.4l29.4-22.1c1.3-1,2.8-1.5,4.4-1.5c0.9,0,1.9,0.2,2.7,0.5
						c0.9,0.4,1.7,0.9,2.3,1.5l0.5,0.5l30,28.8l32.5,31.1l58.7,56.2l0.5,0.5c0.7,0.7,1.5,1.2,2.3,1.5c0.9,0.4,1.8,0.5,2.7,0.5
						C178.8,155.3,180.2,154.9,181.5,154.1z"/>
					<path class="visualstudio-st1" d="M184.7,45V148c0,1.2-0.3,2.4-0.9,3.5c-0.6,1.1-1.4,2-2.4,2.7l-44.1,29.4c1-0.7,1.8-1.6,2.4-2.7
						c0.6-1.1,0.9-2.3,0.9-3.5V15.6c0-1.2-0.3-2.4-0.9-3.5c-0.6-1.1-1.4-2-2.5-2.6l44.2,29.4c1,0.7,1.8,1.6,2.4,2.7
						C184.4,42.6,184.7,43.8,184.7,45z"/>
				</mask>
				<g class="visualstudio-st2">
					<path class="visualstudio-st1" d="M40.6,157.5l-29.4-22.1c-0.9-0.7-1.7-1.6-2.2-2.6c-0.5-1-0.8-2.1-0.8-3.3V63.4c0-1.1,0.3-2.3,0.8-3.3
						c0.5-1,1.3-1.9,2.2-2.6l29.4-22.1c-0.8,0.7-1.4,1.7-1.7,2.7c-0.4,1-0.4,2.1-0.3,3.2v110.3c-0.2,1.1-0.1,2.2,0.3,3.2
						S39.8,156.8,40.6,157.5z"/>
					<g>
						<path class="visualstudio-st1" d="M181.5,38.9c-1.2-0.8-2.6-1.2-4.1-1.2c-0.9,0-1.9,0.2-2.7,0.5c-0.9,0.4-1.7,0.9-2.3,1.5l-0.5,0.5
							l-31.3,30l-27.4,26.3l-32.5,31.1l-30,28.8l-0.5,0.5c-0.7,0.7-1.5,1.2-2.3,1.5c-0.9,0.4-1.8,0.5-2.7,0.5
							c-1.6,0-3.1-0.5-4.4-1.5l-29.4-22.1c1.5,1.1,3.4,1.6,5.2,1.4s3.6-1.1,4.8-2.5l16.5-19.1l16.2-18.8l26.8-31.1l46.9-54.5
							c0.7-0.8,1.5-1.5,2.5-1.9c1-0.4,2-0.7,3.1-0.7c1.5,0,2.9,0.4,4.1,1.2L181.5,38.9z"/>
					</g>
					<g>
						<path class="visualstudio-st1" d="M181.5,154.1l-44.1,29.4c-1.5,1-3.3,1.4-5.1,1.1c-1.8-0.2-3.4-1.1-4.6-2.5l-47-54.6L53.9,96.5L37.7,77.7
							L21.2,58.6c-1.2-1.4-2.9-2.3-4.8-2.5c-1.9-0.2-3.7,0.3-5.2,1.4l29.4-22.1c1.3-1,2.8-1.5,4.4-1.5c0.9,0,1.9,0.2,2.7,0.5
							c0.9,0.4,1.7,0.9,2.3,1.5l0.5,0.5l30,28.8l32.5,31.1l27.5,26.3l31.2,29.9l0.5,0.5c0.7,0.7,1.5,1.2,2.3,1.5
							c0.9,0.4,1.8,0.5,2.7,0.5C178.8,155.3,180.2,154.9,181.5,154.1z"/>
					</g>
					<g>
						<path class="visualstudio-st1" d="M184.7,45V148c0,1.2-0.3,2.4-0.9,3.5c-0.6,1.1-1.4,2-2.4,2.7l-44.1,29.4c1-0.7,1.8-1.6,2.4-2.7
							c0.6-1.1,0.9-2.3,0.9-3.5V15.6c0-1.2-0.3-2.4-0.9-3.5c-0.6-1.1-1.4-2-2.5-2.6l44.2,29.4c1,0.7,1.8,1.6,2.4,2.7
							C184.4,42.6,184.7,43.8,184.7,45z"/>
					</g>
				</g>
			</g>
		</g>
	</g>
</g>
</svg>
