<svg version="1.1" focusable="false" xmlns="http://www.w3.org/2000/svg" xmlns:xlink="http://www.w3.org/1999/xlink"
	 x="0px" y="0px" viewBox="0 0 800 800" style="enable-background:new 0 0 800 800;" xml:space="preserve">
<style type="text/css">
	.icon-st0{fill:#FFFFFF;}
</style>
<path class="icon-st0" d="M294.7,393.6L101.2,587.1c-2.8,2.8-6,4.2-9.6,4.2c-3.6,0-6.8-1.4-9.6-4.2l-20.8-20.8c-2.8-2.8-4.2-6-4.2-9.6
	c0-3.6,1.4-6.8,4.2-9.6L224.5,384L61.3,220.8c-2.8-2.8-4.2-6-4.2-9.6c0-3.6,1.4-6.8,4.2-9.6l20.8-20.8c2.8-2.8,6-4.2,9.6-4.2
	c3.6,0,6.8,1.4,9.6,4.2l193.5,193.5c2.8,2.8,4.2,6,4.2,9.6C298.9,387.6,297.5,390.8,294.7,393.6z"/>
<path class="icon-st0" d="M742.9,583.4V610c0,3.9-1.2,7.1-3.7,9.6c-2.5,2.5-5.7,3.7-9.6,3.7H330.8c-3.9,0-7.1-1.2-9.6-3.7
	c-2.5-2.5-3.7-5.7-3.7-9.6v-26.6c0-3.9,1.2-7.1,3.7-9.6c2.5-2.5,5.7-3.7,9.6-3.7h398.7c3.9,0,7.1,1.2,9.6,3.7
	C741.6,576.3,742.9,579.5,742.9,583.4z"/>
</svg>