<svg version="1.1" xmlns:serif="http://www.serif.com/"
	 xmlns="http://www.w3.org/2000/svg" xmlns:xlink="http://www.w3.org/1999/xlink" x="0px" y="0px" viewBox="0 0 512 512"
	 style="enable-background:new 0 0 512 512;" xml:space="preserve">
<style type="text/css">
	.bash-st0{fill:none;}
	.bash-st1{fill:#FFFFFF;}
</style>
<path class="bash-st1" d="M423.3,123l-141-83.7c-16.7-9.9-37.5-9.9-54.1,0L87.3,123c-17,10.2-27.5,28.6-27.4,48.4v167.3
	c-0.1,19.8,10.2,38.2,27.2,48.4l141,83.7c16.7,9.9,37.5,9.9,54.1,0l141-83.7c16.9-10.2,27.3-28.6,27.2-48.4V171.4
	C450.4,151.7,440.2,133.2,423.3,123L423.3,123z M314.2,384.3v12c0,1.5-0.8,2.9-2.1,3.7L305,404c-1.1,0.6-2.1,0-2.1-1.6v-11.8
	c-5,2.5-10.8,3-16.2,1.6c-0.9-0.6-1.2-1.7-0.8-2.7l2.6-10.9c0.2-0.9,0.7-1.7,1.4-2.4c0.2-0.2,0.4-0.4,0.7-0.5c0.4-0.2,0.8-0.2,1.1,0
	c5,1.3,10.3,0.7,14.8-1.9c6.5-3.2,10.7-9.7,11-16.9c0-6.1-3.3-8.7-11.4-8.7c-10.2,0-19.7-2-19.9-17.1c0.2-13.1,6.3-25.3,16.5-33.5
	v-12.2c0-1.5,0.8-2.9,2.1-3.7l6.9-4.4c1.1-0.6,2.1,0,2.1,1.6v12.2c4.2-1.9,8.9-2.5,13.5-1.6c1,0.6,1.4,1.8,0.9,2.8l-2.4,10.8
	c-0.2,0.8-0.6,1.6-1.2,2.2c-0.2,0.2-0.4,0.4-0.7,0.5c-0.3,0.1-0.7,0.1-1,0c-4.4-1-9.1-0.2-13,2.1c-5.8,2.5-9.6,8.2-9.8,14.5
	c0,5.5,2.9,7.2,12.6,7.4c13,0,18.7,5.9,18.8,19C331,362.7,324.8,375.6,314.2,384.3L314.2,384.3z M388,364c0.2,1-0.2,2.1-1.1,2.7
	l-35.6,21.7c-0.2,0.2-0.4,0.2-0.7,0.2c-0.6,0-1-0.5-1-1c0-0.1,0-0.2,0-0.2v-9.2c0-1,0.7-1.9,1.6-2.3l35.1-21
	c0.2-0.2,0.4-0.2,0.7-0.2c0.6,0,1,0.5,1,1c0,0.1,0,0.2,0,0.2L388,364L388,364z M412.6,158.2l-133.4,82.4
	c-16.6,9.8-28.9,20.6-28.9,40.7v164.3c0,12,4.9,19.7,12.3,22c-2.4,0.5-4.9,0.7-7.4,0.7c-7.8,0-15.5-2.1-22.2-6.2L92,378.5
	c-13.9-8.4-22.4-23.6-22.3-39.8V171.4c-0.1-16.3,8.4-31.4,22.3-39.9l141-83.7c13.6-8.1,30.7-8.1,44.3,0l141,83.7
	c11.6,7,19.5,18.8,21.7,32.2C435.3,153.8,424.8,151.1,412.6,158.2L412.6,158.2L412.6,158.2z"/>
</svg>