<svg version="1.1" xmlns:serif="http://www.serif.com/"
	 xmlns="http://www.w3.org/2000/svg" xmlns:xlink="http://www.w3.org/1999/xlink" x="0px" y="0px" viewBox="0 0 512 512"
	 style="enable-background:new 0 0 512 512;" xml:space="preserve">
<style type="text/css">
	.c-st0{fill:none;}
	.c-st1{fill-rule:evenodd;clip-rule:evenodd;fill:#FFFFFF;}
</style>
<g>
	<path class="c-st1" d="M230.2,46.3c15.4-8.9,34.4-8.9,49.8,0c37.1,21.4,106.4,61.4,143.5,82.8c15.4,8.9,24.9,25.3,24.9,43.1v165.7
		c0,17.8-9.5,34.2-24.9,43.1C386.3,402.4,317,442.4,280,463.9c-15.4,8.9-34.4,8.9-49.8,0c-37.1-21.4-106.4-61.4-143.5-82.8
		c-15.4-8.9-24.9-25.3-24.9-43.1V172.2c0-17.8,9.5-34.2,24.9-43.1C123.8,107.7,193.1,67.7,230.2,46.3z M341.1,288.5
		c-0.7,14.4-4.5,27.1-11.6,38.1c-7.1,11-17.1,19.6-29.9,25.6c-12.8,6.1-27.5,9.1-43.9,9.1c-27.1,0-48.5-8.8-64.1-26.5
		c-15.6-17.7-23.4-42.7-23.4-74.9v-10.2c0-20.2,3.5-38,10.6-53.1c7-15.2,17.2-26.9,30.4-35.2c13.2-8.3,28.6-12.4,46-12.4
		c25.1,0,45.2,6.6,60.4,19.8s23.9,31.4,26,54.6h-49.7c-0.4-12.6-3.5-21.6-9.5-27.1c-6-5.5-15-8.2-27.2-8.2
		c-12.4,0-21.5,4.6-27.2,13.9c-5.8,9.3-8.8,24.1-9.1,44.4v14.6c0,22,2.8,37.8,8.3,47.3c5.5,9.5,15.1,14.2,28.6,14.2
		c11.4,0,20.2-2.7,26.3-8.1c6.1-5.4,9.3-14,9.6-25.7H341.1L341.1,288.5z"/>
</g>
</svg>