<svg version="1.1" xmlns:serif="http://www.serif.com/"
	 xmlns="http://www.w3.org/2000/svg" xmlns:xlink="http://www.w3.org/1999/xlink" x="0px" y="0px" viewBox="0 0 512 512"
	 style="enable-background:new 0 0 512 512;" xml:space="preserve">
<style type="text/css">
	.cpp-st0{fill:none;}
	.cpp-st1{fill-rule:evenodd;clip-rule:evenodd;fill:#FFFFFF;}
</style>
<g>
	<path class="cpp-st1" d="M230.2,46.3c15.4-8.9,34.4-8.9,49.8,0c37.1,21.4,106.4,61.4,143.5,82.8c15.4,8.9,24.9,25.3,24.9,43.1v165.7
		c0,17.8-9.5,34.2-24.9,43.1C386.3,402.4,317,442.4,280,463.9c-15.4,8.9-34.4,8.9-49.8,0c-37.1-21.4-106.4-61.4-143.5-82.8
		c-15.4-8.9-24.9-25.3-24.9-43.1V172.2c0-17.8,9.5-34.2,24.9-43.1C123.8,107.7,193.1,67.7,230.2,46.3z M212.3,275.4
		c-0.4,8.8-2.8,16.5-7.1,23.2c-4.3,6.7-10.4,11.9-18.2,15.6c-7.8,3.7-16.7,5.5-26.8,5.5c-16.5,0-29.6-5.4-39.1-16.2
		c-9.5-10.8-14.3-26-14.3-45.7v-6.2c0-12.3,2.1-23.1,6.4-32.4c4.3-9.3,10.5-16.4,18.6-21.4c8.1-5,17.4-7.6,28-7.6
		c15.3,0,27.6,4,36.8,12.1c9.3,8,14.6,19.1,15.8,33.3h-30.3c-0.2-7.7-2.2-13.2-5.8-16.5c-3.6-3.3-9.2-5-16.6-5
		c-7.6,0-13.1,2.8-16.6,8.5c-3.5,5.6-5.4,14.7-5.5,27.1v8.9c0,13.4,1.7,23,5.1,28.8c3.4,5.8,9.2,8.6,17.4,8.6c7,0,12.3-1.6,16-4.9
		c3.7-3.3,5.6-8.5,5.9-15.7L212.3,275.4L212.3,275.4z M277.9,246.6h29.5v25h-29.5v33.8h-27.2v-33.8H221v-25h29.6v-32.9h27.2V246.6z
		 M372.5,246.6H402v25h-29.5v33.8h-27.2v-33.8h-29.6v-25h29.6v-32.9h27.2L372.5,246.6L372.5,246.6z"/>
</g>
</svg>