<svg version="1.1" xmlns:serif="http://www.serif.com/"
	 xmlns="http://www.w3.org/2000/svg" xmlns:xlink="http://www.w3.org/1999/xlink" x="0px" y="0px" viewBox="0 0 512 512"
	 style="enable-background:new 0 0 512 512;" xml:space="preserve">
<style type="text/css">
	.cs-st0{fill:none;}
	.cs-st1{fill-rule:evenodd;clip-rule:evenodd;fill:#FFFFFF;}
</style>
<g>
	<path class="cs-st1" d="M230.2,46.3c15.4-8.9,34.4-8.9,49.8,0c37.1,21.4,106.4,61.4,143.5,82.8c15.4,8.9,24.9,25.3,24.9,43.1v165.7
		c0,17.8-9.5,34.2-24.9,43.1C386.3,402.4,317,442.4,280,463.9c-15.4,8.9-34.4,8.9-49.8,0c-37.1-21.4-106.4-61.4-143.5-82.8
		c-15.4-8.9-24.9-25.3-24.9-43.1V172.2c0-17.8,9.5-34.2,24.9-43.1C123.8,107.7,193.1,67.7,230.2,46.3z M255.9,280.5
		c-0.5,11-3.5,20.6-8.9,29c-5.4,8.4-13,14.9-22.8,19.5c-9.8,4.6-20.9,6.9-33.5,6.9c-20.7,0-37-6.7-48.9-20.2
		c-11.9-13.5-17.8-32.5-17.8-57.1v-7.8c0-15.4,2.7-28.9,8.1-40.5c5.4-11.6,13.1-20.5,23.2-26.8c10.1-6.3,21.8-9.5,35-9.5
		c19.1,0,34.5,5,46.1,15.1c11.6,10.1,18.2,23.9,19.8,41.6h-37.8c-0.3-9.6-2.7-16.5-7.2-20.6c-4.5-4.2-11.5-6.3-20.8-6.3
		c-9.4,0-16.4,3.5-20.8,10.6c-4.4,7.1-6.7,18.3-6.9,33.8v11.1c0,16.8,2.1,28.8,6.3,36c4.2,7.2,11.5,10.8,21.8,10.8
		c8.7,0,15.4-2.1,20-6.2c4.6-4.1,7.1-10.6,7.4-19.6H255.9L255.9,280.5z M328.1,289.5h-17.4l-7.2,44.3H282l7.2-44.3h-24v-19.8h27.2
		l4.8-28.5h-23.9v-19.8h27.1l7.5-45h21.4l-7.4,45h17.4l7.5-45h21.5l-7.5,45h25v19.8h-28.2l-4.8,28.5h24.8v19.8h-28l-7.2,44.3h-21.5
		L328.1,289.5L328.1,289.5z M314,269.7h17.4l4.8-28.5h-17.4L314,269.7z"/>
</g>
</svg>