<svg version="1.1" xmlns:serif="http://www.serif.com/"
	 xmlns="http://www.w3.org/2000/svg" xmlns:xlink="http://www.w3.org/1999/xlink" x="0px" y="0px" viewBox="0 0 512 512"
	 style="enable-background:new 0 0 512 512;" xml:space="preserve">
<style type="text/css">
	.flask-st0{fill:none;}
	.flask-st1{fill:#FFFFFF;}
</style>
<path id="path2900" class="flask-st1" d="M165.3,410.5c-17-13.4-35.1-26.2-47.5-44.3c-26.1-31.8-46.2-68.7-59.9-107.4
	c-8.3-25.2-11.1-52.2-21.8-76.4c-11.2-17.6,1.9-36.8,21.2-42.4c8.6-1.6,23.7-9.7,5.5-4c-16.3,12-17.9-10.9-1.2-12.3
	c11.4-1.5,15.6-10.9,11.7-19.3c-12.3-8,29.7-16.8,8.6-28.7c-22-23.7,30.8-28.3,17.8-1.3c-3.1,20.7,36.9-3.8,27.6,20.1
	c9.4,11.5,35.3,2.6,34.7,18.8c13.7,0.9,18.5,12.5,31.4,13.4c13.4,6,37.6,10.8,42.2,25.9c-13.3,10.5-44-21.7-45.5,7.4
	c4,43,3,87.2,18.7,128.1c7.4,24.8,25.5,44.3,41.7,63.6c15.6,18.9,36.7,32.2,58.2,43.4c18.9,8.9,39.2,14.8,59.7,18.5
	c8.3-6.4,23.1-30.1,36.1-20.1c0.6,11.2-25.8,23.5-1.2,22.2c14.4-4.4,24.4,11.2,36.3-2.8c10.9,13,45.5-8.3,37.7,18.2
	c-10.5,6.8-25.9,2.7-36.4,12c-17.4-8.7-31.2,7.8-50.5,5.7c-21.4,3.8-43.1,5.4-64.8,5.4c-35.6-2.8-71.9-4-105.7-16.4
	C200.6,432.2,182,421.4,165.3,410.5L165.3,410.5z M195.3,423.5c18.6,8,36.8,16.5,57.2,19.1c32.4,4.5,65.8,11.4,98.2,5.1
	c-14.7-6.6-29.9,2.6-44.5-4.7c-17.6,3.8-36.4-1-54.3-3.3c-20.3-9-42.2-15.3-61.2-27c-23.8-8.7,12.3,11.1,18.7,12.7
	c14.8,8.4-16.3-4.3-20.7-7.8c-12.4-7-14-5.5-1.2,1.6C190.1,420.7,192.6,422.3,195.3,423.5z M159.9,398.5c18,6.7-0.1-12.7-8.3-11.6
	c-3.7-6.4-14-10.4-6.7-13.8c-13.1,4.5-13.7-17.3-19.9-14.2c-13.9-4.4-5.4-19.9-21.9-29.4c-1.5-10-16.4-18.7-21.2-33.9
	c-2.1-7.7-16.8-30-7.8-9.3c7.7,19.9,21.3,37,32.5,54.1c8.8,16.2,19.1,33.2,35.1,43.3C147.1,389,152.3,396.9,159.9,398.5L159.9,398.5
	z M107.9,341.5C108.6,338.8,111.2,347.4,107.9,341.5z M181.5,406.5C185.5,404.7,175.7,404.3,181.5,406.5z M191.3,410.1
	C190.3,405.2,186.8,412.9,191.3,410.1z M203.5,415.2C209.4,409.7,194.5,411.7,203.5,415.2z M224.5,426.9
	C228.1,421.7,213.2,424.9,224.5,426.9z M184.2,398.8C193.3,392.9,172.5,398.7,184.2,398.8z M193.4,403.4
	C193.1,400.3,190.1,404.8,193.4,403.4z M239.3,432.1c7.4,4.7,43.1,10.2,20.7,1.9C256.3,434.8,218.6,423.3,239.3,432.1z M166.4,375.3
	C165.7,372.1,154.9,371.8,166.4,375.3z M187.8,387.7C193.4,383.8,176.2,384.7,187.8,387.7z M205.8,398.8
	C213.8,395.7,192.8,395.7,205.8,398.8z M157.7,365.8c8.7,6.6,34.9,0.8,13.3-4c-9.9-5.3-32.1-8.9-16.9,3.2L157.7,365.8L157.7,365.8
	L157.7,365.8z M218,402.6C221.6,396.4,202.8,399,218,402.6z M199.6,388c21.2,6-17.8-13.4-5.2-2.2l2.8,1.3L199.6,388L199.6,388z
	 M236.4,409.2C256.4,409.4,218.2,406.5,236.4,409.2L236.4,409.2z M150,354.2C149.2,350.4,145,354.5,150,354.2z M270.3,428.3
	C270.8,421.5,263.8,433.3,270.3,428.3z M184.2,375.1C183,371.6,178,375,184.2,375.1z M151.9,351.8
	C163.4,351.1,136.1,346.7,151.9,351.8z M113.6,327.1C112.1,321.5,101,317.1,113.6,327.1z M214.2,390.9
	C212,388.5,213.2,391.4,214.2,390.9z M276.8,429.3C276.6,425.6,273.4,430.7,276.8,429.3z M208.6,385.2
	C209.7,380.4,198.8,383.7,208.6,385.2z M162,355.6C170.5,354.7,148.2,349.8,162,355.6z M240.9,404.6
	C254.2,399.3,227.9,402.1,240.9,404.6z M199.8,376.8c15.4,2-18.3-10.5-3.4-1.1L199.8,376.8L199.8,376.8z M253.3,409.7
	c14.4-8.6,9.6,20.1,24.4,2.4c14.5-10.6-12.6,13.1,5.4,1.9c13-8.7,32.1,4.1,44.2,8.3c8.7-0.4,17.2,7.5,26.1,2.7
	c17.2-4.6-33.6-6.9-20.3-15.1c-15.7,4.6-27.3-5.5-35.1-15.5c-17.6-4.1-38-13.1-46.8-28.7c-3.6-5.9,5.2,0.8-3.1-8.7
	c-10.6-9.4-15.9-20.2-23.1-31.7c-8.5-4.5-9.5-17.9-10.4-0.4c0.1-11-10.3-18.4-12.8-15.4c0-10.6,11.1-5.3,3.3-13.2
	c-1.7-11-7.2-22.5-8.9-34.9c-2.6-6-0.4-18.8-8.8-5.3c-3.1,14.3-1-17.6,3.8-7.1c6.3-10.7-2.3-9.5-2.6-8c4.1-9.1,2.6-21.9-1.1-17
	c2.2-9.6,3.4-35.4-3.3-30.8c4.1-10,7.7-46-9.9-32.3c-7.1,0.1-19.5,2.6-25.4,5.5c18.3,10.1-1.8,3.6-9.3,2c-1,9.3-8.4,5.3-17.6,5.4
	c14.7,1.8-7.2,15.1-15.6,9.9c-11,5.3,9.5,18.4,0.2,22.4c1.1,6.1-16.8-2.2-15.4,11.9c-10.7-4.5-1.5,16.7,3.9,9.6
	c18.1,4.9,12.8,16.1,13.2,26.7c-3,6.2-14.6-14.6-2.6-13.6c-9.5-15.4-10.5-5.6-18.3,1.6c-1.8,0.5,20.1,10.2,6.3,14.9
	c12.1,1.9,12.4,12.4,14.9,19.1c7.3,7.6,5.8-8.4,14.5,0.7c-5.5-8.1-29.1-22.8-10.1-18.1c-0.1-8.2-3.4-14.7,2.4-14.6
	c5.8-10.5-6,25.8,7,12.5c3.6-1.6,4.5-10.5,11,0.8c9.4,9.3,3.4,16-9.9,7.5c2.4,8.1,17.8,10.9,14.9,23.5c3.1,11.1,7.4,7,11.1,6.4
	c2.9,10.8,4.6,2.8,4.7-2.3c13.4,2.9,10.3,10.8,14.5,16.3c9.2,4.2-13.2-28.3,2.6-9.8c16.7,15.1,6.3,21.4-8.7,19
	c9.5-0.8,12.5,12.8,24.4,12.3c10.8,5.1,18.1,24.9-0.5,16.7c-6.5-5.8-29.4-13-10.7-1.9c17.3,8,31,12.8,47.6,22.8
	c11.9,8.5,17.1,18.3,21.6,20.2c-10,4.8-30.2-3.8-15.2-6.5c-9.3-1.7-19.9-6.4-10.9,5.2c7.6,6.4,27,5.7,30.4,6.4c-2.9,6.5-8,7,0.1,7.5
	C240.5,406.2,252.5,406.9,253.3,409.7L253.3,409.7L253.3,409.7z M234.8,357.4c-5.5-5.8-6.9-16.5-1-7.2
	C236.9,351.5,243.6,367.9,234.8,357.4L234.8,357.4z M295.1,395.7C298.5,395.5,295.2,398.3,295.1,395.7z M226.1,343.3
	C225.9,334.6,228.1,350,226.1,343.3z M220.2,335.3C213.2,321.9,228.9,339.1,220.2,335.3z M147.6,285.2
	C151.7,284.1,149.6,292.2,147.6,285.2z M205.3,316.5C207.8,307.1,208.3,324.4,205.3,316.5z M164.6,288.1
	C161.7,283,170.6,293,164.6,288.1z M199.6,299.4c-6.6-14.7,4.6-8,1.5,2.4L199.6,299.4z M139.2,259.1c-2.9-4.8-7.8-19-6.2-23.3
	c1.4,7,15,30.3,6.6,9.6c-9.2-17.3,11,5.6,13.1,9.9c1,4.3-5.7-1.2-1.2,8.9C143.3,252.8,146.7,270.6,139.2,259.1L139.2,259.1z
	 M120.5,246.2C121.3,235,124.8,253.9,120.5,246.2z M128.9,249.1C132.9,240.7,135.7,260.9,128.9,249.1z M108.7,233.5
	c-6.9-6.9-12-13.3,0.3-4.3c4.7,0.2-10.5-14.5,1.1-4.7C122.5,226.8,116.3,244.7,108.7,233.5z M119.3,233.2
	C123.4,229.2,121.5,237.2,119.3,233.2z M125.9,235.3C119.8,223.9,133.3,240.1,125.9,235.3z M112.9,222.9c-20.2-18,25.4,9.4,3.3,3.3
	L112.9,222.9L112.9,222.9z M170.8,256.5c-8.7-5.2-2.3-36.9,0.7-15.2c8.5-2.7-0.5,11.2,5.9,11C176.3,261.1,173.5,264.3,170.8,256.5
	L170.8,256.5z M192.2,269.2C193,259.7,194,275.7,192.2,269.2z M188.4,265.5C189.4,261.4,188.5,270.3,188.4,265.5z M116.9,217
	c-13-17.9,37.7,18.1,8.3,4.5C122.1,220.8,118.4,220.5,116.9,217z M158.1,238.9C156.8,223.8,160.8,241.4,158.1,238.9L158.1,238.9z
	 M189.4,258.9C191.8,250.4,189.5,264.6,189.4,258.9z M118.8,210.2c7.7-1.6,32,13.5,9.7,4.3C126.1,211.8,120.8,213,118.8,210.2z
	 M185.1,243.2c0.8-15.4,4.6-9.2,0,2.2L185.1,243.2L185.1,243.2L185.1,243.2z M124.6,204.8c3.1-4.6-8.3-20.8,1.7-5.8
	c4.3,3.4,12.5,5.7,5.3,7.2C142.9,216.2,128.7,208.9,124.6,204.8z M181.8,238.4C184,220.8,183.7,248.7,181.8,238.4z M118,188.6
	C120.4,187.6,119.3,191.8,118,188.6z M132.9,197.5C136.8,189.4,140,206.5,132.9,197.5z M175,220.9C175,217.8,175.8,225.4,175,220.9z
	 M172.6,215.5C166.7,201.1,178,223.1,172.6,215.5z M169,206.1C168,200.1,172.3,213.5,169,206.1L169,206.1z M174.8,196.6
	c-4-7.1,5.1-31.1,6.1-16.2c-4.2,11.6-1.2,18.1,1.7,2.5C188.1,170.6,181.5,207.1,174.8,196.6L174.8,196.6z M180.8,160.8
	C182.6,158.6,181.2,163.4,180.8,160.8z M170.8,358.2C168.4,356.1,171.1,359.5,170.8,358.2z M191.5,368.6c11.5,2.9,11.4-1.8,1-3.2
	c-5.6-5.2-23.2-10.7-7.4-0.6C186.1,367.4,189.4,367.4,191.5,368.6z M150.7,341.5c6.3,4.7,23.8,13.4,9,1.8c5-5.8-9.6-8.9-4.7-12.8
	c-12.3-7.5-9.7-6.8-1.1-6.6c-14.8-6.6,2.1-6.1,1.3-9.5c-5.7-1.1-28.3-10-15,0.7c-13.5-6.9-3.2,2.6-7.3,1.6
	c-13.8-3.8,12.3,10.5-2.2,7c7.9,6.3,21.3,16.1,3.3,6.6C131.7,333.8,147,339,150.7,341.5L150.7,341.5z M172.3,353.9
	C198.5,362.4,159.4,343.6,172.3,353.9z M282.8,420.9C283.1,415.7,279.2,425.3,282.8,420.9z M294.1,425.6c6.1-5.9,0.2,9.3,10-1.4
	c0.1-7.7-0.3-12.3-11.2-2.9C289.9,423,288.5,430.1,294.1,425.6z M113.9,312.4C112,305.1,100.8,305.2,113.9,312.4z M126,320.4
	C121.5,312.9,109.9,313.6,126,320.4z M195,362c6.7,6,30.9,4.4,8.2,0.7C199.8,357.7,181.8,358.9,195,362z M289.8,420.6
	C300.2,411.9,279.8,424.4,289.8,420.6z M311.4,435.4C311.4,432.6,306.9,436.6,311.4,435.4z M311.4,431.5
	C322.9,419.3,300.3,432.2,311.4,431.5L311.4,431.5z M84,287.5c-9.8-14-6.1-20.2-15.5-31.6c-1.8-8.7-16.2-28.5-7.4-7.5
	C69.1,260.6,71.5,279.5,84,287.5z M307.8,427.6C328.9,413.9,299.1,421.6,307.8,427.6z M323.9,433.9
	C334.5,424.8,317.2,432,323.9,433.9z M110.3,297C113.3,292.5,102.5,296.4,110.3,297z M320.6,429.6c10.2-6.6-2.4-5.6-1.9,0.6
	L320.6,429.6L320.6,429.6z M181.6,342C181.2,337.6,176.2,342.4,181.6,342z M190.2,347C187.4,341.4,186,347.8,190.2,347z M337,434.1
	c13.1-9.5-8-1.8-2.8,1.8L337,434.1z M332,431.6C342.6,422.7,320.7,435.6,332,431.6z M357.6,448.7
	C364.8,443.9,348.9,447.2,357.6,448.7z M116.9,293.8c9.6,2.2,38.4,23.7,21.4,1.5c-8.7-2.6-3.5-23.9-12.4-20.1c6,10,4.9,14.2-7.6,7.9
	c-15.7-7.7-8.8,3.8-5.8,7C108.4,291,118.1,293.7,116.9,293.8z M73,259.2c1.7-7.1-15.9-39.2-8.3-16.1C67.5,247.9,67.2,257.1,73,259.2
	z M153.5,308.7C148.5,304.6,153.2,308.2,153.5,308.7z M165.7,311.6C165.6,304,152.2,308.5,165.7,311.6z M271.3,378.2
	C269.3,373.1,263.4,378.1,271.3,378.2L271.3,378.2z M276.4,381.9C275.7,379,273.5,382.5,276.4,381.9z M318.3,408.3
	C322.3,405.3,313.3,407.9,318.3,408.3z M94.9,264.7C106.4,260.3,82.6,261.6,94.9,264.7z M262,370C261.9,362.6,254.7,371.9,262,370z
	 M90.4,254.1C97.8,251.6,83.5,252.5,90.4,254.1z M111.9,264.5C111.7,262.1,109.6,265.5,111.9,264.5z M373.9,425.2
	c9.5-1.9,31.2,4.8,34.7-2.5c-11.6-0.3-40-8.2-41.3,1.9l2.5,0.4L373.9,425.2L373.9,425.2z M118.7,266.3
	C118.9,258.7,112.8,266,118.7,266.3z M62.2,227.1C59.6,212.7,52.4,224.9,62.2,227.1z M75.7,230.5C75.8,225.8,63.3,226.3,75.7,230.5z
	 M83.4,234.2C81.1,232.4,81.6,236.5,83.4,234.2z M131.8,265.3C134.1,263.2,126.4,263.8,131.8,265.3z M78.2,225.7
	C76.9,214.8,62.6,224.1,78.2,225.7z M50.6,207.8C50.2,202.8,47.9,209.7,50.6,207.8z M54.7,204.7C54.1,198.7,51.2,205.5,54.7,204.7z
	 M77.4,218.2c9.6-3.8-17.5-7.8-2-0.7L77.4,218.2z M381.2,405.9C387.3,400.3,373.4,404.1,381.2,405.9z M417.9,424.9
	C420.4,417.6,411.7,425.9,417.9,424.9z M79.7,206.3C80.8,199.3,72.1,207.7,79.7,206.3z M47.4,184.7c-1.7-9.9-1.5-27.4,15.1-21.5
	c-22.1,4.4,15.3,27.5,10.6,9.3c9.3,0.5,18.2-5.5,13.3,3.5c18.4-2,31.1-17.9,48.8-15.7c13.8-1.8,28.9-3.2,43.8-8.8
	c12.2-0.9,24-14.1,17.3-21.9c-16.7-1.4-34.1,0.7-52.6,4.3c-20.4,4.2-39,12.3-59.6,15.8c-20.1,2.7,4,7.4-1.7,8.5
	c-10.5,3.6,12.5,6.1-1.4,9.9c-8.6-1.6-17.5-4.6-13.8-13.6c-19.2,2.5-36.2,10.5-21,30.1L47.4,184.7L47.4,184.7L47.4,184.7z
	 M93.8,161.1c4.5-16.6,24.2,13.7,7.4,2.2C99.2,161.8,95.9,160.6,93.8,161.1z M94.7,153C101.2,148.2,98.2,155.8,94.7,153z M103,153.2
	c0.6-7.7,18.9,4,3,2.8L103,153.2z M114.3,148.6C118.4,143.8,115.5,152.9,114.3,148.6z M117.2,146.7c6.9-8.3,39-5.3,15.5-0.8
	C126.4,141.1,121.5,148.7,117.2,146.7z M159.1,140.2C158,117.6,179.9,148.2,159.1,140.2z M170.9,140.2c4.3-11.4,16.9-4.6,2-2.3
	C173.3,139.1,172.5,143.7,170.9,140.2z M75.1,200.5C88,192.6,61.3,193.6,75.1,200.5z M84.7,203.2C89.2,198.3,74.8,201.2,84.7,203.2z
	 M56.4,183.1C63.8,177.4,47.6,180.9,56.4,183.1z M439.6,422.8C439.8,416.2,433.9,425.8,439.6,422.8z M400.6,396.3
	C401.7,388.6,395.6,396.9,400.6,396.3z M450.3,425.4c10.4,0,31.4-3.2,8.9-3.2C455.6,422.7,438.5,422.6,450.3,425.4L450.3,425.4z
	 M93.1,198.5c8.4-0.6,13.1-9.3-1.6-8.8c-22.9-2.4,20.2,7.8-2.9,4.9C85.4,196.7,92.9,199.1,93.1,198.5L93.1,198.5z M100.5,202.3
	C99.6,196.9,97.9,205.1,100.5,202.3z M109.2,178.9C112.9,174.4,104.2,177.7,109.2,178.9z M81.3,132.2c15-5.1,35.4-10.8,42.5,2.5
	c-7.2-8.7-2.9-17.2,3.9-4.5c9.6,12.8,14.4-5.8,8.2-10.1c7.1,8.9,15.2,13,4.8,0.6c11.4-13.7-22.7,1.8-30.5,1.6
	C106.5,124,71.7,131.2,81.3,132.2z M90.1,115.4c8.5-6.4,29.5,3.8,16.1-6.4C104.9,107.9,76.7,116.8,90.1,115.4z M121.3,116.7
	c10,0.3-4.3-13.4,7.6-7.2c-2-6.4-13.9-7.6-19.7-10.1C105.9,105.2,115.9,116.8,121.3,116.7L121.3,116.7z M95.6,88.5
	C99,83.8,89.5,90.8,95.6,88.5z M108.3,91.5c16.1-2.1-4.1-6.9-3.2-0.2L108.3,91.5L108.3,91.5L108.3,91.5z M84.5,72.9
	c-11.3-14.8,21.3,2.5,9.8-13C84.7,52.2,75.3,68.6,84.5,72.9z M230.1,151.3c5.2-9.2-21.5-12.4-3.5-3.3
	C228.2,148.6,227.9,151.9,230.1,151.3z"/>
</svg>