<svg version="1.1" xmlns="http://www.w3.org/2000/svg" xmlns:xlink="http://www.w3.org/1999/xlink" x="0px" y="0px"
	 viewBox="0 0 256 256" style="enable-background:new 0 0 256 256;" xml:space="preserve">
<style type="text/css">
	.freepascal-st0{fill:#FFFFFF;}
	.freepascal-st1{fill:none;stroke:#FFFFFF;stroke-width:10;stroke-miterlimit:10;}
</style>
<g>
	<path class="freepascal-st0" d="M212.2,108c-0.5,5.4-1.1,10.9-1.9,17c-2.4,3-4.4,5.3-6.8,7.8c-12,6-22.2,4.8-30.9-4.1
		c-0.4-3.7-1.3-7.1-0.9-10.4c0.4-3.2,2.2-6.2,3.6-9.5c0.9-1.7,1.5-3.2,2.3-4.9c0.5-1.1,0.9-2,1.4-3.2c0.8-1.8,1.3-3.2,2.1-5
		c1.1-1.8,2-3.2,3.2-4.9c3.1-1.7,5.9-3.3,8.7-5.3c-0.1-2.5-0.4-4.5-0.5-7c2.8-4.5,3.4-4.5,7.7,0.7c0.8,1.8,1.6,3.3,2.5,5.2
		c0.9,2.1,1.6,3.8,2.4,5.9c1,2.1,1.9,3.9,3,6c1.1,2.1,2,3.9,3,6C211.4,104.5,211.8,106.3,212.2,108z"/>
	<path class="freepascal-st0" d="M149.4,63.5c1.5,1.6,2.7,3,4.2,4.4c1.5,1.7,2.6,3.2,4,4.9c1,2.1,1.7,3.9,2.7,6.5c0.5,2.3,0.6,4,0.7,6.1
		c-0.1,1.8-0.1,3.2-0.4,4.8c-1,1.7-1.7,3.1-2.6,4.8c-1.2,1.4-2.2,2.6-3.5,3.9c-1.8,1.4-3.4,2.6-5.3,4c-7.5,2.3-14.5,3.3-21.5-1.2
		c-1.7-2.8-3.2-5.4-4.7-8.3c-0.1-1.7-0.2-3.1-0.2-4.8c0-1.8,0-3.2,0-5c-0.6-2.9-1.2-5.3-1.8-8.1c-0.7-1.7-1.4-3.1-2-4.8
		c-0.4-1.8-0.8-3.2-1-5c0.7-1.8,1.4-3.2,2.3-4.8c2.4-1.1,4.5-1.9,6.4-3.1c0.7-0.4,0.8-1.8,1.2-2.7c-1.1-2.3-2.2-4.6-3.5-7.4
		c-0.4-1.2-0.5-1.9-0.5-2.9c0.4-0.7,0.8-1.2,1.5-1.6c1.1,0,1.8,0,2.7,0.4c1,0.7,2,1.1,3,1.9c1.7,1.8,3.2,3.3,4.9,5
		c1.7,2.1,3.2,3.9,4.7,5.8C143.5,58.5,146.3,60.9,149.4,63.5z"/>
	<path class="freepascal-st0" d="M75.8,88c0.1-1.1,0.2-2.1,0.4-3.9c0.3-1.4,0.6-2.2,1.1-3.2c1-2.5,1.7-4.7,2.5-7.4c0-2.5,0-4.5,0-7
		c0.1-1.8,0-3.2,0.2-4.9c0.7-2.1,1.2-3.9,1.7-5.7c1.6-0.1,3.1-0.3,5.1,0.2c0.8,2,1.2,3.4,1.5,5.2c0.4,4.5,1.8,6.9,6.7,5.1
		c1.9-0.7,4.5,0.4,6.9,0.9c1.5,1.7,2.8,3.2,4.1,5c0.4,2.2,0.9,4,1.4,6.2c0.7,2.1,1.4,3.9,2.2,6c1.7,2.4,3.3,4.4,5,6.8
		c1,1.8,1.8,3.2,2.7,5.1c0.4,2.1,0.7,3.9,0.8,6c-0.5,1.7-0.9,3.1-1.6,4.6c-10.7,12.3-26.4,11.8-37.6-1.3c-1-2.1-1.8-3.9-2.7-5.7
		c-0.3-1.8-0.6-3.5-0.9-6C75.5,91.5,75.7,89.8,75.8,88z"/>
	<path class="freepascal-st0" d="M200.2,172c-0.4,2-0.8,4-1.2,6.4c-2.6,3.6-5.2,6.7-8.3,10.3c-6.6,3.2-12.7,6.1-19.2,9
		c-9.4,2.5-18.4,5-27.9,7.3c-12.9,1.9-25.5,4.9-37.6-2.7c-2.5-3-4.8-5.6-7.2-8.7c-1-2.8-2-5.2-2.8-8c0.1-1.7,0.1-3.1,0.5-4.6
		c1.4-1.9,2.5-3.6,3.9-5.5c2.5-2.6,4.7-5,7.2-7.6c1-2,1.7-4,2.5-6.4c0-3.1-0.1-5.8,0-8.9c0.8-2.8,1.5-5.1,2.4-7.7
		c4.2-7.5,11.7-9.3,19.1-11.9c8.3-1.6,16.2-4.3,24.6-1.4c4,3,7.8,5.7,11.7,8.8c1.1,1.8,2.1,3.2,3.1,4.6c3.1,5.3,8.3,6.6,14.6,7.4
		c4,1.7,7.3,3.1,10.7,4.9c1.1,2.4,2.1,4.6,3.1,7.1C199.5,167.2,199.8,169.6,200.2,172z"/>
	<path class="freepascal-st0" d="M95.2,143.9c0.3,2.8,0.3,5.4,0.3,8.4c-1.7,3-3.4,5.6-5.1,8.4c-3.6,2-7.1,3.7-10.9,5.6
		c-3.7,0.2-7.1,0.2-11.2-0.1c-4.8-2.9-8.9-5.5-13.1-8.4c-1.6-2.5-3.1-4.6-4.6-6.8c-0.7-1.8-1.5-3.7-2.5-5.8
		c-0.7-2.5-1.2-4.7-1.9-7.2c-1-3.3-1.7-6.3-2.5-9.7c-0.4-2.5-0.9-4.7-0.7-6.8c0.1-1.3,1.3-3.6,1.9-3.6c1.5,0.1,3.4,0.9,4.4,2
		c1.2,1.2,1.6,3.1,2.6,5.3c7.1-5.8,13.4-3.1,19.5,1.3c2.7,1.9,5.6,3.6,8.7,5.4C85.4,136,90.2,139.9,95.2,143.9z"/>
</g>
<path class="freepascal-st1" d="M128,247.2L128,247.2c-64.8,0-117.3-52.5-117.3-117.3v0C10.7,65.1,63.2,12.6,128,12.6h0
	c64.8,0,117.3,52.5,117.3,117.3v0C245.3,194.7,192.8,247.2,128,247.2z"/>
</svg>