<svg version="1.1" xmlns:serif="http://www.serif.com/"
	 xmlns="http://www.w3.org/2000/svg" xmlns:xlink="http://www.w3.org/1999/xlink" x="0px" y="0px" viewBox="0 0 512 512"
	 style="enable-background:new 0 0 512 512;" xml:space="preserve">
<style type="text/css">
	.git-st0{fill:none;}
	.git-st1{fill:#FFFFFF;}
</style>
<path class="git-st1" d="M469.8,235.2L274.9,40.3c-11.2-11.2-29.4-11.2-40.7,0l-40.5,40.5l51.3,51.3c11.9-4,25.6-1.3,35.1,8.2
	c9.6,9.6,12.2,23.4,8.1,35.3l49.5,49.5c12-4.1,25.8-1.5,35.3,8.1c13.4,13.4,13.4,35,0,48.4c-13.4,13.4-35,13.4-48.4,0
	c-10-10.1-12.5-24.8-7.4-37.2l-46.1-46.1v121.4c3.3,1.6,6.3,3.8,9,6.5c13.4,13.4,13.4,35,0,48.4c-13.4,13.4-35,13.4-48.4,0
	c-13.4-13.4-13.4-35,0-48.4c3.3-3.3,7.1-5.8,11.2-7.5V196.1c-4.1-1.7-7.9-4.1-11.2-7.5c-10.1-10.1-12.6-25-7.4-37.4l-50.6-50.6
	L40.3,234.3c-11.2,11.2-11.2,29.4,0,40.7l194.9,194.9c11.2,11.2,29.4,11.2,40.7,0l194-194C481,264.6,481,246.4,469.8,235.2"/>
</svg>