<svg version="1.1" xmlns:serif="http://www.serif.com/"
	 xmlns="http://www.w3.org/2000/svg" xmlns:xlink="http://www.w3.org/1999/xlink" x="0px" y="0px" viewBox="0 0 512 512"
	 style="enable-background:new 0 0 512 512;" xml:space="preserve">
<style type="text/css">
	.java-st0{fill:none;}
	.java-st1{fill:#FFFFFF;}
</style>
<g id="Artboard11" serif:id="Artboard1">
	<g transform="matrix(2.45547,0,0,2.45547,-162.691,44.4933)">
		<path class="java-st1" d="M145.6,138.1c0,0-7.3,4.2,5.2,5.6c15.1,1.7,22.7,1.5,39.3-1.7c0,0,4.4,2.7,10.5,5.1
			C163.4,163.1,116.4,146.2,145.6,138.1 M141,117.3c0,0-8.1,6,4.3,7.3c16.1,1.7,28.8,1.8,50.8-2.4c0,0,3,3.1,7.8,4.8
			C158.9,140.1,108.9,127.9,141,117.3"/>
		<path class="java-st1" d="M179.3,82c9.2,10.5-2.4,20-2.4,20s23.3-12,12.6-27.1c-10-14-17.6-21,23.8-45C213.3,30,148.3,46.2,179.3,82"/>
		<path class="java-st1" d="M228.5,153.4c0,0,5.4,4.4-5.9,7.9c-21.5,6.5-89.3,8.5-108.2,0.3c-6.8-2.9,5.9-7,9.9-7.9
			c4.2-0.9,6.6-0.7,6.6-0.7c-7.5-5.3-48.7,10.4-20.9,14.9C185.8,180.1,248.2,162.3,228.5,153.4 M149.1,95.7c0,0-34.5,8.2-12.2,11.2
			c9.4,1.3,28.2,1,45.7-0.5c14.3-1.2,28.6-3.8,28.6-3.8s-5,2.2-8.7,4.6c-35.1,9.2-102.8,4.9-83.3-4.5
			C135.7,94.8,149.1,95.7,149.1,95.7 M211,130.3c35.6-18.5,19.2-36.3,7.7-33.9c-2.8,0.6-4.1,1.1-4.1,1.1s1-1.6,3-2.3
			c22.8-8,40.3,23.6-7.3,36.1C210.3,131.3,210.8,130.8,211,130.3"/>
		<path class="java-st1" d="M189.5-8.8c0,0,19.7,19.7-18.7,50.1c-30.8,24.4-7,38.2,0,54.1c-18-16.2-31.2-30.5-22.3-43.8
			C161.4,32,197.5,22.5,189.5-8.8"/>
		<path class="java-st1" d="M152.6,180.5c34.2,2.2,86.7-1.2,88-17.4c0,0-2.4,6.1-28.3,11c-29.2,5.5-65.2,4.9-86.6,1.3
			C125.7,175.5,130.1,179.1,152.6,180.5"/>
	</g>
</g>
</svg>