<svg version="1.1" xmlns:serif="http://www.serif.com/"
	 xmlns="http://www.w3.org/2000/svg" xmlns:xlink="http://www.w3.org/1999/xlink" x="0px" y="0px" viewBox="0 0 512 512"
	 style="enable-background:new 0 0 512 512;" xml:space="preserve">
<style type="text/css">
	.js-st0{fill:none;}
	.js-st1{fill-rule:evenodd;clip-rule:evenodd;fill:#FFFFFF;}
</style>
<path class="js-st1" d="M478.2,130c0-54.1-43.9-98.1-98.1-98.1H130c-54.1,0-98.1,43.9-98.1,98.1v250.2c0,54.1,43.9,98.1,98.1,98.1
	h250.2c54.1,0,98.1-43.9,98.1-98.1V130L478.2,130z M297.6,400.4l34.2-19.8c9,14.7,20.7,25.5,41.3,25.5c17.4,0,28.5-8.7,28.5-20.7
	c0-14.4-11.4-19.5-30.6-27.9l-10.5-4.5c-30.3-12.9-50.3-29.1-50.3-63.2c0-31.5,24-55.4,61.4-55.4c26.7,0,45.8,9.3,59.6,33.6
	l-32.7,21c-7.2-12.9-15-18-27-18c-12.3,0-20.1,7.8-20.1,18c0,12.6,7.8,17.7,25.8,25.5l10.5,4.5c35.7,15.3,55.7,30.9,55.7,65.9
	c0,37.8-29.7,58.4-69.5,58.4C335,443.2,309.8,424.7,297.6,400.4L297.6,400.4z M149.2,404.9l34.2-20.7c6.6,11.7,12.6,21.6,27,21.6
	c13.8,0,22.5-5.4,22.5-26.4V236.8h41.9V380c0,43.4-25.5,63.2-62.6,63.2C178.6,443.2,159.1,425.9,149.2,404.9L149.2,404.9z
	 M149.2,404.9L149.2,404.9L149.2,404.9L149.2,404.9z"/>
</svg>