<svg version="1.1" xmlns:serif="http://www.serif.com/"
	 xmlns="http://www.w3.org/2000/svg" xmlns:xlink="http://www.w3.org/1999/xlink" x="0px" y="0px" viewBox="0 0 512 512"
	 style="enable-background:new 0 0 512 512;" xml:space="preserve">
<style type="text/css">
	.mysql-st0{fill:none;}
	.mysql-st1{fill:#FFFFFF;}
	.mysql-st2{fill-rule:evenodd;clip-rule:evenodd;fill:#FFFFFF;}
</style>
<g>
	<path class="mysql-st1" d="M442.9,375c-24.3-0.7-42.9,1.6-58.8,8.3c-4.5,1.9-11.7,2-12.5,7.6c2.5,2.6,2.9,6.5,4.8,9.7
		c3.8,6.1,10.2,14.4,15.9,18.7c6.2,4.7,12.7,9.8,19.4,13.8c11.9,7.3,25.2,11.4,36.7,18.7c6.8,4.3,13.5,9.7,20.1,14.5
		c3.3,2.4,5.5,6.1,9.7,7.6v-0.7c-2.2-2.8-2.8-6.7-4.8-9.7l-9-9c-8.8-11.7-20-21.9-31.8-30.5c-9.5-6.8-30.7-16-34.6-27l-0.7-0.7
		c6.7-0.8,14.6-3.2,20.8-4.8c10.4-2.8,19.7-2.1,30.5-4.8c4.8-1.4,9.7-2.8,14.5-4.2v-2.8c-5.4-5.6-9.3-13-15.2-18
		c-15.5-13.2-32.4-26.4-49.8-37.4c-9.7-6.1-21.6-10.1-31.8-15.2c-3.4-1.7-9.5-2.6-11.8-5.5c-5.4-6.9-8.3-15.6-12.5-23.5
		c-8.7-16.7-17.2-35-24.9-52.6c-5.3-12-8.7-23.8-15.2-34.6C270.3,141.2,236.4,110,184,79.4c-11.2-6.5-24.6-9.1-38.8-12.5l-22.8-1.4
		c-4.6-1.9-9.5-7.6-13.8-10.4c-17.4-11-61.9-34.8-74.8-3.5c-8.1,19.8,12.1,39.1,19.4,49.2c5.1,7,11.6,14.9,15.2,22.8
		c2.4,5.2,2.8,10.4,4.8,15.9c5,13.6,9.4,28.3,15.9,40.8c3.3,6.3,6.9,13,11.1,18.7c2.6,3.5,6.9,5,7.6,10.4c-4.3,6-4.5,15.3-6.9,22.8
		c-10.8,34.1-6.7,76.5,9,101.8c4.8,7.7,16.2,24.4,31.8,18c13.7-5.6,10.6-22.8,14.5-38.1c0.9-3.5,0.3-6,2.1-8.3v0.7l12.5,24.9
		c9.2,14.9,25.6,30.4,39.5,40.8c7.2,5.4,12.9,14.8,22.2,18v-0.7h-0.7c-1.8-2.8-4.6-4-6.9-6.2c-5.4-5.3-11.4-11.9-15.9-18
		c-12.6-17.1-23.8-35.9-33.9-55.4c-4.9-9.3-9.1-19.6-13.2-29.1c-1.6-3.7-1.6-9.2-4.8-11.1c-4.5,6.9-11.1,12.6-14.5,20.8
		c-5.5,13.1-6.3,29.1-8.3,45.7c-1.2,0.4-0.7,0.1-1.4,0.7c-9.6-2.3-13-12.2-16.6-20.8c-9.1-21.5-10.7-56.2-2.8-81
		c2.1-6.4,11.4-26.6,7.6-32.5c-1.8-5.9-7.7-9.3-11.1-13.8c-4.1-5.6-8.2-12.9-11.1-19.4c-7.4-16.8-10.9-35.6-18.7-52.6
		c-3.7-8.1-10-16.3-15.2-23.5c-5.7-8-12.2-13.9-16.6-23.5c-1.6-3.4-3.7-8.9-1.4-12.5c0.8-2.4,1.8-3.4,4.2-4.2c4-3.1,15.2,1,19.4,2.8
		c11.1,4.6,20.4,9,29.8,15.2c4.5,3,9.1,8.8,14.5,10.4h6.2c9.7,2.2,20.7,0.7,29.8,3.5c16.1,4.9,30.5,12.5,43.6,20.8
		c39.9,25.2,72.5,61.1,94.9,103.9c3.6,6.9,5.1,13.5,8.3,20.8c6.4,14.7,14.4,29.9,20.8,44.3c6.3,14.4,12.5,28.9,21.5,40.8
		c4.7,6.3,22.9,9.7,31.2,13.2c5.8,2.4,15.3,5,20.8,8.3c10.5,6.3,20.6,13.8,30.5,20.8C427.1,361.2,442.2,368.8,442.9,375L442.9,375
		L442.9,375z"/>
	<path class="mysql-st2" d="M133.5,111.2c-5.1-0.1-8.7,0.6-12.5,1.4v0.7h0.7c2.4,5,6.7,8.2,9.7,12.5c2.3,4.8,4.6,9.7,6.9,14.5l0.7-0.7
		c4.3-3,6.3-7.9,6.2-15.2c-1.7-1.8-2-4.1-3.5-6.2C139.8,115.3,136,113.7,133.5,111.2L133.5,111.2z"/>
</g>
</svg>