<svg version="1.1" xmlns="http://www.w3.org/2000/svg" xmlns:xlink="http://www.w3.org/1999/xlink" x="0px" y="0px"
	 viewBox="0 0 2500 2500" style="enable-background:new 0 0 2500 2500;" xml:space="preserve">
<style type="text/css">
	.php-st0{fill:#FFFFFF;}
</style>
<g>
	<path class="php-st0" d="M797.9,1088H700l-37.7,226h0h90.4c67.8-7.5,128.1-30.1,135.6-158.2C888.3,1110.6,850.7,1088,797.9,1088z"/>
	<path class="php-st0" d="M1807.5,1088h-98l-37.7,226h0h90.4c67.8-7.5,128.1-30.1,135.6-158.2C1897.9,1110.6,1860.3,1088,1807.5,1088z"
		/>
	<path class="php-st0" d="M1250,673.6c-607.5,0-1100,256.4-1100,572.6s492.5,572.6,1100,572.6s1100-256.4,1100-572.6
		S1857.5,673.6,1250,673.6z M767.8,1427H632.2l-30.1,158.2H458.9l120.6-610.3h278.8c120.5,7.5,180.8,67.8,180.8,173.3
		C1039,1329.1,895.9,1434.5,767.8,1427z M1335,1088h-113l-67.8,339H1011l120.5-610.3h143.2l-30.1,158.2h135.6
		c120.6,7.5,165.8,67.8,150.7,143.2l-52.7,308.9h-150.7l52.7-278.8C1387.7,1110.6,1387.7,1088,1335,1088z M1777.4,1427h-135.6
		l-30.1,158.2h-143.1L1589,974.9h278.8c120.6,7.5,180.8,67.8,180.8,173.3C2048.6,1329.1,1905.5,1434.5,1777.4,1427z"/>
</g>
</svg>