<svg version="1.1" xmlns:cc="http://creativecommons.org/ns#" xmlns:dc="http://purl.org/dc/elements/1.1/" xmlns:inkscape="http://www.inkscape.org/namespaces/inkscape" xmlns:rdf="http://www.w3.org/1999/02/22-rdf-syntax-ns#" xmlns:sodipodi="http://sodipodi.sourceforge.net/DTD/sodipodi-0.dtd" xmlns:svg="http://www.w3.org/2000/svg" xmlns="http://www.w3.org/2000/svg" xmlns:xlink="http://www.w3.org/1999/xlink" x="0px" y="0px" viewBox="0 0 2400 2400" style="enable-background:new 0 0 2400 2400;" xml:space="preserve">
<style type="text/css">
	.powerpc-st0{fill-rule:evenodd;clip-rule:evenodd;fill:#FFFFFF;}
</style>
<sodipodi:namedview  bordercolor="#666666" borderopacity="1.0" fit-margin-bottom="0" fit-margin-left="0" fit-margin-right="0" fit-margin-top="0" id="base" inkscape:current-layer="layer1" inkscape:cx="1179.1323" inkscape:cy="122.59758" inkscape:document-units="px" inkscape:pageopacity="0.0" inkscape:pageshadow="2" inkscape:window-height="1017" inkscape:window-maximized="1" inkscape:window-width="1920" inkscape:window-x="-8" inkscape:window-y="-8" inkscape:zoom="1.1867187" pagecolor="#ffffff" showgrid="false" units="px">
	</sodipodi:namedview>
<g id="layer1" transform="translate(976.45624,-222.85218)" inkscape:groupmode="layer" inkscape:label="Layer 1">
	<path id="path8" inkscape:connector-curvature="0" class="powerpc-st0" d="M-770.5,1206.8h121.4c77.6,0,169.2,37.8,117.4,165.2
		c-51.7,127.4-121.4,145.3-177.1,145.3h-37.8l35.8-99.5c39.8-2,59.7-39.8,65.7-57.7c6-17.9,13.9-51.7-31.8-51.7h-11.9l-123.4,324.4
		h-119.4L-770.5,1206.8L-770.5,1206.8z M-237.2,1308.3h105.5l-9.9,123.4l67.7-123.4H31.5l-6,121.4l75.6-121.4h111.4l-197,324.4
		H-99.9l6-129.4l-81.6,129.4H-273L-237.2,1308.3L-237.2,1308.3z M787.8,1206.8h121.4c77.6,0,169.2,37.8,117.4,165.2
		c-51.7,127.4-121.4,145.3-177.1,145.3h-37.8l35.8-99.5c39.8-2,59.7-39.8,65.7-57.7c6-17.9,13.9-51.7-31.8-51.7h-12L746,1632.7
		H626.5L787.8,1206.8z M511.1,1308.3l-123.4,324.4h119.4l47.8-123.4c17.9-49.8,69.7-79.6,125.4-81.6l49.8-129.3
		c-23.9,0-83.6,13.9-119.4,55.7l17.9-45.8L511.1,1308.3L511.1,1308.3L511.1,1308.3z M296.2,1435.7l-27.9,73.6h135.4l15.9-39.8
		c23.9-67.7,35.8-163.2-71.7-175.1c-107.5-11.9-179.1,89.6-195,159.2c-15.9,69.7-21.9,179.1,113.4,179.1h91.5l35.8-97.5h-85.6
		c-49.8,0-73.6-17.9-51.7-77.6c21.9-59.7,47.8-67.7,57.7-65.7c10,2,23.9,8,8,43.8L296.2,1435.7L296.2,1435.7L296.2,1435.7z
		 M-393.1,1477.6c-15.9,41.1-39.2,70.3-58.1,66.5c-17.1-3.4-7.7-41.9,1.6-66.8l-110.5,0c-19.7,72.5-30.6,155.8,88,161.3
		c127.4,6,175.1-107.5,191.1-155.2l2-6L-393.1,1477.6L-393.1,1477.6z M-440.8,1456.3c11.5-27.2,27.2-63.9,55.3-59.5
		c16.8,5.3,12.4,24,0.1,59.4l112.7,0.2c16.2-59.1,28.9-157.8-85.9-156.1c-68.8,2-143.5,9.8-195.2,155.8L-440.8,1456.3L-440.8,1456.3
		z M1030.9,1415.8c-42.7,169.9,22.2,216.8,121.1,216.8h67.7l45.8-123.4h-81.6c-45.8,0-42.8-41.8-26.9-93.5L1030.9,1415.8
		L1030.9,1415.8z M1164.4,1394.9c20.3-44,57.5-86.6,107-86.6h71.6l35.8-101.5h-111.4c-64.8,0-180,13.8-230.8,188L1164.4,1394.9z"/>
</g>
</svg>