<svg version="1.1" xmlns:serif="http://www.serif.com/"
	 xmlns="http://www.w3.org/2000/svg" xmlns:xlink="http://www.w3.org/1999/xlink" x="0px" y="0px" viewBox="0 0 512 512"
	 style="enable-background:new 0 0 512 512;" xml:space="preserve">
<style type="text/css">
	.python-st0{fill:none;}
	.python-st1{fill:#FFFFFF;}
</style>
<g serif:class="Python">
	<g>
		<path class="python-st1" d="M252.4,31.9c-18.4,0.1-36,1.6-51.4,4.3c-45.6,8-53.8,24.6-53.8,55.4v40.6h107.7v13.5H106.7
			c-31.3,0-58.7,18.6-67.3,54c-9.9,40.6-10.3,65.9,0,108.2c7.7,31.5,25.9,54,57.2,54h37v-48.7c0-35.1,30.7-66.2,67.3-66.2h107.5
			c29.9,0,53.8-24.4,53.8-54.1V91.6c0-28.9-24.6-50.5-53.8-55.4C290,33.2,270.8,31.8,252.4,31.9L252.4,31.9z M194.2,64.5
			c11.1,0,20.2,9.1,20.2,20.4c0,11.2-9.1,20.2-20.2,20.2c-11.2,0-20.2-9-20.2-20.2C174,73.7,183,64.5,194.2,64.5z"/>
		<path class="python-st1" d="M375.7,145.7V193c0,36.7-31.4,67.5-67.3,67.5H201c-29.5,0-53.8,24.9-53.8,54.1V416
			c0,28.9,25.4,45.8,53.8,54.1c34.1,9.9,66.8,11.7,107.5,0c27.1-7.8,53.8-23.4,53.8-54.1v-40.6H254.8v-13.5h161.4
			c31.3,0,42.9-21.6,53.8-54c11.2-33.4,10.8-65.4,0-108.2c-7.7-30.8-22.5-54-53.8-54H375.7z M315.3,402.5c11.2,0,20.2,9,20.2,20.2
			c0,11.2-9,20.4-20.2,20.4c-11.1,0-20.2-9.1-20.2-20.4C295.1,411.5,304.1,402.5,315.3,402.5z"/>
	</g>
</g>
</svg>