<svg version="1.1" xmlns:serif="http://www.serif.com/"
	 xmlns="http://www.w3.org/2000/svg" xmlns:xlink="http://www.w3.org/1999/xlink" x="0px" y="0px" viewBox="0 0 512 512"
	 style="enable-background:new 0 0 512 512;" xml:space="preserve">
<style type="text/css">
	.qt-st0{fill:none;}
	.qt-st1{fill:#FFFFFF;}
</style>
<g>
	<path class="qt-st1" d="M199.5,177.6c-17.2,0-29.1,5.6-35.6,17.1c-6.4,11.4-9.6,29.5-9.6,54.6c0,24.9,3.1,42.9,9.4,53.6
		c6.2,10.7,18.3,16.2,35.9,16.2s29.5-5.3,35.8-15.9c6.1-10.5,9.2-28.5,9.2-53.6c0-25.2-3.1-43.5-9.5-54.9
		C228.6,183.3,216.8,177.6,199.5,177.6z"/>
	<path class="qt-st1" d="M472.9,94.6H97.7l-60.4,60.4v260.4h375.2l60.4-60.4L472.9,94.6L472.9,94.6z M269.3,371.2L241,384.4l-24.5-40.2
		c-3.6,1-9.1,1.6-16.8,1.6c-28.7,0-48.7-7.7-60-23.2c-11.3-15.4-16.9-39.9-16.9-73.2c0-33.4,5.8-58.2,17.2-74.4
		c11.4-16.2,31.3-24.3,59.7-24.3s48.2,8,59.5,24.2c11.4,16,17.1,40.8,17.1,74.4c0,22.1-2.4,39.9-7,53.4c-4.8,13.7-12.3,24.1-23,31.2
		L269.3,371.2L269.3,371.2z M355.3,342.4c-15.6,0-26.3-3.6-32.1-10.7c-5.8-7.1-8.8-20.6-8.8-40.5v-64.1h-21.1v-25.5h21.1v-40.1h29.8
		v40.1h38v25.7h-38v60.7c0,11.3,0.9,18.7,2.5,22.3c1.6,3.7,5.9,5.5,12.6,5.5l22.6-0.9l1.3,24.1C371.2,341.2,361.8,342.4,355.3,342.4
		L355.3,342.4z"/>
</g>
</svg>