<svg version="1.1" xmlns="http://www.w3.org/2000/svg" xmlns:xlink="http://www.w3.org/1999/xlink" x="0px" y="0px"
	 viewBox="0 0 1024 1024" style="enable-background:new 0 0 1024 1024;" xml:space="preserve">
<style type="text/css">
	.sqlite-st0{fill:#FFFFFF;}
</style>
<g>
	<path class="sqlite-st0" d="M756.1,94c-0.2,0.1-0.3,0.4-0.3,0.6h0.2L756.1,94z"/>
	<path class="sqlite-st0" d="M159.7,94.5c-40,0-72.5,31.5-72.5,69.7v632.6c0,38.5,32.8,69.7,72.5,69.7h392.8
		c-1.2-55.2,3.6-125.7,14.7-203.1c-135.1-1.6-329.3,39.7-459,87.6V164.6c0.2-27.4,23-49.4,51.5-49.5h574.6h0.2
		c-6.2,16.2-12.4,32.6-18.2,48.8c12.5-24.2,25.7-47.6,39.7-69.3L159.7,94.5L159.7,94.5z"/>
	<path class="sqlite-st0" d="M568.7,663.4c37.9-169.4,87-336.3,147.3-499.5c-76.7,148.9-126,339.4-148.9,499.5
		C567.6,663.4,568.3,663.4,568.7,663.4z"/>
</g>
<path class="sqlite-st0" d="M895.1,73.9c-40.8-34.8-90.3-21-139.1,20.7l-21.8,20.4c-83.5,85.1-159.5,243-185,363.6
	c9.1,19,16.2,39,21.5,59.5l3.2,14l3.2,14.3c0,0-0.8-2.8-3.7-11.2l-2-5.7c-0.5-1-0.8-2.1-1.2-3.1c-8.3-16.7-17.3-33.2-27.1-49.1
	c-5.3,14.9-10.2,29.7-15,44.8c19.2,33.8,30.8,91.5,30.8,91.5s-1.1-3.7-5.9-16.8c-4.3-11.6-25.5-47.4-30.5-55.8
	c-8.7,30.6-12.1,51.3-9,56.4c5.9,9.8,11.6,28,16.7,45.2c7.9,30.6,14.2,61.7,19.2,92.9l0.8,8.6c-1.5,34.9-0.8,69.7,2.2,104.5
	c3.7,43.7,10.8,81.2,19.8,101.3l6-3.3c-13-39.6-18.6-91.3-16.2-151.2c3.6-91.3,25.4-201.5,65.9-316.3
	c68.6-174.7,163.1-313.9,249.8-380.3c-79,68.6-185.8,290.6-217.8,372.8c-35.9,92.1-61.2,178.5-76.7,261.3
	c26.4-77.5,111.6-111.1,111.6-111.1s42-49.7,90.7-120.6l-93.5,23.9L661.8,558c0,0,76.8-45.1,143.1-65.6
	C895.8,354.8,994.9,159.1,895.1,73.9"/>
</svg>