<svg version="1.1" xmlns="http://www.w3.org/2000/svg" xmlns:xlink="http://www.w3.org/1999/xlink" x="0px" y="0px"
	 viewBox="0 0 2500 2500" style="enable-background:new 0 0 2500 2500;" xml:space="preserve">
<style type="text/css">
	.typescript-st0{fill:#FFFFFF;}
</style>
<g>
	<path class="typescript-st0" d="M2250,1994V506c0-141.4-114.6-256-256-256H506c-141.4,0-256,114.6-256,256v1488c0,141.4,114.6,256,256,256
		h1488C2135.4,2250,2250,2135.4,2250,1994z M1393,1335h-260v740H948.5v-740h-260v-81.5l1.5,0.5v-82l350-1.5c192.5,0,351,0.5,351,2
		c2,1,2,37.5,2,82.5V1335z M2070,1923c-32,83.5-110,140-221.5,158.5c-35,6-115,5-152.5-1.5c-80-15-156.5-55-203.5-106.5
		c-18.5-20-54-73.5-52-77l19-12l75-43.5l56.5-33l13,17.5c16.5,26,53.5,61,75,73c65,33.5,152,29,195-10c18.5-17,26.5-35,26.5-60
		c0-23-3.5-33.5-15-51c-16-22-48-40-138-80c-103.5-44-147.5-72-188.5-115c-23.5-26-45-66.5-55-100c-7.5-29-10-100-3-128.5
		c21.5-100,97-170,205-190c35-7,117.5-4,152,5l-1,1c51,12,90,35,125,71.5c18.5,20,46,55,48,64c0,3-86.5,61.5-139,94
		c-2,1.5-10-7-18-20c-26-37-52.5-53-94-56c-60-4-100,27.5-100,80c0,16,3,25,9,38c13.5,27.5,38.5,44,116,78
		c143,61.5,205,102,242.5,160C2089,1744.5,2098.5,1846.5,2070,1923z"/>
</g>
</svg>