<svg version="1.1" xmlns:serif="http://www.serif.com/"
	 xmlns="http://www.w3.org/2000/svg" xmlns:xlink="http://www.w3.org/1999/xlink" x="0px" y="0px" viewBox="0 0 512 512"
	 style="enable-background:new 0 0 512 512;" xml:space="preserve">
<style type="text/css">
	.unity-st0{fill:none;}
	.unity-st1{fill:#FFFFFF;}
</style>
<path id="path2" class="unity-st1" d="M374.2,384.1l-76.9-129.3l76.9-129.3l37.1,129.3L374.2,384.1z M203,371.5l-96.7-95.8h153.9
	L337.1,405L203,371.5L203,371.5z M203,137.8l133.7-33.5l-76.9,129.3H105.9L203,137.8L203,137.8z M399.4,40.8L224.6,86.2l-26,44.5
	l-52.5-0.4L17.9,254.9l128.2,124.5l52.5-0.4l26,44.5l174.8,45.7l46.9-169.9l-26.4-44.1l26.4-44.1L399.4,40.8z"/>
</svg>