<?xml version="1.0" encoding="utf-8"?>
<!-- Generator: Adobe Illustrator 24.0.1, SVG Export Plug-In . SVG Version: 6.00 Build 0)  -->
<svg version="1.1" id="Calque_1" xmlns="http://www.w3.org/2000/svg" xmlns:xlink="http://www.w3.org/1999/xlink" x="0px" y="0px"
	 viewBox="0 0 384 384" style="enable-background:new 0 0 384 384;" xml:space="preserve">
<style type="text/css">
	.st0{fill:#2A3176;stroke:#34669A;stroke-width:3;stroke-miterlimit:10;}
	.st1{fill:#FFFFFF;stroke:#FFFFFF;stroke-width:8;stroke-miterlimit:10;}
	.st2{fill:#312783;}
	.st3{fill:#FFFFFF;}
	.st4{fill:#EBCE48;}
	.st5{fill:#FEED69;}
	.st6{fill:#2A3176;stroke:#312783;stroke-width:3;stroke-miterlimit:10;}
	.st7{fill:none;stroke:#34669A;stroke-width:3;stroke-miterlimit:10;}
	.st8{font-family:'ArialMT';}
	.st9{font-size:60px;}
</style>
<ellipse class="st0" cx="192.9" cy="190" rx="145.9" ry="152.1"/>
<g>
	<path class="st1" d="M260.5,116.9c-1.8-6.2-7.4-10.7-13.4-11c-3.8-0.1-7,1.4-9.9,3.8c-0.4,0.4-0.8,0.7-1.4,1.1
		c-0.3-1.5-0.6-2.7,0.7-3.8c0.5-0.4,0.8-1.3,1-2c0.9-2.5-0.1-3.9-2.7-4h-83c-0.5,0-0.9,0-1.4,0c-1.3,0.1-1.9,0.9-2,2.2
		c-0.1,1.4,0.3,2.8,1.3,3.7c1.3,1.2,1,2.5,0.7,4c-0.9-0.7-1.6-1.4-2.4-2c-8-6.2-16.9-2.3-20.8,3.9c-2.5,4-2.9,8.4-2.2,12.9
		c0.9,5.2,3,9.9,6.2,14c2.3,2.9,4.7,5.7,7.3,8.2c4,3.9,8.3,7.6,12.4,11.3c3.8,3.5,7.3,7.2,10.3,11.6c1.7,2.5,1.1,4.4-0.8,6.1
		c-1,0.9-2.1,1.5-3.2,2.2c-1.9,1.3-2.5,3.5-1.4,5.3c1,1.9,3.2,2.5,5.1,1.4c1.5-0.9,3-1.9,4.4-3c2.3-1.9,3.8-4.4,4.3-7.5
		c0-0.2,0.1-0.4,0.3-1c4.1,5.5,8.4,10.5,13.7,14.3c-0.9,0.9-1,1.5-0.7,2.5c0.3,0.8,0.8,1.2,1.7,1.1c0.6-0.1,1,0.3,1.4,0.8
		c0.8,1.1,1.5,2.1,2.3,3.2c-1.1,1.7-1.1,1.7,0.3,3.4c-0.3,0.9-0.5,1.9-0.9,2.8c-0.4,1-1,2-1.5,2.9c-0.9,1.7-0.8,2.4,0.6,3.6
		c0.2,0.2,0.6,0.4,0.6,0.5c-0.2,1.2,0.8,1.7,1.5,2.2c0,0.3,0,0.4,0,0.5c-0.8,6.8-2.1,13.6-4,20.1c-0.4,1.4-0.5,2.7,0,4.1
		c0.1,0.3,0.1,0.6,0.3,1c-3.4,0-6.6,0.1-9.8,0c-2.3-0.1-4.1,1.9-4,4.1s-0.5,4.6,1.2,6.8c-1.6,0-3,0.1-4.3,0c-3.5-0.2-7,2.5-6.8,7.1
		c0.1,2,0,4,0,5.9c0,4.8,0,9.6,0,14.3c0,2,0.6,3.8,2,5.2c0.2,0.2,0.4,0.5,0.7,0.9c-2.3,0-4.3,0-6.3,0c-2.9,0-4.1,1.4-4.2,4.3
		c0,1.2,0.1,2.5,0,3.7c-0.3,3.3,1.1,5.2,4.9,5.2c22.8-0.1,45.5,0,68.3,0c0.7,0,1.5,0,2.2,0c2.2,0,3.7-1.4,3.8-3.6c0.1-2,0.1-4,0-5.9
		c-0.1-2.1-1.5-3.4-3.5-3.5c-1.9-0.1-3.7,0-5.6,0c-0.4,0-0.8-0.1-1.4-0.1c2.5-3,2.7-3.5,2.7-7.5v-18.7c0-1.9-0.4-3.6-1.7-5
		c-1.3-1.4-2.9-2.1-4.8-2.1H214c0.4-1.1,0.8-1.9,0.9-2.8c0.1-1.5,0.1-3,0-4.5c-0.1-2.1-1.6-3.5-3.7-3.5c-2.2,0-4.4,0-6.6,0H201
		c0.8-1.7,1-3.3,0.5-4.9c-0.9-3.3-1.8-6.5-2.4-9.8c-0.7-3.6-1.2-7.3-1.8-10.9c1-0.6,1.9-1,1.7-2.2c0-0.1,0.2-0.4,0.3-0.5
		c1.7-1.7,1.7-2,0.5-4.2c-0.8-1.4-1.3-3-1.8-4.5c-0.1-0.4,0-0.9,0.2-1.3c0.2-0.5,0.7-1,0.7-1.4c0-0.5-0.4-1-0.7-1.6
		c0.3-0.5,0.6-1,1-1.5c0.4-0.6,0.8-1.1,1.3-1.6c0.3-0.3,0.8-0.6,1.3-0.7c1,0,1.5-0.5,1.8-1.5c0.3-1,0-1.7-1-2.2
		c5.4-3.9,9.6-8.9,13.5-14.1c0.2,0.2,0.2,0.3,0.3,0.3c1,5.4,4.5,8.5,9,10.9c1.8,1,4,0.2,5-1.6c1-1.8,0.5-3.8-1.3-5.1
		c-0.5-0.4-1.1-0.6-1.6-1c-0.9-0.7-1.9-1.4-2.6-2.2c-1.4-1.5-1.4-3-0.4-4.8c0.5-0.8,1.1-1.6,1.6-2.4c3.3-4.5,7.3-8.4,11.5-12
		c4.9-4.3,9.9-8.5,14.2-13.5c3.8-4.4,7-9.1,8.5-14.9C261.4,124.7,261.6,120.8,260.5,116.9z M153.3,151.4c-3.3-3-6.7-5.9-9.9-9
		c-2.3-2.3-4.4-4.8-6.4-7.4c-2.6-3.4-4.3-7.2-4.8-11.6c-0.3-3.2,0.4-6.1,3.1-8.1c2.6-2,4.8-2.1,7.5-0.5c0.7,0.4,1.3,1,1.9,1.5
		c1.7,1.6,2,3.5,1.4,5.7c-0.1,0.4-0.3,0.8-0.4,1.1c-0.8,3,1.6,5.5,4.5,4.9c0.3-0.1,0.5-0.1,0.8-0.2c1,5,1.8,9.8,2.8,14.6
		c1,4.7,2.9,9.1,4.7,13.6C156.7,154.5,155,152.9,153.3,151.4z M183.8,191.5c-0.1-0.3-0.3-0.8-0.4-1.4c1.4-0.3,2.3-0.2,3.1,0.6
		C185.6,191,184.8,191.2,183.8,191.5z M202.8,190.1c-0.1,0.5-0.1,1-0.1,1.4c-1.1-0.3-2-0.5-2.9-0.7
		C200.6,189.9,201.5,189.9,202.8,190.1z M253.2,126.1c-1.3,4.8-3.9,8.7-7.1,12.3c-3.4,3.9-7.4,7.4-11.2,10.8c-2.2,2-4.4,4-6.6,5.9
		c-0.1-0.1-0.2-0.2-0.3-0.2c4.4-8.4,5.9-17.6,7.2-27c0.7,0,1.3,0,1.9,0c2.4-0.1,4-2.4,3.4-4.7c-0.2-0.6-0.4-1.2-0.6-1.8
		c-0.5-1.9-0.1-3.6,1.3-5c0.4-0.5,0.9-0.9,1.4-1.3c4-3,9-1.4,10.7,3.4C254.1,121.1,253.9,123.6,253.2,126.1z"/>
	<path class="st1" d="M186.5,190.8c-0.8,0.2-1.6,0.5-2.7,0.8c-0.1-0.3-0.3-0.8-0.4-1.4C184.7,189.8,185.6,190,186.5,190.8z"/>
	<path class="st1" d="M202.8,190.1c-0.1,0.5-0.1,1-0.1,1.4c-1.1-0.3-2-0.5-2.9-0.7C200.6,189.9,201.5,189.9,202.8,190.1z"/>
</g>
<g>
	<path class="st2" d="M115.5,356l1.1-2.4c1.6,1.9,3.3,3.2,5,4c0.7,0.3,1.4,0.5,2.2,0.5c0.8,0,1.4-0.1,2-0.5c0.6-0.3,1-0.8,1.2-1.4
		c0.3-0.7,0.4-1.4,0.2-2.2s-0.8-1.8-1.7-3.1l-1-1.3l-1-1.3c-1.8-2.4-2.2-4.6-1.3-6.6c0.7-1.5,1.7-2.5,3.2-3s3.4-0.3,5.6,0.7
		c1.4,0.6,2.7,1.5,3.9,2.5l-1,2.2c-1.2-1.2-2.5-2.1-3.9-2.7c-1.1-0.5-2.1-0.6-3.1-0.3c-0.9,0.3-1.6,0.8-1.9,1.6
		c-0.4,0.8-0.4,1.6-0.1,2.3s0.7,1.5,1.4,2.3l0.8,1l0.9,1.3l0.8,1.1c1.6,2.3,2,4.4,1.1,6.4c-0.7,1.5-1.8,2.5-3.4,3.1
		s-3.7,0.3-6.1-0.8c-0.8-0.4-1.5-0.8-2.2-1.2C117.3,357.6,116.5,356.9,115.5,356z"/>
	<path class="st2" d="M151.3,369.2c-1.7,0.1-3.2,0-4.5-0.3c-1.6-0.5-3.1-1.3-4.2-2.6s-1.9-2.8-2.2-4.8c-0.3-1.9-0.1-3.9,0.5-6.1
		c0.6-2.1,1.5-3.9,2.8-5.4s2.7-2.4,4.3-2.9s3.3-0.5,5,0c1.3,0.4,2.6,1,4,2.1l-0.7,2.4c-1.2-1.2-2.6-2.1-4-2.5
		c-1.1-0.3-2.2-0.2-3.3,0.2s-2.1,1.3-3.1,2.5s-1.7,2.7-2.1,4.3c-0.5,1.7-0.6,3.3-0.4,4.8s0.6,2.8,1.3,3.8s1.6,1.6,2.7,1.9
		c1.4,0.4,3,0.4,4.7,0L151.3,369.2z"/>
	<path class="st2" d="M169.1,373.3c-2.5-0.3-4.2-1.6-5.3-3.8s-1.3-5-0.9-8.4c0.5-3.4,1.5-6,3.1-7.9s3.6-2.6,6.1-2.3
		c2.5,0.3,4.2,1.6,5.3,3.8s1.3,5,0.9,8.4c-0.5,3.4-1.5,6.1-3,7.9C173.6,372.9,171.6,373.7,169.1,373.3z M169.4,371.2
		c1.4,0.2,2.6-0.4,3.7-1.8c1.1-1.4,1.9-3.6,2.3-6.6s0.3-5.4-0.5-7c-0.7-1.6-1.8-2.5-3.1-2.7s-2.6,0.4-3.7,1.8s-1.9,3.6-2.3,6.6
		s-0.3,5.4,0.5,7S168,371,169.4,371.2z"/>
	<path class="st2" d="M190.4,365.3l0.1,9l-2.9,0l-0.3-21.3l5.9-0.1c1.9,0,3.3,0.1,4.2,0.5s1.6,0.9,2.1,1.7s0.8,1.6,0.8,2.5
		c0,0.8-0.1,1.7-0.5,2.5c-0.3,0.8-0.8,1.6-1.3,2.3c-0.6,0.7-1.4,1.3-2.5,1.9l6.5,9.8l-3.4,0l-6-9L190.4,365.3z M190.4,363.2l4-0.1
		c0.9-0.5,1.5-1,2-1.5c0.4-0.5,0.8-1,1-1.6s0.3-1.1,0.3-1.7c0-1-0.4-1.8-1.2-2.4c-0.8-0.6-2.1-0.8-4.1-0.8l-2.1,0L190.4,363.2z"/>
	<path class="st2" d="M212.9,373.3l-3.1-21l4.3-0.6c2.5-0.4,4.3-0.4,5.2-0.2c0.9,0.3,1.6,0.7,2.2,1.4s0.9,1.5,1,2.4
		c0.1,0.7,0.1,1.5-0.1,2.2c-0.1,0.7-0.4,1.4-0.9,2s-1.1,1.2-1.9,1.9c1.8,0.4,3.1,1.1,3.9,2s1.2,1.8,1.4,2.8c0.1,0.9,0,1.9-0.4,2.8
		s-1,1.7-1.9,2.3s-2.3,1.1-4.4,1.4L212.9,373.3z M214,361.3l3-0.4c0.9-0.5,1.5-1,1.9-1.5s0.6-1,0.8-1.6c0.1-0.6,0.2-1.2,0.1-1.8
		c-0.1-1-0.6-1.7-1.2-2.1c-0.7-0.4-1.9-0.5-3.6-0.2l-2,0.3L214,361.3z M215.4,370.8l2.7-0.4c1.5-0.2,2.5-0.7,3.2-1.5
		s0.9-1.7,0.7-2.6c-0.1-0.7-0.4-1.3-0.9-1.9s-1.2-0.9-2-1.1c-0.9-0.2-2.2-0.2-4,0l-0.8,0.1L215.4,370.8z"/>
	<path class="st2" d="M230.8,348.6l2.7-0.8l4,13.4c0.5,1.8,1,2.9,1.5,3.5s1.1,0.9,1.8,1c0.7,0.2,1.5,0.1,2.3-0.1
		c0.8-0.2,1.5-0.6,2-1.2s0.8-1.3,0.9-2.1s-0.2-2.4-0.9-4.5l-3.7-12.3l2.5-0.8l4,13.3c0.6,1.9,0.7,3.5,0.5,4.7
		c-0.3,1.3-0.8,2.3-1.6,3.1c-0.8,0.8-1.9,1.5-3.3,1.9c-1.3,0.4-2.5,0.5-3.7,0.3c-1.1-0.2-2.1-0.7-2.9-1.5c-0.8-0.8-1.6-2.4-2.3-4.9
		L230.8,348.6z"/>
	<path class="st2" d="M265.6,358.7l-8-17.2l-6,2.8l-1-2.1l14.5-6.7l1,2.1l-6,2.8l8,17.2L265.6,358.7z"/>
</g>
<path class="st3" d="M169.8,174.6c4.1,5.5,8.4,10.5,13.7,14.3c-0.9,0.9-1,1.6-0.7,2.5c0.3,0.8,0.8,1.2,1.7,1.1
	c0.6-0.1,1.1,0.3,1.4,0.8c0.8,1.1,1.5,2.1,2.3,3.2c-1.1,1.7-1.1,1.7,0.3,3.4c-0.3,0.9-0.5,1.9-0.8,2.8c-0.4,1-1,2-1.5,2.9
	c-0.9,1.7-0.8,2.4,0.6,3.6c0.2,0.2,0.6,0.4,0.6,0.5c-0.2,1.2,0.7,1.7,1.5,2.2c0,0.3,0,0.4,0,0.5c-0.8,6.8-2.1,13.6-4,20.1
	c-0.4,1.4-0.5,2.7,0,4.1c0.1,0.3,0.1,0.6,0.3,1c-3.4,0-6.6,0.1-9.8,0c-2.3-0.1-4.1,1.9-4,4.1c0.1,2.3-0.5,4.6,1.2,6.8
	c-1.6,0-3,0.1-4.3,0c-3.5-0.2-7,2.5-6.8,7.1c0.1,2,0,4,0,5.9c0,4.8,0,9.5,0,14.3c0,2,0.6,3.8,2,5.2c0.2,0.2,0.4,0.5,0.7,0.9
	c-2.3,0-4.3,0-6.3,0c-2.9,0-4.1,1.4-4.2,4.3c0,1.2,0.1,2.5,0,3.7c-0.3,3.3,1.1,5.2,4.9,5.2c22.8-0.1,45.5,0,68.3,0
	c0.7,0,1.5,0,2.2,0c2.2,0,3.7-1.4,3.8-3.6c0.1-2,0.1-4,0-5.9c-0.1-2.1-1.5-3.4-3.5-3.5c-1.9-0.1-3.7,0-5.6,0c-0.4,0-0.8-0.1-1.4-0.1
	c2.5-3,2.7-3.5,2.7-7.5c0-2,0-4.1,0-6.1c0-4.2,0-8.4,0-12.6c0-1.9-0.4-3.6-1.7-5c-1.3-1.5-2.9-2.1-4.8-2.1c-1.5,0-3,0-4.4,0
	c0.4-1.1,0.8-1.9,0.9-2.8c0.1-1.5,0.1-3,0-4.5c-0.1-2.1-1.6-3.5-3.7-3.5c-2.2,0-4.4,0-6.6,0c-1.2,0-2.3,0-3.6,0
	c0.8-1.7,1-3.2,0.5-4.9c-0.9-3.3-1.8-6.5-2.4-9.8c-0.7-3.6-1.2-7.3-1.8-10.9c1-0.6,1.9-1,1.7-2.2c0-0.2,0.2-0.4,0.3-0.5
	c1.7-1.7,1.7-2,0.5-4.1c-0.7-1.4-1.3-3-1.8-4.5c-0.1-0.4,0-0.9,0.1-1.3c0.2-0.5,0.7-1,0.7-1.4c0-0.5-0.4-1-0.7-1.6
	c0.3-0.5,0.6-1,1-1.5c0.4-0.6,0.8-1.1,1.3-1.6c0.3-0.3,0.8-0.6,1.3-0.7c1,0,1.5-0.5,1.8-1.5c0.3-1,0-1.7-1-2.2
	c5.4-3.9,9.6-8.9,13.5-14.1c0.2,0.2,0.2,0.3,0.3,0.3c1,5.4,4.5,8.5,9,10.9c1.8,1,4,0.2,5-1.6c1-1.8,0.5-3.8-1.3-5
	c-0.5-0.4-1.1-0.6-1.6-1c-0.9-0.7-1.9-1.4-2.6-2.2c-1.4-1.5-1.4-3-0.4-4.8c0.5-0.8,1.1-1.6,1.6-2.4c3.3-4.6,7.3-8.4,11.5-12
	c4.9-4.3,9.9-8.5,14.2-13.5c3.8-4.4,7-9.1,8.5-14.9c1.1-3.9,1.4-7.8,0.2-11.7c-1.8-6.2-7.4-10.7-13.4-11c-3.8-0.1-7,1.4-9.9,3.8
	c-0.4,0.4-0.8,0.7-1.4,1.1c-0.3-1.5-0.6-2.7,0.7-3.8c0.5-0.4,0.8-1.3,1.1-2c0.9-2.5-0.1-3.9-2.7-4c-0.2,0-0.3,0-0.5,0
	c-27.5,0-55,0-82.5,0c-0.5,0-0.9,0-1.4,0c-1.3,0.1-1.9,0.8-2,2.2c-0.1,1.4,0.3,2.8,1.3,3.7c1.3,1.2,1,2.5,0.7,4
	c-0.9-0.7-1.6-1.4-2.4-2c-8-6.2-16.9-2.3-20.8,3.9c-2.5,4-2.9,8.4-2.2,12.9c0.9,5.2,3,9.9,6.2,14c2.3,2.9,4.7,5.7,7.3,8.3
	c4,3.9,8.3,7.5,12.4,11.3c3.8,3.5,7.3,7.2,10.3,11.6c1.7,2.5,1.1,4.4-0.8,6.1c-1,0.9-2.1,1.5-3.2,2.2c-1.9,1.3-2.5,3.4-1.4,5.3
	c1,1.9,3.2,2.5,5.1,1.4c1.5-0.9,3-1.9,4.4-3c2.3-1.9,3.8-4.4,4.3-7.5C169.5,175.4,169.6,175.2,169.8,174.6z"/>
<path d="M169.8,174.6c-0.2,0.6-0.3,0.8-0.3,1c-0.5,3.1-2,5.6-4.3,7.5c-1.4,1.1-2.8,2.1-4.4,3c-1.9,1.1-4.1,0.5-5.1-1.4
	c-1-1.9-0.5-4,1.4-5.3c1.1-0.7,2.2-1.4,3.2-2.2c2-1.7,2.5-3.6,0.8-6.1c-2.9-4.4-6.4-8.1-10.3-11.6c-4.1-3.8-8.4-7.4-12.4-11.3
	c-2.6-2.5-5-5.4-7.3-8.3c-3.2-4.1-5.4-8.8-6.2-14c-0.8-4.6-0.3-8.9,2.2-12.9c3.8-6.2,12.8-10.1,20.8-3.9c0.8,0.6,1.5,1.2,2.4,2
	c0.3-1.5,0.6-2.8-0.7-4c-1-0.9-1.4-2.3-1.3-3.7c0.1-1.3,0.7-2,2-2.2c0.5,0,0.9,0,1.4,0c27.5,0,55,0,82.5,0c0.2,0,0.3,0,0.5,0
	c2.6,0,3.6,1.4,2.7,4c-0.2,0.7-0.5,1.5-1.1,2c-1.3,1.1-1,2.3-0.7,3.8c0.5-0.5,1-0.8,1.4-1.1c2.9-2.4,6.1-3.9,9.9-3.8
	c6,0.2,11.6,4.7,13.4,11c1.1,3.9,0.9,7.8-0.2,11.7c-1.6,5.7-4.8,10.5-8.5,14.9c-4.3,5-9.3,9.2-14.2,13.5c-4.2,3.7-8.2,7.5-11.5,12
	c-0.6,0.8-1.1,1.6-1.6,2.4c-1.1,1.8-1,3.3,0.4,4.8c0.8,0.8,1.7,1.5,2.6,2.2c0.5,0.4,1.1,0.6,1.6,1c1.7,1.2,2.2,3.3,1.3,5
	c-1,1.8-3.1,2.6-5,1.6c-4.4-2.3-8-5.5-9-10.9c0,0-0.1-0.1-0.3-0.3c-4,5.2-8.1,10.2-13.5,14.1c1,0.5,1.3,1.2,1,2.2
	c-0.3,1-0.8,1.4-1.8,1.5c-0.4,0-0.9,0.3-1.3,0.7c-0.5,0.5-0.9,1.1-1.3,1.6c-0.4,0.5-0.7,1.1-1,1.5c0.3,0.6,0.7,1.1,0.7,1.6
	c0,0.5-0.5,0.9-0.7,1.4c-0.1,0.4-0.3,0.9-0.1,1.3c0.5,1.5,1.1,3.1,1.8,4.5c1.1,2.2,1.2,2.5-0.5,4.1c-0.1,0.1-0.4,0.4-0.3,0.5
	c0.2,1.2-0.7,1.6-1.7,2.2c0.6,3.6,1.1,7.3,1.8,10.9c0.7,3.3,1.5,6.5,2.4,9.8c0.4,1.7,0.2,3.2-0.5,4.9c1.3,0,2.5,0,3.6,0
	c2.2,0,4.4,0,6.6,0c2.1,0,3.5,1.4,3.7,3.5c0.1,1.5,0.1,3,0,4.5c-0.1,0.9-0.5,1.7-0.9,2.8c1.5,0,2.9,0,4.4,0c1.9,0,3.5,0.7,4.8,2.1
	c1.3,1.4,1.7,3.1,1.7,5c0,4.2,0,8.4,0,12.6c0,2,0,4.1,0,6.1c0,4-0.2,4.6-2.7,7.5c0.5,0,0.9,0.1,1.4,0.1c1.9,0,3.7,0,5.6,0
	c2,0.1,3.4,1.4,3.5,3.5c0.1,2,0.1,4,0,5.9c-0.1,2.2-1.6,3.5-3.8,3.6c-0.7,0-1.5,0-2.2,0c-22.8,0-45.5,0-68.3,0
	c-3.8,0-5.1-1.9-4.9-5.2c0.1-1.2,0-2.5,0-3.7c0-2.9,1.3-4.2,4.2-4.3c2,0,4,0,6.3,0c-0.3-0.4-0.5-0.7-0.7-0.9c-1.5-1.4-2-3.1-2-5.2
	c0-4.8,0-9.5,0-14.3c0-2,0.1-4,0-5.9c-0.2-4.6,3.3-7.3,6.8-7.1c1.3,0.1,2.7,0,4.3,0c-1.6-2.2-1.1-4.5-1.2-6.8s1.7-4.2,4-4.1
	c3.2,0.1,6.4,0,9.8,0c-0.1-0.4-0.1-0.7-0.3-1c-0.5-1.4-0.5-2.7,0-4.1c2-6.6,3.2-13.3,4-20.1c0-0.1,0-0.2,0-0.5
	c-0.7-0.5-1.6-0.9-1.5-2.2c0-0.1-0.4-0.4-0.6-0.5c-1.4-1.2-1.5-1.9-0.6-3.6c0.5-1,1.1-1.9,1.5-2.9c0.4-0.9,0.6-1.9,0.8-2.8
	c-1.4-1.7-1.4-1.8-0.3-3.4c-0.7-1-1.5-2.1-2.3-3.2c-0.4-0.5-0.8-0.8-1.4-0.8c-0.8,0.1-1.4-0.3-1.7-1.1c-0.3-1-0.1-1.6,0.7-2.5
	C178.1,185.1,173.9,180.1,169.8,174.6z M151.6,108.4c-0.4,1.8-0.6,3.4,0.4,5.2c2.1,3.6,2.5,7.6,0.8,11.4c-0.9,2-1,3.8-0.6,5.9
	c0.1,0.8,0.2,1.6,0.4,2.4c1.2,8.6,3.6,16.8,7.8,24.4c0.4,0.7,0.9,1.3,1.4,2c1.9,2.5,3.9,5,5.8,7.5c1.1,1.5,1.8,3.2,2.1,5.1
	c0.1,0.6,0.4,1.2,0.8,1.7c1.8,2.3,3.5,4.6,5.4,6.7c2.9,3.3,6.1,6.4,9.9,8.6c1.9,1.1,3.9,2,6.2,1.7c0.7-0.1,1.5-0.1,2.2,0
	c2.3,0.2,4.3-0.5,6.3-1.7c0.8-0.5,1.5-1,2.3-1.5c5.2-3.8,9.3-8.8,13.1-14c0.2-0.3,0.4-0.7,0.4-1.1c0.2-2.3,1.1-4.3,2.4-6.1
	c2-2.7,4.1-5.2,6.2-7.9c0.4-0.5,0.9-1,1.2-1.6c4.9-9,7.1-18.9,8.2-29.1c0-0.4-0.1-0.9-0.3-1.3c-2.6-4.6-2.5-9.3,0.2-13.7
	c1-1.6,0.8-3,0.5-4.7C206.8,108.4,179.2,108.4,151.6,108.4z M193,249.5c-1.5,0-3,0-4.6,0c-6.9,0-13.7,0-20.6,0
	c-3.9,0-5.9,2.2-5.9,6.2c0,2.7,0,5.4,0,8c0,4.2,0,8.4,0,12.6c0,2.5,1.4,4.6,3.5,5.3c0.9,0.3,2,0.4,3,0.4c16.3,0,32.7,0,49,0
	c0.6,0,1.1,0.1,1.7-0.1c0.9-0.2,1.8-0.4,2.5-0.9c1.7-1.1,2.4-2.9,2.4-4.9c0-6.9-0.1-13.7,0-20.6c0-3.2-2.1-6.1-5.8-6
	c-0.5,0-0.9,0-1.4,0C208.9,249.5,201,249.5,193,249.5z M193.1,282.8c-11.5,0-23.1,0-34.6,0c-0.5,0-0.9,0-1.4,0
	c-1.6,0.1-2.8,1.2-2.9,2.8c-0.1,2-0.1,4,0,5.9c0.1,1.5,1.3,2.7,2.8,2.8c0.4,0,0.8,0,1.2,0c23.2,0,46.4,0,69.6,0c0.4,0,0.8,0,1.2,0
	c1.6-0.1,2.7-1.1,2.7-2.8c0.1-2,0.1-4.1,0-6.1c-0.1-1.6-1.2-2.6-2.8-2.7c-0.5,0-1,0-1.5,0C216,282.8,204.5,282.8,193.1,282.8z
	 M153,120.3c-0.1-0.9-0.1-1.9-0.3-2.8c-0.8-4.3-3.6-7-7.1-9c-4-2.4-8.1-2.3-12.3-0.1c-5.8,3.1-8.8,9.7-7.7,16.8
	c0.9,5.6,3.3,10.5,6.6,14.9c3.8,5.1,8.5,9.3,13.2,13.5c4.3,3.8,8.7,7.4,12.4,11.9c1.6,1.9,3,3.9,4.4,6c1.2,1.7,1,3.5-0.2,5.2
	c-0.5,0.7-1.1,1.3-1.8,1.8c-0.8,0.6-1.7,1.1-2.5,1.7c-1.6,1.1-2.1,2.8-1.2,4.3c0.8,1.4,2.6,1.9,4.1,1c1.6-1,3.3-2.1,4.7-3.4
	c2.5-2.3,3.8-5.3,3.6-8.9c-0.1-2.3-1.1-4.1-2.3-5.9c-2.8-4.3-6.1-8-9.9-11.5c-3.4-3.1-6.8-6.1-10.2-9.2c-3.8-3.4-7.4-7-10.4-11.2
	c-2.4-3.4-4.1-7-4.7-11.3c-0.4-2.7,0-5.2,1.5-7.5c2.6-3.9,7-4.8,10.8-2.1c1.6,1.1,3,2.5,3.3,4.6c0.2,1.4,0,2.7-0.6,3.9
	c-0.7,1.7,0.2,3.5,1.6,4.1c1.6,0.7,3.2-0.1,4-1.9C152.6,123.6,153,122,153,120.3z M260.4,122.7c0-5.3-1.6-9.5-5-12.4
	c-3.4-3-7.3-4.4-11.7-3.3c-3.7,0.9-6.7,3.1-8.9,6.3c-2.5,3.7-2.6,7.8-0.9,12c0.7,1.6,2.2,2.3,3.6,1.8c1.6-0.6,2.4-2.1,1.9-3.9
	c-0.1-0.5-0.4-0.9-0.5-1.3c-0.4-1.9-0.4-3.7,0.9-5.3c1.2-1.5,2.6-2.7,4.5-3.3c0.8-0.3,1.7-0.6,2.5-0.5c3.5,0.5,6.1,2.4,7.2,5.9
	c0.5,1.5,0.5,3.2,0.5,4.8c-0.3,3.8-1.8,7.2-3.8,10.3c-2.2,3.5-5,6.6-8,9.4c-4.8,4.4-9.7,8.8-14.4,13.2c-3.6,3.3-6.7,7-9.3,11.2
	c-2.5,4.1-2.4,8.6,0.3,12.4c1.7,2.4,4,4,6.6,5.3c1.4,0.7,2.9,0.1,3.6-1.2c0.7-1.3,0.5-2.8-0.6-3.8c-0.5-0.5-1.2-0.7-1.7-1.1
	c-1.1-0.9-2.3-1.7-3.2-2.8c-1.4-1.7-1.4-3.4-0.3-5.3c0.4-0.8,0.9-1.5,1.4-2.2c3.6-5.1,8.1-9.2,12.7-13.3c4-3.6,8-7.2,11.8-11
	c3.1-3.1,5.7-6.6,7.7-10.5C259,130.4,260.3,126.5,260.4,122.7z M193.1,102c-13.7,0-27.4,0-41.1,0c-0.5,0-1,0-1.5,0
	c-1.1,0.1-1.4,0.4-1.4,1.5c-0.1,2.2,1.4,3.9,3.6,3.9c26.9,0,53.7,0,80.6,0c2.2,0,3-1.2,3.5-3c0.5-1.7,0-2.4-1.7-2.4
	c-0.5,0-0.9,0-1.4,0C220.1,102,206.6,102,193.1,102z M150.8,127.9c-0.3,0-0.5,0.1-0.8,0.2c-2.9,0.7-5.3-1.9-4.5-4.9
	c0.1-0.4,0.3-0.8,0.4-1.1c0.6-2.2,0.4-4.2-1.4-5.7c-0.6-0.5-1.2-1.1-1.9-1.5c-2.7-1.6-4.9-1.5-7.5,0.5c-2.6,2-3.3,4.9-3,8.1
	c0.4,4.4,2.2,8.2,4.8,11.6c2,2.6,4.1,5.1,6.4,7.4c3.2,3.1,6.6,6,9.9,9c1.7,1.6,3.4,3.1,5.2,4.7c-1.8-4.5-3.8-8.8-4.8-13.6
	C152.6,137.7,151.7,132.9,150.8,127.9z M227.8,155c0.1,0.1,0.2,0.2,0.3,0.2c2.2-2,4.4-4,6.6-5.9c3.9-3.5,7.8-6.9,11.3-10.8
	c3.2-3.6,5.8-7.5,7.1-12.3c0.7-2.5,0.9-5,0-7.5c-1.7-4.8-6.8-6.4-10.7-3.4c-0.5,0.4-1,0.8-1.4,1.3c-1.4,1.4-1.7,3.1-1.3,5
	c0.1,0.6,0.4,1.2,0.6,1.8c0.6,2.4-1,4.6-3.4,4.7c-0.6,0-1.2,0-1.9,0C233.8,137.4,232.2,146.6,227.8,155z M192.9,248.6
	c5.9,0,11.8,0,17.7,0c2.3,0,3.4-1.1,3.4-3.5c0-1,0-2.1,0-3.1c0-2.3-1.2-3.5-3.3-3.5c-11.8,0-23.6,0-35.5,0c-2.1,0-3.2,1.2-3.4,3.3
	c-0.1,1,0,2.1,0,3.1c-0.1,2.2,1.2,3.8,3.6,3.7C181.3,248.5,187.1,248.6,192.9,248.6z M189.6,211.9c-0.4,2.6-0.6,5-1.1,7.4
	c-1,4.6-2.1,9.3-3.2,13.9c-0.3,1.1-0.3,2.2,0.1,3.2c0.4,0.9,0.9,1.4,2,1.3c3.8,0,7.5,0,11.3,0c0.9,0,1.5-0.5,1.8-1.3
	c0.5-1.1,0.5-2.2,0.1-3.4c-0.8-2.9-1.6-5.7-2.1-8.6c-0.8-4.1-1.5-8.3-2.2-12.6C194.2,211.9,191.9,211.9,189.6,211.9z M189.3,199
	c-0.4,2.8-1.4,5.2-2.8,7.5c-0.7,1.2,0.1,2.3,1.5,2.3c3.3,0,6.6,0.1,9.9,0c1.6,0,2.1-1.1,1.4-2.6c-0.6-1.2-1.3-2.5-1.8-3.7
	c-0.4-1.1-0.6-2.3-0.9-3.5C194.2,199,191.9,199,189.3,199z M189.1,196.6c2.4,0,4.9,0,7.4,0c0.3,0,0.7-0.2,0.8-0.4
	c0.9-1.3,1.8-2.7,2.8-4.1c-4.8,0-9.5,0-14.3,0C187,193.6,188,195,189.1,196.6z M198.1,210.4c-0.3-0.9-0.9-0.7-1.5-0.7
	c-2.4,0-4.7,0-7.1,0c-0.3,0-0.7,0-1,0.1c-0.2,0-0.4,0.3-0.4,0.4c0.1,0.2,0.3,0.4,0.5,0.6c0.1,0.1,0.2,0,0.3,0c2.8,0,5.6,0,8.4,0
	C197.6,210.9,197.8,210.5,198.1,210.4z M198,198.6c0.1-1.1-0.5-1-1.1-1c-2.4,0-4.7,0-7.1,0c-0.4,0-0.8-0.1-1.2,0.1
	c-0.3,0.1-0.4,0.4-0.7,0.7C189.8,197.8,196.5,197.8,198,198.6z M183.2,190.1c0.2,0.6,0.3,1,0.4,1.4c1-0.3,1.8-0.5,2.7-0.8
	C185.5,190,184.6,189.8,183.2,190.1z M202.5,191.5c0-0.4,0.1-0.9,0.1-1.4c-1.2-0.2-2.2-0.2-3,0.7C200.6,191,201.4,191.2,202.5,191.5
	z"/>
<path class="st4" d="M151.6,108.4c27.6,0,55.2,0,82.9,0c0.3,1.7,0.5,3.1-0.5,4.7c-2.7,4.5-2.8,9.1-0.2,13.7c0.2,0.4,0.4,0.9,0.3,1.3
	c-1.1,10.2-3.3,20.1-8.2,29.1c-0.3,0.6-0.8,1.1-1.2,1.6c-2.1,2.6-4.2,5.2-6.2,7.9c-1.3,1.8-2.2,3.8-2.4,6.1c0,0.4-0.2,0.8-0.4,1.1
	c-3.8,5.2-7.9,10.2-13.1,14c-0.7,0.5-1.5,1-2.3,1.5c-1.9,1.2-4,1.9-6.3,1.7c-0.7-0.1-1.5-0.1-2.2,0c-2.3,0.3-4.3-0.6-6.2-1.7
	c-3.8-2.3-7-5.3-9.9-8.6c-1.9-2.2-3.6-4.5-5.4-6.7c-0.4-0.5-0.7-1.1-0.8-1.7c-0.3-1.9-1-3.6-2.1-5.1c-1.9-2.6-3.8-5-5.8-7.5
	c-0.5-0.6-1-1.3-1.4-2c-4.1-7.6-6.6-15.8-7.8-24.4c-0.1-0.8-0.2-1.6-0.4-2.4c-0.4-2-0.3-3.8,0.6-5.9c1.7-3.8,1.3-7.8-0.8-11.4
	C151,111.8,151.2,110.2,151.6,108.4z"/>
<path class="st5" d="M193,249.5c7.9,0,15.9,0,23.8,0c0.5,0,0.9,0,1.4,0c3.7-0.1,5.8,2.8,5.8,6c-0.1,6.9,0,13.7,0,20.6
	c0,2.1-0.7,3.8-2.4,4.9c-0.7,0.5-1.6,0.7-2.5,0.9c-0.5,0.1-1.1,0.1-1.7,0.1c-16.3,0-32.7,0-49,0c-1,0-2.1,0-3-0.4
	c-2.1-0.7-3.4-2.8-3.5-5.3c0-4.2,0-8.4,0-12.6c0-2.7,0-5.4,0-8c0-4,2-6.2,5.9-6.2c6.9,0,13.7,0,20.6,0
	C190,249.5,191.5,249.5,193,249.5z"/>
<path class="st5" d="M193.1,282.8c11.4,0,22.9,0,34.3,0c0.5,0,1,0,1.5,0c1.6,0.1,2.7,1,2.8,2.7c0.1,2,0.1,4.1,0,6.1
	c-0.1,1.6-1.2,2.6-2.7,2.8c-0.4,0-0.8,0-1.2,0c-23.2,0-46.4,0-69.6,0c-0.4,0-0.8,0-1.2,0c-1.5-0.1-2.7-1.2-2.8-2.8
	c-0.1-2-0.1-4,0-5.9c0.1-1.6,1.2-2.7,2.9-2.8c0.5,0,0.9,0,1.4,0C170,282.8,181.5,282.8,193.1,282.8z"/>
<path class="st5" d="M153,120.3c0,1.7-0.4,3.4-1.1,4.9c-0.8,1.8-2.4,2.6-4,1.9c-1.4-0.6-2.3-2.4-1.6-4.1c0.5-1.2,0.8-2.5,0.6-3.9
	c-0.4-2.1-1.7-3.5-3.3-4.6c-3.8-2.7-8.2-1.8-10.8,2.1c-1.5,2.3-1.9,4.8-1.5,7.5c0.6,4.2,2.3,7.9,4.7,11.3c3,4.2,6.6,7.8,10.4,11.2
	c3.4,3.1,6.8,6.1,10.2,9.2c3.7,3.4,7.1,7.2,9.9,11.5c1.2,1.8,2.2,3.7,2.3,5.9c0.2,3.6-1.1,6.5-3.6,8.9c-1.4,1.3-3,2.4-4.7,3.4
	c-1.6,1-3.3,0.5-4.1-1c-0.9-1.5-0.4-3.2,1.2-4.3c0.9-0.6,1.8-1.1,2.5-1.7c0.7-0.5,1.3-1.1,1.8-1.8c1.2-1.6,1.4-3.4,0.2-5.2
	c-1.4-2-2.8-4.1-4.4-6c-3.7-4.4-8.1-8.1-12.4-11.9c-4.7-4.2-9.4-8.4-13.2-13.5c-3.3-4.4-5.7-9.3-6.6-14.9
	c-1.1-7.1,1.9-13.7,7.7-16.8c4.1-2.2,8.2-2.2,12.3,0.1c3.5,2,6.3,4.8,7.1,9C152.8,118.4,152.9,119.4,153,120.3z"/>
<path class="st5" d="M260.4,122.7c-0.1,3.7-1.3,7.6-3.2,11.4c-2,4-4.6,7.5-7.7,10.5c-3.8,3.8-7.8,7.4-11.8,11
	c-4.5,4.1-9.1,8.2-12.7,13.3c-0.5,0.7-1,1.4-1.4,2.2c-1.1,1.9-1.1,3.7,0.3,5.3c0.9,1.1,2.1,1.9,3.2,2.8c0.5,0.4,1.2,0.7,1.7,1.1
	c1.1,1,1.3,2.5,0.6,3.8c-0.8,1.3-2.3,1.9-3.6,1.2c-2.6-1.3-4.9-2.9-6.6-5.3c-2.8-3.8-2.9-8.3-0.3-12.4c2.6-4.2,5.8-7.9,9.3-11.2
	c4.8-4.4,9.7-8.8,14.4-13.2c3-2.8,5.8-5.9,8-9.4c2-3.1,3.6-6.5,3.8-10.3c0.1-1.6,0-3.3-0.5-4.8c-1.1-3.6-3.6-5.5-7.2-5.9
	c-0.8-0.1-1.7,0.2-2.5,0.5c-1.8,0.6-3.3,1.8-4.5,3.3c-1.3,1.6-1.3,3.4-0.9,5.3c0.1,0.5,0.3,0.9,0.5,1.3c0.5,1.8-0.3,3.3-1.9,3.9
	c-1.4,0.5-2.9-0.1-3.6-1.8c-1.8-4.1-1.6-8.3,0.9-12c2.1-3.2,5.2-5.4,8.9-6.3c4.5-1.1,8.4,0.3,11.7,3.3
	C258.7,113.3,260.4,117.5,260.4,122.7z"/>
<path class="st5" d="M193.1,102c13.5,0,27,0,40.5,0c0.5,0,0.9,0,1.4,0c1.7,0,2.2,0.7,1.7,2.4c-0.5,1.8-1.3,3-3.5,3
	c-26.9-0.1-53.7,0-80.6,0c-2.1,0-3.6-1.6-3.6-3.9c0.1-1.1,0.3-1.4,1.4-1.5c0.5,0,1,0,1.5,0C165.8,102,179.4,102,193.1,102z"/>
<path class="st6" d="M150.8,127.9c1,5,1.8,9.8,2.8,14.6c1,4.7,3,9.1,4.8,13.6c-1.7-1.6-3.4-3.1-5.2-4.7c-3.3-3-6.7-5.9-9.9-9
	c-2.3-2.3-4.4-4.8-6.4-7.4c-2.6-3.4-4.3-7.2-4.8-11.6c-0.3-3.2,0.4-6.1,3-8.1c2.6-2,4.8-2.1,7.5-0.5c0.7,0.4,1.3,1,1.9,1.5
	c1.7,1.6,2,3.5,1.4,5.7c-0.1,0.4-0.3,0.8-0.4,1.1c-0.8,3,1.6,5.5,4.5,4.9C150.2,128,150.5,128,150.8,127.9z"/>
<path class="st6" d="M227.8,155c4.4-8.4,5.9-17.6,7.2-27c0.7,0,1.3,0,1.9,0c2.4-0.1,4-2.4,3.4-4.7c-0.2-0.6-0.4-1.2-0.6-1.8
	c-0.5-1.9-0.1-3.6,1.3-5c0.4-0.4,0.9-0.9,1.4-1.3c4-3,9-1.4,10.7,3.4c0.9,2.5,0.7,5,0,7.5c-1.3,4.8-3.9,8.7-7.1,12.3
	c-3.4,3.9-7.4,7.4-11.3,10.8c-2.2,2-4.4,4-6.6,5.9C228,155.1,227.9,155.1,227.8,155z"/>
<path class="st5" d="M192.9,248.6c-5.8,0-11.6-0.1-17.4,0c-2.4,0-3.7-1.6-3.6-3.7c0-1,0-2.1,0-3.1c0.1-2.1,1.3-3.3,3.4-3.3
	c11.8,0,23.6,0,35.5,0c2.1,0,3.3,1.2,3.3,3.5c0,1,0,2.1,0,3.1c0,2.4-1.1,3.5-3.4,3.5C204.7,248.6,198.8,248.6,192.9,248.6z"/>
<path class="st5" d="M189.6,211.9c2.3,0,4.6,0,6.7,0c0.8,4.3,1.4,8.5,2.2,12.6c0.6,2.9,1.4,5.8,2.1,8.6c0.3,1.2,0.4,2.3-0.1,3.4
	c-0.4,0.8-0.9,1.3-1.8,1.3c-3.8,0-7.5,0-11.3,0c-1,0-1.6-0.5-2-1.3c-0.4-1-0.4-2.1-0.1-3.2c1.1-4.6,2.2-9.2,3.2-13.9
	C189,216.9,189.2,214.5,189.6,211.9z"/>
<path class="st5" d="M189.3,199c2.6,0,4.9,0,7.4,0c0.3,1.2,0.5,2.4,0.9,3.5c0.5,1.3,1.2,2.5,1.8,3.7c0.7,1.5,0.2,2.5-1.4,2.6
	c-3.3,0.1-6.6,0-9.9,0c-1.4,0-2.2-1.1-1.5-2.3C187.9,204.2,188.9,201.7,189.3,199z"/>
<path class="st5" d="M189.1,196.6c-1.1-1.6-2.1-3-3.2-4.6c4.8,0,9.5,0,14.3,0c-1,1.5-1.9,2.8-2.8,4.1c-0.2,0.2-0.5,0.4-0.8,0.4
	C194,196.6,191.5,196.6,189.1,196.6z"/>
<path class="st3" d="M198.1,210.4c-0.2,0.1-0.5,0.5-0.8,0.5c-2.8,0-5.6,0-8.4,0c-0.1,0-0.3,0-0.3,0c-0.2-0.2-0.4-0.4-0.5-0.6
	c0-0.1,0.2-0.4,0.4-0.4c0.3-0.1,0.7-0.1,1-0.1c2.4,0,4.7,0,7.1,0C197.1,209.7,197.8,209.5,198.1,210.4z"/>
<path class="st3" d="M198,198.6c-1.4-0.7-8.2-0.8-10-0.3c0.2-0.2,0.4-0.6,0.7-0.7c0.4-0.1,0.8-0.1,1.2-0.1c2.4,0,4.7,0,7.1,0
	C197.5,197.5,198,197.5,198,198.6z"/>
<path class="st3" d="M183.2,190.1c1.4-0.3,2.3-0.2,3.1,0.6c-0.8,0.2-1.6,0.5-2.7,0.8C183.6,191.2,183.4,190.7,183.2,190.1z"/>
<path class="st3" d="M202.5,191.5c-1.1-0.3-1.9-0.5-2.9-0.7c0.8-0.9,1.8-0.9,3-0.7C202.6,190.6,202.5,191.1,202.5,191.5z"/>
<ellipse class="st7" cx="192" cy="192" rx="181.1" ry="188.8"/>
<text transform="matrix(1 0 0 1 176.05 164.1815)" class="st2 st8 st9">1</text>
</svg>
