<?xml version="1.0" encoding="utf-8"?>
<!-- Generator: Adobe Illustrator 24.0.1, SVG Export Plug-In . SVG Version: 6.00 Build 0)  -->
<svg version="1.1" id="Calque_1" xmlns="http://www.w3.org/2000/svg" xmlns:xlink="http://www.w3.org/1999/xlink" x="0px" y="0px"
	 viewBox="0 0 256 256" style="enable-background:new 0 0 256 256;" xml:space="preserve">
<style type="text/css">
	.st0{fill:#EBCE48;}
	.st1{fill:#FEED69;}
	.st2{fill:none;}
	.st3{fill:#FFFFFF;}
</style>
<path d="M97.6,97c-0.3,0.8-0.4,1.1-0.4,1.3c-0.7,4.1-2.6,7.4-5.7,9.9c-1.8,1.5-3.7,2.8-5.8,4c-2.5,1.5-5.4,0.7-6.7-1.8
	c-1.3-2.5-0.7-5.3,1.8-7c1.5-0.9,2.9-1.8,4.2-2.9c2.6-2.2,3.3-4.8,1.1-8.1c-3.8-5.8-8.5-10.7-13.6-15.3c-5.4-5-11.1-9.8-16.4-14.9
	c-3.4-3.3-6.6-7.1-9.6-11c-4.2-5.4-7.1-11.6-8.2-18.5c-1.1-6.1-0.4-11.8,2.9-17c5-8.2,16.9-13.3,27.5-5.2c1.1,0.8,2,1.6,3.2,2.6
	c0.4-2,0.8-3.7-0.9-5.3c-1.3-1.2-1.8-3-1.7-4.9c0.1-1.7,0.9-2.6,2.6-2.9c0.5,0,1.2,0,1.8,0c36.3,0,72.7,0,109,0c0.3,0,0.4,0,0.7,0
	c3.4,0,4.8,1.8,3.6,5.3c-0.3,0.9-0.7,2-1.5,2.6c-1.7,1.5-1.3,3-0.9,5c0.7-0.7,1.3-1.1,1.8-1.5c3.8-3.2,8.1-5.2,13.1-5
	c7.9,0.3,15.3,6.2,17.7,14.5c1.5,5.2,1.2,10.3-0.3,15.5c-2.1,7.5-6.3,13.9-11.2,19.7c-5.7,6.6-12.3,12.2-18.8,17.8
	c-5.5,4.9-10.8,9.9-15.2,15.9c-0.8,1.1-1.5,2.1-2.1,3.2c-1.5,2.4-1.3,4.4,0.5,6.3c1.1,1.1,2.2,2,3.4,2.9c0.7,0.5,1.5,0.8,2.1,1.3
	c2.2,1.6,2.9,4.4,1.7,6.6c-1.3,2.4-4.1,3.4-6.6,2.1c-5.8-3-10.6-7.3-11.9-14.4c0,0-0.1-0.1-0.4-0.4c-5.3,6.9-10.7,13.5-17.8,18.6
	c1.3,0.7,1.7,1.6,1.3,2.9c-0.4,1.3-1.1,1.8-2.4,2c-0.5,0-1.2,0.4-1.7,0.9c-0.7,0.7-1.2,1.5-1.7,2.1c-0.5,0.7-0.9,1.5-1.3,2
	c0.4,0.8,0.9,1.5,0.9,2.1c0,0.7-0.7,1.2-0.9,1.8c-0.1,0.5-0.4,1.2-0.1,1.7c0.7,2,1.5,4.1,2.4,5.9c1.5,2.9,1.6,3.3-0.7,5.4
	c-0.1,0.1-0.5,0.5-0.4,0.7c0.3,1.6-0.9,2.1-2.2,2.9c0.8,4.8,1.5,9.6,2.4,14.4c0.9,4.4,2,8.6,3.2,12.9c0.5,2.2,0.3,4.2-0.7,6.5
	c1.7,0,3.3,0,4.8,0c2.9,0,5.8,0,8.7,0c2.8,0,4.6,1.8,4.9,4.6c0.1,2,0.1,4,0,5.9c-0.1,1.2-0.7,2.2-1.2,3.7c2,0,3.8,0,5.8,0
	c2.5,0,4.6,0.9,6.3,2.8c1.7,1.8,2.2,4.1,2.2,6.6c0,5.5,0,11.1,0,16.6c0,2.6,0,5.4,0,8.1c0,5.3-0.3,6.1-3.6,9.9
	c0.7,0,1.2,0.1,1.8,0.1c2.5,0,4.9,0,7.4,0c2.6,0.1,4.5,1.8,4.6,4.6c0.1,2.6,0.1,5.3,0,7.8c-0.1,2.9-2.1,4.6-5,4.8c-0.9,0-2,0-2.9,0
	c-30.1,0-60.1,0-90.2,0c-5,0-6.7-2.5-6.5-6.9c0.1-1.6,0-3.3,0-4.9c0-3.8,1.7-5.5,5.5-5.7c2.6,0,5.3,0,8.3,0
	c-0.4-0.5-0.7-0.9-0.9-1.2c-2-1.8-2.6-4.1-2.6-6.9c0-6.3,0-12.5,0-18.9c0-2.6,0.1-5.3,0-7.8c-0.3-6.1,4.4-9.6,9-9.4
	c1.7,0.1,3.6,0,5.7,0c-2.1-2.9-1.5-5.9-1.6-9c-0.1-3,2.2-5.5,5.3-5.4c4.2,0.1,8.5,0,12.9,0c-0.1-0.5-0.1-0.9-0.4-1.3
	c-0.7-1.8-0.7-3.6,0-5.4c2.6-8.7,4.2-17.6,5.3-26.6c0-0.1,0-0.3,0-0.7c-0.9-0.7-2.1-1.2-2-2.9c0-0.1-0.5-0.5-0.8-0.7
	c-1.8-1.6-2-2.5-0.8-4.8c0.7-1.3,1.5-2.5,2-3.8c0.5-1.2,0.8-2.5,1.1-3.7c-1.8-2.2-1.8-2.4-0.4-4.5c-0.9-1.3-2-2.8-3-4.2
	c-0.5-0.7-1.1-1.1-1.8-1.1c-1.1,0.1-1.8-0.4-2.2-1.5c-0.4-1.3-0.1-2.1,0.9-3.3C108.6,110.8,103,104.2,97.6,97z M73.6,9.5
	c-0.5,2.4-0.8,4.5,0.5,6.9c2.8,4.8,3.3,10,1.1,15.1c-1.2,2.6-1.3,5-0.8,7.8c0.1,1.1,0.3,2.1,0.5,3.2c1.6,11.4,4.8,22.2,10.3,32.2
	c0.5,0.9,1.2,1.7,1.8,2.6c2.5,3.3,5.2,6.6,7.7,9.9c1.5,2,2.4,4.2,2.8,6.7c0.1,0.8,0.5,1.6,1.1,2.2c2.4,3,4.6,6.1,7.1,8.9
	c3.8,4.4,8.1,8.5,13.1,11.4c2.5,1.5,5.2,2.6,8.2,2.2c0.9-0.1,2-0.1,2.9,0c3,0.3,5.7-0.7,8.3-2.2c1.1-0.7,2-1.3,3-2
	c6.9-5,12.3-11.6,17.3-18.5c0.3-0.4,0.5-0.9,0.5-1.5c0.3-3,1.5-5.7,3.2-8.1c2.6-3.6,5.4-6.9,8.2-10.4c0.5-0.7,1.2-1.3,1.6-2.1
	c6.5-11.9,9.4-25,10.8-38.4c0-0.5-0.1-1.2-0.4-1.7c-3.4-6.1-3.3-12.3,0.3-18.1c1.3-2.1,1.1-4,0.7-6.2C146.5,9.5,110,9.5,73.6,9.5z
	 M128.4,195.9c-2,0-4,0-6.1,0c-9.1,0-18.1,0-27.2,0c-5.2,0-7.8,2.9-7.8,8.2c0,3.6,0,7.1,0,10.6c0,5.5,0,11.1,0,16.6
	c0,3.3,1.8,6.1,4.6,7c1.2,0.4,2.6,0.5,4,0.5c21.5,0,43.2,0,64.7,0c0.8,0,1.5,0.1,2.2-0.1c1.2-0.3,2.4-0.5,3.3-1.2
	c2.2-1.5,3.2-3.8,3.2-6.5c0-9.1-0.1-18.1,0-27.2c0-4.2-2.8-8.1-7.7-7.9c-0.7,0-1.2,0-1.8,0C149.2,195.9,138.8,195.9,128.4,195.9z
	 M128.4,239.9c-15.2,0-30.5,0-45.7,0c-0.7,0-1.2,0-1.8,0c-2.1,0.1-3.7,1.6-3.8,3.7c-0.1,2.6-0.1,5.3,0,7.8c0.1,2,1.7,3.6,3.7,3.7
	c0.5,0,1.1,0,1.6,0c30.6,0,61.3,0,91.9,0c0.5,0,1.1,0,1.6,0c2.1-0.1,3.6-1.5,3.6-3.7c0.1-2.6,0.1-5.4,0-8.1
	c-0.1-2.1-1.6-3.4-3.7-3.6c-0.7,0-1.3,0-2,0C158.6,239.9,143.4,239.9,128.4,239.9z M75.4,25.2c-0.1-1.2-0.1-2.5-0.4-3.7
	c-1.1-5.7-4.8-9.2-9.4-11.9c-5.3-3.2-10.7-3-16.2-0.1c-7.7,4.1-11.6,12.8-10.2,22.2c1.2,7.4,4.4,13.9,8.7,19.7
	c5,6.7,11.2,12.3,17.4,17.8c5.7,5,11.5,9.8,16.4,15.7c2.1,2.5,4,5.2,5.8,7.9c1.6,2.2,1.3,4.6-0.3,6.9c-0.7,0.9-1.5,1.7-2.4,2.4
	c-1.1,0.8-2.2,1.5-3.3,2.2c-2.1,1.5-2.8,3.7-1.6,5.7c1.1,1.8,3.4,2.5,5.4,1.3c2.1-1.3,4.4-2.8,6.2-4.5c3.3-3,5-7,4.8-11.8
	c-0.1-3-1.5-5.4-3-7.8c-3.7-5.7-8.1-10.6-13.1-15.2c-4.5-4.1-9-8.1-13.5-12.2c-5-4.5-9.8-9.2-13.7-14.8c-3.2-4.5-5.4-9.2-6.2-14.9
	c-0.5-3.6,0-6.9,2-9.9c3.4-5.2,9.2-6.3,14.3-2.8c2.1,1.5,4,3.3,4.4,6.1c0.3,1.8,0,3.6-0.8,5.2c-0.9,2.2,0.3,4.6,2.1,5.4
	c2.1,0.9,4.2-0.1,5.3-2.5C74.9,29.7,75.4,27.5,75.4,25.2z M217.3,28.5c0-7-2.1-12.5-6.6-16.4c-4.5-4-9.6-5.8-15.5-4.4
	c-4.9,1.2-8.9,4.1-11.8,8.3c-3.3,4.9-3.4,10.3-1.2,15.9c0.9,2.1,2.9,3,4.8,2.4c2.1-0.8,3.2-2.8,2.5-5.2c-0.1-0.7-0.5-1.2-0.7-1.7
	c-0.5-2.5-0.5-4.9,1.2-7c1.6-2,3.4-3.6,5.9-4.4c1.1-0.4,2.2-0.8,3.3-0.7c4.6,0.7,8.1,3.2,9.5,7.8c0.7,2,0.7,4.2,0.7,6.3
	c-0.4,5-2.4,9.5-5,13.6c-2.9,4.6-6.6,8.7-10.6,12.4c-6.3,5.8-12.8,11.6-19,17.4c-4.8,4.4-8.9,9.2-12.3,14.8
	c-3.3,5.4-3.2,11.4,0.4,16.4c2.2,3.2,5.3,5.3,8.7,7c1.8,0.9,3.8,0.1,4.8-1.6c0.9-1.7,0.7-3.7-0.8-5c-0.7-0.7-1.6-0.9-2.2-1.5
	c-1.5-1.2-3-2.2-4.2-3.7c-1.8-2.2-1.8-4.5-0.4-7c0.5-1.1,1.2-2,1.8-2.9c4.8-6.7,10.7-12.2,16.8-17.6c5.3-4.8,10.6-9.5,15.6-14.5
	c4.1-4.1,7.5-8.7,10.2-13.9C215.6,38.6,217.1,33.4,217.3,28.5z M128.4,1.2c-18.1,0-36.2,0-54.3,0c-0.7,0-1.3,0-2,0
	c-1.5,0.1-1.8,0.5-1.8,2c-0.1,2.9,1.8,5.2,4.6,5.2c35.5,0,70.9,0,106.5,0c2.9,0,4-1.6,4.6-4c0.7-2.2,0-3.2-2.2-3.2
	c-0.7,0-1.2,0-1.8,0C164.2,1.2,146.2,1.2,128.4,1.2z M72.5,35.3c-0.4,0-0.7,0.1-1.1,0.1c-3.8,0.9-7-2.5-5.9-6.5
	c0.1-0.5,0.4-1.1,0.5-1.5c0.8-2.9,0.5-5.5-1.8-7.5c-0.8-0.7-1.6-1.5-2.5-2c-3.6-2.1-6.5-2-9.9,0.7c-3.4,2.6-4.4,6.5-4,10.7
	c0.5,5.8,2.9,10.8,6.3,15.3c2.6,3.4,5.4,6.7,8.5,9.8c4.2,4.1,8.7,7.9,13.1,11.9c2.2,2.1,4.5,4.1,6.9,6.2c-2.4-5.9-5-11.6-6.3-18
	C74.9,48.2,73.7,41.9,72.5,35.3z M174.2,71.1c0.1,0.1,0.3,0.3,0.4,0.3c2.9-2.6,5.8-5.3,8.7-7.8c5.2-4.6,10.3-9.1,14.9-14.3
	c4.2-4.8,7.7-9.9,9.4-16.2c0.9-3.3,1.2-6.6,0-9.9c-2.2-6.3-9-8.5-14.1-4.5c-0.7,0.5-1.3,1.1-1.8,1.7c-1.8,1.8-2.2,4.1-1.7,6.6
	c0.1,0.8,0.5,1.6,0.8,2.4c0.8,3.2-1.3,6.1-4.5,6.2c-0.8,0-1.6,0-2.5,0C182.1,47.8,180,60,174.2,71.1z M128.1,194.7
	c7.8,0,15.6,0,23.4,0c3,0,4.5-1.5,4.5-4.6c0-1.3,0-2.8,0-4.1c0-3-1.6-4.6-4.4-4.6c-15.6,0-31.2,0-46.9,0c-2.8,0-4.2,1.6-4.5,4.4
	c-0.1,1.3,0,2.8,0,4.1c-0.1,2.9,1.6,5,4.8,4.9C112.8,194.6,120.4,194.7,128.1,194.7z M123.7,146.2c-0.5,3.4-0.8,6.6-1.5,9.8
	c-1.3,6.1-2.8,12.3-4.2,18.4c-0.4,1.5-0.4,2.9,0.1,4.2c0.5,1.2,1.2,1.8,2.6,1.7c5,0,9.9,0,14.9,0c1.2,0,2-0.7,2.4-1.7
	c0.7-1.5,0.7-2.9,0.1-4.5c-1.1-3.8-2.1-7.5-2.8-11.4c-1.1-5.4-2-11-2.9-16.6C129.8,146.2,126.8,146.2,123.7,146.2z M123.4,129.2
	c-0.5,3.7-1.8,6.9-3.7,9.9c-0.9,1.6,0.1,3,2,3c4.4,0,8.7,0.1,13.1,0c2.1,0,2.8-1.5,1.8-3.4c-0.8-1.6-1.7-3.3-2.4-4.9
	c-0.5-1.5-0.8-3-1.2-4.6C129.8,129.2,126.8,129.2,123.4,129.2z M123.1,126c3.2,0,6.5,0,9.8,0c0.4,0,0.9-0.3,1.1-0.5
	c1.2-1.7,2.4-3.6,3.7-5.4c-6.3,0-12.5,0-18.9,0C120.3,122.1,121.6,123.9,123.1,126z M135,144.2c-0.4-1.2-1.2-0.9-2-0.9
	c-3.2,0-6.2,0-9.4,0c-0.4,0-0.9,0-1.3,0.1c-0.3,0-0.5,0.4-0.5,0.5c0.1,0.3,0.4,0.5,0.7,0.8c0.1,0.1,0.3,0,0.4,0c3.7,0,7.4,0,11.1,0
	C134.3,144.9,134.6,144.5,135,144.2z M134.8,128.7c0.1-1.5-0.7-1.3-1.5-1.3c-3.2,0-6.2,0-9.4,0c-0.5,0-1.1-0.1-1.6,0.1
	c-0.4,0.1-0.5,0.5-0.9,0.9C124,127.6,132.9,127.7,134.8,128.7z M115.3,117.6c0.3,0.8,0.4,1.3,0.5,1.8c1.3-0.4,2.4-0.7,3.6-1.1
	C118.3,117.3,117.1,117.2,115.3,117.6z M140.8,119.3c0-0.5,0.1-1.2,0.1-1.8c-1.6-0.3-2.9-0.3-4,0.9
	C138.3,118.6,139.3,119,140.8,119.3z"/>
<path class="st0" d="M73.6,9.5c36.5,0,72.9,0,109.5,0c0.4,2.2,0.7,4.1-0.7,6.2c-3.6,5.9-3.7,12-0.3,18.1c0.3,0.5,0.5,1.2,0.4,1.7
	c-1.5,13.5-4.4,26.6-10.8,38.4c-0.4,0.8-1.1,1.5-1.6,2.1c-2.8,3.4-5.5,6.9-8.2,10.4c-1.7,2.4-2.9,5-3.2,8.1c0,0.5-0.3,1.1-0.5,1.5
	c-5,6.9-10.4,13.5-17.3,18.5c-0.9,0.7-2,1.3-3,2c-2.5,1.6-5.3,2.5-8.3,2.2c-0.9-0.1-2-0.1-2.9,0c-3,0.4-5.7-0.8-8.2-2.2
	c-5-3-9.2-7-13.1-11.4c-2.5-2.9-4.8-5.9-7.1-8.9c-0.5-0.7-0.9-1.5-1.1-2.2c-0.4-2.5-1.3-4.8-2.8-6.7c-2.5-3.4-5-6.6-7.7-9.9
	c-0.7-0.8-1.3-1.7-1.8-2.6c-5.4-10-8.7-20.9-10.3-32.2c-0.1-1.1-0.3-2.1-0.5-3.2c-0.5-2.6-0.4-5,0.8-7.8c2.2-5,1.7-10.3-1.1-15.1
	C72.8,14,73,11.9,73.6,9.5z"/>
<path class="st1" d="M128.4,195.6c10.4,0,21,0,31.4,0c0.7,0,1.2,0,1.8,0c4.9-0.1,7.7,3.7,7.7,7.9c-0.1,9.1,0,18.1,0,27.2
	c0,2.8-0.9,5-3.2,6.5c-0.9,0.7-2.1,0.9-3.3,1.2c-0.7,0.1-1.5,0.1-2.2,0.1c-21.5,0-43.2,0-64.7,0c-1.3,0-2.8,0-4-0.5
	c-2.8-0.9-4.5-3.7-4.6-7c0-5.5,0-11.1,0-16.6c0-3.6,0-7.1,0-10.6c0-5.3,2.6-8.2,7.8-8.2c9.1,0,18.1,0,27.2,0
	C124.4,195.6,126.4,195.6,128.4,195.6z"/>
<path class="st1" d="M128.4,239.9c15.1,0,30.2,0,45.3,0c0.7,0,1.3,0,2,0c2.1,0.1,3.6,1.3,3.7,3.6c0.1,2.6,0.1,5.4,0,8.1
	c-0.1,2.1-1.6,3.4-3.6,3.7c-0.5,0-1.1,0-1.6,0c-30.6,0-61.3,0-91.9,0c-0.5,0-1.1,0-1.6,0c-2-0.1-3.6-1.6-3.7-3.7
	c-0.1-2.6-0.1-5.3,0-7.8c0.1-2.1,1.6-3.6,3.8-3.7c0.7,0,1.2,0,1.8,0C97.9,239.9,113,239.9,128.4,239.9z"/>
<path class="st1" d="M75.4,25.2c0,2.2-0.5,4.5-1.5,6.5c-1.1,2.4-3.2,3.4-5.3,2.5c-1.8-0.8-3-3.2-2.1-5.4c0.7-1.6,1.1-3.3,0.8-5.2
	c-0.5-2.8-2.2-4.6-4.4-6.1c-5-3.6-10.8-2.4-14.3,2.8c-2,3-2.5,6.3-2,9.9c0.8,5.5,3,10.4,6.2,14.9c4,5.5,8.7,10.3,13.7,14.8
	c4.5,4.1,9,8.1,13.5,12.2c4.9,4.5,9.4,9.5,13.1,15.2c1.6,2.4,2.9,4.9,3,7.8c0.3,4.8-1.5,8.6-4.8,11.8c-1.8,1.7-4,3.2-6.2,4.5
	c-2.1,1.3-4.4,0.7-5.4-1.3c-1.2-2-0.5-4.2,1.6-5.7c1.2-0.8,2.4-1.5,3.3-2.2c0.9-0.7,1.7-1.5,2.4-2.4c1.6-2.1,1.8-4.5,0.3-6.9
	c-1.8-2.6-3.7-5.4-5.8-7.9c-4.9-5.8-10.7-10.7-16.4-15.7C59,63.7,52.8,58.1,47.8,51.4c-4.4-5.8-7.5-12.3-8.7-19.7
	c-1.5-9.4,2.5-18.1,10.2-22.2c5.4-2.9,10.8-2.9,16.2,0.1c4.6,2.6,8.3,6.3,9.4,11.9C75.1,22.9,75.3,24,75.4,25.2z"/>
<path class="st1" d="M217.3,28.5c-0.1,4.9-1.7,10-4.2,15.1c-2.6,5.3-6.1,9.9-10.2,13.9c-5,5-10.3,9.8-15.6,14.5
	c-5.9,5.4-12,10.8-16.8,17.6c-0.7,0.9-1.3,1.8-1.8,2.9c-1.5,2.5-1.5,4.9,0.4,7c1.2,1.5,2.8,2.5,4.2,3.7c0.7,0.5,1.6,0.9,2.2,1.5
	c1.5,1.3,1.7,3.3,0.8,5c-1.1,1.7-3,2.5-4.8,1.6c-3.4-1.7-6.5-3.8-8.7-7c-3.7-5-3.8-11-0.4-16.4c3.4-5.5,7.7-10.4,12.3-14.8
	c6.3-5.8,12.8-11.6,19-17.4c4-3.7,7.7-7.8,10.6-12.4c2.6-4.1,4.8-8.6,5-13.6c0.1-2.1,0-4.4-0.7-6.3c-1.5-4.8-4.8-7.3-9.5-7.8
	c-1.1-0.1-2.2,0.3-3.3,0.7c-2.4,0.8-4.4,2.4-5.9,4.4c-1.7,2.1-1.7,4.5-1.2,7c0.1,0.7,0.4,1.2,0.7,1.7c0.7,2.4-0.4,4.4-2.5,5.2
	c-1.8,0.7-3.8-0.1-4.8-2.4c-2.4-5.4-2.1-11,1.2-15.9c2.8-4.2,6.9-7.1,11.8-8.3c5.9-1.5,11.1,0.4,15.5,4.4
	C215,16,217.3,21.5,217.3,28.5z"/>
<path class="st1" d="M128.4,1.2c17.8,0,35.7,0,53.5,0c0.7,0,1.2,0,1.8,0c2.2,0,2.9,0.9,2.2,3.2c-0.7,2.4-1.7,4-4.6,4
	c-35.5-0.1-70.9,0-106.5,0c-2.8,0-4.8-2.1-4.8-5.2c0.1-1.5,0.4-1.8,1.8-2c0.7,0,1.3,0,2,0C92.3,1.2,110.3,1.2,128.4,1.2z"/>
<path class="st2" d="M72.5,35.3c1.3,6.6,2.4,12.9,3.7,19.3c1.3,6.2,4,12,6.3,18c-2.2-2.1-4.5-4.1-6.9-6.2c-4.4-4-8.9-7.8-13.1-11.9
	c-3-3-5.8-6.3-8.5-9.8c-3.4-4.5-5.7-9.5-6.3-15.3c-0.4-4.2,0.5-8.1,4-10.7s6.3-2.8,9.9-0.7c0.9,0.5,1.7,1.3,2.5,2
	c2.2,2.1,2.6,4.6,1.8,7.5c-0.1,0.5-0.4,1.1-0.5,1.5c-1.1,4,2.1,7.3,5.9,6.5C71.7,35.4,72.1,35.4,72.5,35.3z"/>
<path class="st2" d="M174.2,71.1c5.8-11.1,7.8-23.2,9.5-35.7c0.9,0,1.7,0,2.5,0c3.2-0.1,5.3-3.2,4.5-6.2c-0.3-0.8-0.5-1.6-0.8-2.4
	c-0.7-2.5-0.1-4.8,1.7-6.6c0.5-0.5,1.2-1.2,1.8-1.7c5.3-4,11.9-1.8,14.1,4.5c1.2,3.3,0.9,6.6,0,9.9c-1.7,6.3-5.2,11.5-9.4,16.2
	c-4.5,5.2-9.8,9.8-14.9,14.3c-2.9,2.6-5.8,5.3-8.7,7.8C174.5,71.3,174.3,71.2,174.2,71.1z"/>
<path class="st1" d="M128.1,194.7c-7.7,0-15.3-0.1-23,0c-3.2,0-4.9-2.1-4.8-4.9c0-1.3,0-2.8,0-4.1c0.1-2.8,1.7-4.4,4.5-4.4
	c15.6,0,31.2,0,46.9,0c2.8,0,4.4,1.6,4.4,4.6c0,1.3,0,2.8,0,4.1c0,3.2-1.5,4.6-4.5,4.6C143.7,194.7,135.9,194.7,128.1,194.7z"/>
<path class="st1" d="M123.7,146.2c3,0,6.1,0,8.9,0c1.1,5.7,1.8,11.2,2.9,16.6c0.8,3.8,1.8,7.7,2.8,11.4c0.4,1.6,0.5,3-0.1,4.5
	c-0.5,1.1-1.2,1.7-2.4,1.7c-5,0-9.9,0-14.9,0c-1.3,0-2.1-0.7-2.6-1.7c-0.5-1.3-0.5-2.8-0.1-4.2c1.5-6.1,2.9-12.2,4.2-18.4
	C123,152.8,123.2,149.7,123.7,146.2z"/>
<path class="st1" d="M123.4,129.2c3.4,0,6.5,0,9.8,0c0.4,1.6,0.7,3.2,1.2,4.6c0.7,1.7,1.6,3.3,2.4,4.9c0.9,2,0.3,3.3-1.8,3.4
	c-4.4,0.1-8.7,0-13.1,0c-1.8,0-2.9-1.5-2-3C121.5,136.1,122.8,132.9,123.4,129.2z"/>
<path class="st1" d="M123.1,126c-1.5-2.1-2.8-4-4.2-6.1c6.3,0,12.5,0,18.9,0c-1.3,2-2.5,3.7-3.7,5.4c-0.3,0.3-0.7,0.5-1.1,0.5
	C129.6,126.2,126.3,126,123.1,126z"/>
<path class="st3" d="M135,144.2c-0.3,0.1-0.7,0.7-1.1,0.7c-3.7,0-7.4,0-11.1,0c-0.1,0-0.4,0-0.4,0c-0.3-0.3-0.5-0.5-0.7-0.8
	c0-0.1,0.3-0.5,0.5-0.5c0.4-0.1,0.9-0.1,1.3-0.1c3.2,0,6.2,0,9.4,0C133.7,143.3,134.6,143.1,135,144.2z"/>
<path class="st3" d="M134.8,128.7c-1.8-0.9-10.8-1.1-13.2-0.4c0.3-0.3,0.5-0.8,0.9-0.9c0.5-0.1,1.1-0.1,1.6-0.1c3.2,0,6.2,0,9.4,0
	C134.2,127.2,134.8,127.2,134.8,128.7z"/>
<path class="st3" d="M115.3,117.6c1.8-0.4,3-0.3,4.1,0.8c-1.1,0.3-2.1,0.7-3.6,1.1C115.8,118.9,115.6,118.2,115.3,117.6z"/>
<path class="st3" d="M140.8,119.3c-1.5-0.4-2.5-0.7-3.8-0.9c1.1-1.2,2.4-1.2,4-0.9C140.9,118.1,140.9,118.8,140.8,119.3z"/>
</svg>
