<svg version="1.1" xmlns="http://www.w3.org/2000/svg" xmlns:xlink="http://www.w3.org/1999/xlink" x="0px" y="0px"
	 viewBox="0 0 800 800" style="enable-background:new 0 0 800 800;" xml:space="preserve">
<style type="text/css">
	.internet-st0{fill:#FFFFFF;}
</style>
<path class="internet-st0" d="M400,0C179.1,0,0,179.1,0,400s179.1,400,400,400s400-179.1,400-400S620.9,0,400,0z M45.6,422.2h88.5
	c2,55.7,11.6,108.2,27.3,155.6h-69C64.9,530.3,48.9,477,45.6,422.2z M422.2,177.8V46.2c61,9.7,114.7,59,151.1,131.5H422.2z
	 M592.2,222.2c16.8,46.3,27.1,99.1,29.3,155.6H422.2V222.2H592.2z M377.8,46.2v131.5H226.7C263,105.2,316.7,55.9,377.8,46.2z
	 M377.8,222.2v155.6H178.5c2.2-56.4,12.5-109.3,29.3-155.6H377.8z M134.1,377.8H45.6c3.3-54.8,19.3-108,46.8-155.6h69
	C145.7,269.5,136.1,322.1,134.1,377.8L134.1,377.8z M178.5,422.2h199.3v155.6h-170C191,531.5,180.7,478.7,178.5,422.2z M377.8,622.2
	v131.5c-61-9.7-114.7-59-151.1-131.5H377.8L377.8,622.2z M422.2,753.8V622.2h151.1C537,694.8,483.3,744,422.2,753.8z M422.2,577.8
	V422.2h199.3c-2.2,56.5-12.5,109.3-29.3,155.6H422.2z M665.9,422.2h88.5c-3.3,54.8-19.3,108.1-46.8,155.6h-69
	C654.3,530.5,663.9,477.9,665.9,422.2L665.9,422.2z M665.9,377.8c-2.1-55.7-11.6-108.2-27.3-155.6h69
	c27.5,47.5,43.5,100.8,46.8,155.6H665.9L665.9,377.8z M677.3,177.8h-55.6c-15.9-35.6-35.7-67-58.2-93.3
	C607.5,107.3,646.3,139.1,677.3,177.8L677.3,177.8z M236.5,84.5c-22.5,26.3-42.3,57.7-58.2,93.3h-55.6
	C153.7,139.1,192.5,107.3,236.5,84.5z M122.7,622.2h55.6c15.9,35.6,35.7,67,58.2,93.3C192.5,692.7,153.7,660.9,122.7,622.2z
	 M563.5,715.5c22.5-26.3,42.3-57.6,58.2-93.3h55.6C646.3,660.9,607.5,692.7,563.5,715.5z"/>
</svg>