<svg version="1.1" xmlns="http://www.w3.org/2000/svg" xmlns:xlink="http://www.w3.org/1999/xlink" x="0px" y="0px"
	 viewBox="0 0 48 48" style="enable-background:new 0 0 48 48;" xml:space="preserve">
<style type="text/css">
	.learnmore-st0{fill:#FFFFFF;}
</style>
<g>
	<path class="learnmore-st0" d="M24,0.1c-13.2,0-24,10.8-24,24s10.8,24,24,24s24-10.8,24-24S37.3,0.1,24,0.1z M26.4,36.3
		c0,0.5-0.4,0.8-0.7,0.8h-3.4c-0.4,0-0.7-0.4-0.7-0.8V20c0-0.5,0.4-0.8,0.7-0.8h3.4c0.4,0,0.7,0.4,0.7,0.8V36.3z M24,16.4
		c-2,0-3.2-1.3-3.2-2.9s1.2-2.8,3.2-2.8s3.2,1.2,3.2,2.8S26,16.4,24,16.4z"/>
</g>
</svg>