<svg version="1.1" focusable="false" xmlns="http://www.w3.org/2000/svg" xmlns:xlink="http://www.w3.org/1999/xlink"
	 x="0px" y="0px" viewBox="0 0 800 800" style="enable-background:new 0 0 800 800;" xml:space="preserve">
<style type="text/css">
	.code-st0{fill:#FFFFFF;}
</style>
<path class="code-st0" d="M271.5,564.5l-18.7,18.7c-2.5,2.5-5.4,3.7-8.6,3.7c-3.2,0-6.1-1.2-8.6-3.7L60.9,408.6c-2.5-2.5-3.7-5.4-3.7-8.6
	c0-3.2,1.2-6.1,3.7-8.6l174.6-174.6c2.5-2.5,5.4-3.7,8.6-3.7c3.2,0,6.1,1.2,8.6,3.7l18.7,18.7c2.5,2.5,3.7,5.4,3.7,8.6
	c0,3.2-1.2,6.1-3.7,8.6L124.2,400l147.3,147.3c2.5,2.5,3.7,5.4,3.7,8.6C275.2,559.1,274,562,271.5,564.5L271.5,564.5z"/>
<path class="code-st0" d="M492.9,164.7L353.2,648.4c-1,3.2-2.9,5.7-5.8,7.3c-2.9,1.6-5.8,1.9-8.8,0.9l-23.2-6.4c-3.2-1-5.7-2.9-7.3-5.8
	c-1.6-2.9-1.9-5.9-0.9-9.2l139.8-483.7c1-3.2,2.9-5.7,5.8-7.3c2.9-1.6,5.8-1.9,8.8-0.9l23.2,6.4c3.2,1,5.7,2.9,7.3,5.8
	C493.6,158.4,493.9,161.4,492.9,164.7L492.9,164.7z"/>
<path class="code-st0" d="M739.1,408.6L564.5,583.2c-2.5,2.5-5.4,3.7-8.6,3.7c-3.2,0-6.1-1.2-8.6-3.7l-18.7-18.7
	c-2.5-2.5-3.7-5.4-3.7-8.6c0-3.2,1.2-6.1,3.7-8.6L675.8,400L528.5,252.7c-2.5-2.5-3.7-5.4-3.7-8.6c0-3.2,1.2-6.1,3.7-8.6l18.7-18.7
	c2.5-2.5,5.4-3.7,8.6-3.7c3.2,0,6.1,1.2,8.6,3.7l174.6,174.6c2.5,2.5,3.7,5.4,3.7,8.6C742.9,403.2,741.6,406.1,739.1,408.6z"/>
</svg>