<svg version="1.1" focusable="false" xmlns="http://www.w3.org/2000/svg" xmlns:xlink="http://www.w3.org/1999/xlink"
	 x="0px" y="0px" viewBox="0 0 800 800" style="enable-background:new 0 0 800 800;" xml:space="preserve">
<style type="text/css">
	.headset-st0{fill:#FFFFFF;}
</style>
<path class="headset-st0" d="M400,57.1C221.4,57.1,75.2,203.3,75.2,382v270.7h72.2V382c0-138.9,113.7-252.6,252.6-252.6S652.6,243,652.6,382
	v270.7h72.2V382C724.8,203.3,578.6,57.1,400,57.1L400,57.1z"/>
<path class="headset-st0" d="M652.6,742.9h-72.2V526.3h72.2c39.7,0,72.2,32.5,72.2,72.2v72.2C724.8,710.4,692.3,742.9,652.6,742.9z
	 M147.4,742.9h72.2V526.3h-72.2c-39.7,0-72.2,32.5-72.2,72.2v72.2C75.2,710.4,107.7,742.9,147.4,742.9L147.4,742.9z"/>
</svg>