<!-- Just a joke -->
<svg version="1.1" xmlns="http://www.w3.org/2000/svg" xmlns:xlink="http://www.w3.org/1999/xlink" x="0px" y="0px"
	 viewBox="0 0 82 82" style="enable-background:new 0 0 82 82;" xml:space="preserve">
<style type="text/css">
	.st0{fill:#FBC618;}
	.st1{fill:#969393;}
	.st2{fill:#110702;}
	.st3{fill:#F9C919;}
	.st4{fill:#8E8D8B;}
	.st5{fill:#8E8882;}
	.st6{fill:#9C9E99;}
	.st7{fill:#030003;}
	.st8{fill:#EECA45;}
	.st9{fill:#120F0D;}
	.st10{fill:#8F8481;}
	.st11{fill:#DB9C1A;}
	.st12{fill:#B2A290;}
	.st13{fill:#B1977B;}
	.st14{fill:#7E706F;}
	.st15{fill:#4C2A0F;}
	.st16{fill:#C8986E;}
	.st17{fill:#DEA154;}
	.st18{fill:#95918B;}
	.st19{fill:#BD9A7D;}
	.st20{fill:#E3BE25;}
	.st21{fill:#9A926C;}
	.st22{fill:#915A04;}
	.st23{fill:#995D41;}
	.st24{fill:#C08B36;}
	.st25{fill:#E9AB21;}
	.st26{fill:#836F51;}
	.st27{fill:#181D14;}
	.st28{fill:#1B1D15;}
	.st29{fill:#070600;}
	.st30{fill:#FBC38A;}
	.st31{fill:#140903;}
	.st32{fill:#F5B67D;}
	.st33{fill:#EB9C5F;}
	.st34{fill:#E7B995;}
	.st35{fill:#110801;}
	.st36{fill:#F8F8F2;}
	.st37{fill:#F9B57D;}
	.st38{fill:#D49720;}
	.st39{fill:#1E0F03;}
	.st40{fill:#110402;}
	.st41{fill:#E7A331;}
	.st42{fill:#F1AB71;}
	.st43{fill:#E9AE6E;}
	.st44{fill:#6C2F03;}
	.st45{fill:#5E2D02;}
	.st46{fill:#E9B789;}
	.st47{fill:#DDB691;}
	.st48{fill:#753F10;}
	.st49{fill:#9B8771;}
	.st50{fill:#A17B28;}
	.st51{fill:#DFBE9A;}
	.st52{fill:#EDEADA;}
	.st53{fill:#F8E5CA;}
	.st54{fill:#BD6A37;}
	.st55{fill:#622500;}
	.st56{fill:#CB7441;}
	.st57{fill:#CD9D54;}
	.st58{fill:#D28E5B;}
	.st59{fill:#3A1C0A;}
	.st60{fill:#280900;}
	.st61{fill:#7F4314;}
	.st62{fill:#9D672C;}
	.st63{fill:#925C2F;}
	.st64{fill:#E3A353;}
	.st65{fill:#965A21;}
	.st66{fill:#7A563C;}
	.st67{fill:#885428;}
	.st68{fill:#D9AD76;}
	.st69{fill:#53390F;}
	.st70{fill:#DAA77D;}
	.st71{fill:#7F542C;}
	.st72{fill:#361700;}
	.st73{fill:#A47A39;}
	.st74{fill:#B0743D;}
	.st75{fill:#D3AD91;}
	.st76{fill:#965828;}
	.st77{fill:#F4B886;}
	.st78{fill:#592F00;}
	.st79{fill:#94918E;}
	.st80{fill:#C0960C;}
	.st81{fill:#987801;}
	.st82{fill:#EBAD37;}
	.st83{fill:#141200;}
	.st84{fill:#C0982B;}
	.st85{fill:#E8AA1A;}
	.st86{fill:#F8BA21;}
	.st87{fill:#E9C739;}
	.st88{fill:#AF9600;}
	.st89{fill:#BCA702;}
	.st90{fill:#C8B534;}
	.st91{fill:#C09C6C;}
	.st92{fill:#E7C637;}
	.st93{fill:#F1C325;}
	.st94{fill:#7B5301;}
	.st95{fill:#E2A52A;}
	.st96{fill:#C3A893;}
	.st97{fill:#9D8363;}
	.st98{fill:#655009;}
	.st99{fill:#1A1910;}
	.st100{fill:#F8F8F4;}
	.st101{fill:#090506;}
	.st102{fill:#51504C;}
	.st103{fill:#B98752;}
	.st104{fill:#FAFAF6;}
	.st105{fill:#FBFAF7;}
	.st106{fill:#32382B;}
	.st107{fill:#F1EBEA;}
	.st108{fill:#D9DED5;}
	.st109{fill:#F0E7DB;}
	.st110{fill:#E9D4BD;}
	.st111{fill:#373E2E;}
	.st112{fill:#AEB0A1;}
	.st113{fill:#DFE2D7;}
	.st114{fill:#27311B;}
	.st115{fill:#4C5142;}
	.st116{fill:#120A03;}
	.st117{fill:#71480C;}
	.st118{fill:#342300;}
	.st119{fill:#9C9C91;}
	.st120{fill:#F0D6B8;}
	.st121{fill:#D6CBC1;}
	.st122{fill:#E8BD48;}
	.st123{fill:#545E43;}
	.st124{fill:#424B34;}
	.st125{fill:#B58D3D;}
	.st126{fill:#231301;}
	.st127{fill:#C6A065;}
	.st128{fill:#C4872E;}
	.st129{fill:#F3F3EA;}
	.st130{fill:#C7962E;}
	.st131{fill:#FCB475;}
	.st132{fill:#E6AB5A;}
	.st133{fill:#110700;}
	.st134{fill:#DCBD41;}
	.st135{fill:#7F6100;}
	.st136{fill:#EBC649;}
	.st137{fill:#684B03;}
	.st138{fill:#895A2C;}
	.st139{fill:#A1721E;}
	.st140{fill:#DDBB46;}
	.st141{fill:#322000;}
	.st142{fill:none;}
	.st143{fill:#955847;}
	.st144{fill:#C58457;}
</style>
<path d="M0,16C0,10.7,0,5.5,0,0c5,0,10,0,15.5,0.4c0.6,2.5,0.7,4.5,0.9,6.8c0,0.5,0,0.6-0.2,1.1c-0.5,0.5-0.8,0.8-1.5,0.9
	c-2.3-0.6-4.3-1-6.7-1.5c0,3.3,0,5.7-0.4,8.2C4.7,16,2.4,16,0,16z"/>
<path class="st0" d="M39,0c3.4,0,6.7,0,10.7,0.3c1.1,0.8,1.7,1.3,2.1,2.1c-1.3,2.1-2.4,3.9-3.6,5.9c-0.1,0.5-0.1,0.6-0.5,0.9
	c-1,0.1-1.6,0.2-2.6,0.1c-1.3,0.2-2.2,0.5-3.4,0.9c-3.1,1-5.9,2-9,2.9c-0.8,0-1.2-0.1-1.7-0.3c0-0.4,0-0.6,0-1s0-0.6,0-0.8
	c0,0,0,0,0.2-0.2c0.4-0.7,0.6-1.3,0.9-2.1c0.4-0.7,0.7-1.2,1.2-1.8c1.1-1,1.9-2,2.9-3.1C37.4,2.4,38.2,1.2,39,0z"/>
<path class="st1" d="M0,16.5C2.4,16,4.7,16,7.7,16.2c1.2,0.5,1.8,0.7,2.4,1.3c-0.2,1.4-0.4,2.5-0.8,3.6c-0.8,0.6-1.4,1.1-2.1,1.9
	C7,24.4,7,25.4,7,26.5c0,0,0,0-0.3,0.1c-0.7,0.2-1.1,0.3-1.8,0.5c-1.2,1.3-2.1,2.6-3.3,3.8c-0.7,0-1.1,0-1.5,0C0,26.3,0,21.6,0,16.5
	z"/>
<path class="st2" d="M48.3,8c1.1-1.8,2.3-3.5,3.8-5.8c0.6-1,0.8-1.6,0.9-2.2c3.7,0,7.4,0,11.5,0.2c0.4,0.2,0.3,0.5,0,0.5
	c-1,0.5-1.7,0.9-2.4,1.4c0,0-0.1,0.2-0.5,0.3C61,2.7,60.8,2.9,60.7,3c0.1,0,0,0.1-0.3,0.1c-1,0.6-1.6,1.2-2.3,2.1
	C58,5.6,58,5.8,57.7,6C54.8,8.8,51.7,9.3,48.3,8z"/>
<path class="st3" d="M28,0c1.7,0,3.4,0,5.6,0.3C34,0.7,34,0.8,34,1.2c0,0.2-0.1,0.7-0.3,0.9c-0.5,0.3-0.6,0.6-1,1
	c-0.7,0.7-1.2,1.3-1.9,2.1C30.3,5.9,30.1,6.4,30,7c0,0,0,0-0.2,0.1c-0.5,0.3-0.7,0.6-1.1,0.9c-0.2,0-0.7,0-1.1,0
	c-1.4,0.3-2.5,0.7-3.9,1c-0.4,0-0.6-0.1-0.9-0.3c-0.3-0.4-0.6-0.6-1.2-0.7c-0.8-0.4-1.3-0.7-1.6-1.4c0.2-0.5,0.3-0.6,0.4-0.9
	c0-0.1,0.3-0.5,0.6-0.7c1.2-0.8,2-1.5,3.2-2.2C24.7,2.5,24.8,2.2,25,2c0,0,0,0,0.3-0.1C26.4,1.2,27.2,0.6,28,0z"/>
<path class="st4" d="M6.1,73c0.9,1.1,1.8,2.3,2.8,3.7C9,77,9,77,8.8,77.2c-0.4,1-0.5,1.8-0.6,2.7C8.1,80,8,80.2,7.6,80.1
	C4.7,80,2.3,80,0,80c0-2.4,0-4.7,0.4-7.6C2,72,3.2,72,4.8,72C5.4,72.4,5.7,72.7,6.1,73z"/>
<path class="st5" d="M20.8,5.2c0,0-0.3,0.4-0.6,0.3c-1.5,0.5-2.7,1-3.8,1.5c-0.1-2-0.2-4.1-0.3-6.5C18.7,0,21.4,0,24.5,0.3
	C24.9,1.1,24.9,1.6,25,2c0,0,0,0-0.2-0.1c-0.4-0.1-0.6,0-1.1,0c-0.8,0-1.2,0.1-1.8,0.2c-0.5,0.3-0.7,0.5-0.9,1.2
	C20.8,4.2,20.8,4.7,20.8,5.2z"/>
<path class="st6" d="M4.5,72c-1.2,0-2.5,0-4.1,0C0,70.6,0,69.2,0.3,67.4C1,67,1.5,67,2,67.3c0.3,0.5,0.5,0.7,0.9,1.2
	C3.5,69.2,4,69.6,4.5,70c0,0-0.1,0-0.1,0.3C4.5,71.1,4.5,71.5,4.5,72z"/>
<path class="st7" d="M0,80.5C2.3,80,4.7,80,7.5,80.4C8,81.2,8,81.6,8,82C5.3,81.7,2.7,81.3,0,80.5z"/>
<path class="st8" d="M0,35c0-0.8,0-1.5,0.2-2.4c0.9,0,1.6,0.2,2.7,0.4c0.9-0.7,1.5-1.3,2.1-1.6c0,1.2,0,1.9,0,3
	c-0.1,0.8-0.1,1.4-0.3,2c-0.2,0-0.6,0-0.9-0.2c-1.3-0.6-2.3-0.9-3.4-1.3C0.2,34.7,0,35,0,35z"/>
<path class="st9" d="M0,45c0-1.1,0-2.1,0.4-3.6C1.2,41,1.6,41,2.5,41c0.7,0,0.9-0.1,1.2,0.4c-0.3,1.5-0.6,2.5-1.1,3.6
	c-0.5,0.3-0.6,0.5-0.9,0.8C0.9,45.5,0.5,45.3,0,45z"/>
<path class="st10" d="M8.4,82C8,81.6,8,81.2,7.9,80.4c0-0.3,0.1-0.5,0.5-0.5c1.1-0.3,1.9-0.6,2.6-0.9l0,0c0.9,0.8,1.8,1.6,2.9,2.7
	C12.3,82,10.6,82,8.4,82z"/>
<path class="st11" d="M33.9,2c0,0,0-0.5,0.3-0.8C34.7,0.6,34.9,0.3,35,0c1.1,0,2.1,0,3.6,0c-0.4,1.2-1.2,2.4-2.5,3.6
	C35.1,3,34.5,2.5,33.9,2z"/>
<path class="st12" d="M3.9,49.9c-0.2,0-0.3,0.1-1,0.1c-0.9,0.1-1.3,0.1-2,0.1C0.4,50,0.2,50,0,50c0-0.4,0-0.9,0.3-1.7
	c0.8-0.7,1.2-1,2.1-1.3c0.7,0,0.9,0,1.3-0.2c0.2-0.1,0.6,0,0.5,0.4C4.1,48.3,4,49.1,3.9,49.9z"/>
<path class="st13" d="M1.9,67.1C1.5,67,1,67,0.3,67C0,65.9,0,64.9,0.2,63.3c0.6-0.8,1-1.1,1.5-1c0.5,0.9,0.9,1.5,1.4,2.1
	c0.1,0.1,0.1,0.3-0.2,0.5C2.4,65.8,2.1,66.4,1.9,67.1z"/>
<path class="st14" d="M2.1,41c-0.5,0-0.9,0-1.8,0C0,39.6,0,38.2,0.2,36.4C0.5,36,1,36,1.2,36.1c0.4,0.4,0.7,0.7,0.7,1.3
	C1.9,38.8,2,39.9,2.1,41z"/>
<path class="st15" d="M0,60c0-1.1,0-2.1,0.2-3.6C0.5,56,0.9,56,1.1,56c0.4,0.1,0.6,0.2,0.9,0.2c0,0,0.4,0.1,0.4,0.3
	c-0.2,0.6-0.4,1-0.7,1.5c-0.4,0.7-0.6,1.2-1,1.9C0.5,59.9,0,60,0,60z"/>
<path class="st16" d="M0.9,56c0,0-0.5,0-0.7,0C0,54.3,0,52.6,0,50.4c0.2-0.4,0.4-0.4,0.9,0c0.3,1.4,0.3,2.4,0.2,3.7
	C1,55,1,55.5,0.9,56z"/>
<path class="st17" d="M64.8,0.7c0,0,0.1-0.4,0.1-0.5c0.5-0.2,1-0.2,1.7,0.1C67,0.8,67,1,67,1.3c-0.6,0.4-1.1,0.8-1.9,0.7
	C64.9,1.2,64.8,1,64.8,0.7z"/>
<path class="st18" d="M2,47c-0.5,0.3-0.9,0.6-1.7,0.9C0,47.3,0,46.5,0,45.4c0.5-0.1,0.9,0.2,1.7,0.8C2,46.7,2,46.8,2,47z"/>
<path class="st19" d="M0,60.4C0,60,0.5,60,1,59.9c0.7,0,0.9,0,1.1,0.3C1.9,61,1.7,61.5,1.6,62c-0.4,0.3-0.8,0.6-1.4,0.9
	C0,62.3,0,61.5,0,60.4z"/>
<path class="st20" d="M52.6,0c0.2,0.6,0,1.2-0.4,1.9c-0.8-0.4-1.4-0.9-2.1-1.6C50.8,0,51.5,0,52.6,0z"/>
<path class="st21" d="M2.5,33c-0.7-0.2-1.5-0.4-2.4-0.8C0,32,0,31.5,0,31.3C0.4,31,0.8,31,1.6,31.2C2.2,32,2.4,32.5,2.5,33z"/>
<path class="st22" d="M25.3,1.9C25,1.6,25,1.1,25,0.3C25.8,0,26.5,0,27.6,0C27.2,0.6,26.4,1.2,25.3,1.9z"/>
<path class="st23" d="M69.3,82c0.1-0.7,0.5-1.3,1.3-2c0.3,0.4,0.4,0.9,0.4,1.7C70.6,82,70.1,82,69.3,82z"/>
<path class="st24" d="M67.2,1.1C67,1,67,0.8,67,0.3C67,0,67.5,0,67.8,0C67.8,0.3,67.6,0.6,67.2,1.1z"/>
<path class="st25" d="M34.8,0c0.1,0.3-0.1,0.6-0.5,0.9C34,0.8,34,0.7,34,0.3C34,0,34.5,0,34.8,0z"/>
<path class="st26" d="M1,36c0,0-0.5,0-0.7,0C0,36,0,35.5,0,35.3s0.2-0.5,0.5-0.2C0.9,35.6,0.9,35.8,1,36z"/>
<path class="st27" d="M63.9,31c-1.1,0.7-2.1,1.3-3.8,1.8c-2.8,0.2-5,0.7-7.5,1.2c-0.7,0-1.1,0-1.5-0.2c-0.4-0.4-0.7-0.6-1-1
	c-0.1-0.4-0.2-0.5-0.4-1c-0.5-4.1-1-7.9-1.1-11.7c6-1.3,12.5-0.3,16.7-5.8c0.2,0.1,0.6,0.2,0.5,0.5c0,1.4,0.1,2.3,0.1,3.5
	c-0.2,1-0.1,1.8-0.3,2.9c0,0.9,0.1,1.5,0.2,2.3c0.1,0.7,0.2,1.1,0.1,1.8c-0.3,0.9-0.3,1.4-0.5,2.3C64.7,28.9,64.3,29.9,63.9,31z"/>
<path class="st28" d="M11.9,47.9c-0.4,0.3-0.9,0.6-1.8,0.8c-0.7-0.1-0.9,0-1.1,0.1c0,0-0.3-0.1-0.6-0.3c-0.6-0.6-1-1-1.4-1.9
	c0.3-3.1,0.5-5.8,0.8-8.8c0.4-1.4,0.6-2.6,1-4c0.2-0.4,0.3-0.6,0.7-0.7c1.6-0.3,3-0.7,4.7-1.1c1.2,0,1.9,0,2.7,0.4
	c-0.3,2.8-0.6,5.2-1,7.9c-0.5,1.4-0.8,2.6-1.5,3.8C13.5,45.5,12.7,46.7,11.9,47.9z"/>
<path class="st29" d="M48.2,8.3c3.5,1,6.6,0.6,9.8-2.2c1.1-0.1,1.5-0.2,2.4-0.2c1.5,0,2.5,0,3.8,0c0.4,0,0.6,0,0.8-0.1
	c0,0,0.4,0.2,0.7,0.5c0.7,0.5,1,0.7,1.3,1.2c-0.3,1.1-0.7,1.8-1.4,2.5c-1.5,0-2.6,0.1-4,0.1c-4.1,1.6-7.8,3.2-11.9,4.9
	c-0.7,0.1-1.1,0.1-1.9,0.1C46.9,15,46.4,15,46,14.6c0.2-0.8,0.4-1.2,0.7-1.6c0.6-0.3,0.9-0.7,1.6-1c0.1-1,0-1.9-0.2-2.9
	C48.1,8.9,48.1,8.7,48.2,8.3z"/>
<path class="st30" d="M24.9,63c2.3-0.7,4.6-1.7,7-2.1c2.1-0.4,4.4-0.2,7.2-0.4c2.4-0.4,4.1-0.6,6-0.7c0.8-0.2,1.3-0.4,1.8-0.7
	c-0.5,0.9-0.8,2.5-1.5,2.7c-6.1,1.8-12.2,3.4-18.3,5c-0.9,0.2-2-0.5-3-1.4c-0.1-0.5-0.1-0.8,0-1C24.5,63.7,24.7,63.4,24.9,63z"/>
<path class="st31" d="M66,10c0.3-0.7,0.7-1.5,1.3-2.6c0.8-0.4,1.2-0.3,1.6-0.3c4.5,2.1,7.7,7,6.5,11.5c-0.6,0.7-0.8,0.9-1,0.7
	c-1.2-1.3-2.3-2.3-3.5-3.5c-0.3-0.4-0.6-0.5-1.1-1c-1.4-1-2.7-1.6-3.8-2.4c0.1-0.1-0.1-0.3-0.1-0.5s-0.1-0.7,0-1
	C66,10.4,66,10.2,66,10z"/>
<path class="st32" d="M51.1,33.9c0.4,0,0.8,0,1.7,0c0.8,0.1,1,0.1,1.2,0.2c-1.1,3.9-8.2,5.7-10.9,2.7c-1.1-1.2-1.7-3-2-4.6
	c1.3,0.1,2,0.3,3.1,0.6c0.5,0,0.7,0,1.1,0.3c1,0.3,1.8,0.4,2.9,0.6c0.8,0.1,1.2,0.1,2,0.2C50.7,33.9,50.9,33.9,51.1,33.9z"/>
<path class="st33" d="M26.8,47c-4-4.2,0.9-4,2.4-5.6c1.7,1.5,3,2.9,4.6,4c3.6,2.5,2.5,3.8-1.5,4.4c-0.8-0.4-1-0.6-1.5-1.1
	C29.4,47.9,28.1,47.5,26.8,47z"/>
<path class="st34" d="M74.5,19.6c0.2-0.2,0.4-0.4,1-0.7c0.5,6-5.4,12.5-11.3,12.2c0.1-1.2,0.5-2.2,1.3-3.4c1.8-1,3.1-1.9,4.5-2.7
	c0,0,0,0,0.2-0.1c0.5-0.3,0.7-0.6,1.1-1c0.7-0.4,1.1-0.7,1.8-1.1c0.3-0.2,0.4-0.3,0.4-0.4c-0.1-0.2-0.3-0.4-0.4-0.8
	C73.5,20.8,74,20.2,74.5,19.6z"/>
<path class="st35" d="M21,23c0.3,1.4,0.7,2.8,0.6,4.8c-0.9,0.8-1.5,1.1-2.3,1.3c-0.6-0.7-0.9-1.3-1.3-2.2c-0.7-0.8-1.4-1.3-2.4-1.7
	c-1.4,0.4-2.4,0.7-3.6,0.7c-0.1-0.7-0.2-1-0.2-1.5c0.4-0.9,0.8-1.6,1.5-2.3c1.4-0.5,2.5-0.9,3.9-1.2c0.7,0.2,1.1,0.3,1.6,0.3
	c0,0,0-0.1,0.1,0.2c0.4,0.4,0.7,0.6,1.1,1C20.3,22.9,20.6,23,21,23z"/>
<path class="st36" d="M18.1,27.2c0.3,0.6,0.7,1.1,1.3,2.1c0.5,0.9,0.7,1.4,0.9,2.3c0.2,1.7,0.4,3.1,0.6,4.4c-0.4-0.1-0.6,0-0.7,0.9
	C20,38,20,38.5,20,38.9c-0.2,0.3-0.4,0.5-1.2,0.9C17.6,40,16.9,40,16.2,40c0.3-2.4,0.6-4.8,1.1-7.8c0.3-1.5,0.4-2.3,0.7-3.4
	C18.1,28.1,18.1,27.6,18.1,27.2z"/>
<path class="st37" d="M1.9,57.8c0.2-0.4,0.3-0.8,0.6-1.4c4.3,1.3,5.6,6.8,1.9,9.3c-0.7-0.5-1-0.8-1.3-1c0,0,0-0.2-0.1-0.8
	c-0.2-1.8-0.4-3-0.5-4.5C2.3,58.6,2.1,58.2,1.9,57.8z"/>
<path class="st38" d="M33,13.1c2.8-1,5.5-2,8.7-2.7c0.3,0.7,0.3,1.1,0,1.6c-0.8,0.7-1.3,1.4-2.1,1.9c-0.8,0-1.2,0.1-1.7,0.1
	c-1.4,0.3-2.8,0.6-4.5,0.6C33,14,33,13.6,33,13.1z"/>
<path class="st39" d="M40.5,30L40,29.8c0,0-0.5,0.1-0.8-0.3C39,28,38.9,27,38.9,25.9c0.5-1.2,1-2.3,2-3.7c1.1,0.2,1.6,0.6,2.2,1.3
	c-0.7,2.4-1.5,4.4-2.3,6.3C40.7,29.8,40.5,30,40.5,30z"/>
<path class="st40" d="M43.1,23.2c-0.5-0.4-1.1-0.8-2-1.2c0-0.8,0.4-1.5,1-2.8s0.9-2,1.5-2.8c0.2-0.1,0.4-0.3,0.3-0.2
	c-0.1,0.1,0.1,0.4,0.1,0.7c0.6,0.9,1.2,1.6,1.9,2.5c0.1,0.4,0.2,0.6,0,0.9C44.8,21.3,43.9,22.2,43.1,23.2z"/>
<path class="st41" d="M32.7,13.1C33,13.6,33,14,33,14.8c-1,1-2.1,1.7-3.8,2.3c-1-0.2-1.2-0.3-1.4-0.5c0-0.2,0.1-0.5,0.4-0.7
	c0.5-0.4,0.7-0.7,0.9-1.3c0-0.8,0-1.2,0.2-1.7c0.2,0,0.6,0,0.9,0c0.5,0,0.7,0,0.9,0C31.4,13,31.9,13,32.7,13.1z"/>
<path class="st42" d="M47.2,56.1c-2.4-2.5-0.9-4.2,1.3-5.2c0.1,2,0,3.5-0.2,5C47.8,56,47.5,56.1,47.2,56.1z"/>
<path class="st43" d="M64,5.8c-1.1,0-2.1,0-3.8-0.2c-1.1-0.4-1.6-0.6-2.1-0.7c0.6-0.6,1.2-1.2,2.1-1.9c0.5,0,0.4,0,0.4,0
	c0.2-0.2,0.5-0.3,1.1-0.6c0.8,0.8,1.3,1.6,2,2.7C64,5.4,64,5.8,64,5.8z"/>
<path class="st44" d="M20.6,59.3c0.2,1,0.3,1.9,0.6,3.6c0.1,1.2,0,1.7-0.1,2.2c-0.7-1.7-1.3-3.4-1.7-5.4
	C20,59.3,20.3,59.3,20.6,59.3z"/>
<path class="st45" d="M48.5,55.9c0-1.5,0.1-3,0.3-5c0.9,1.4,5.1,2.1,1.3,5.1C49.1,55.9,48.8,55.9,48.5,55.9z"/>
<path class="st46" d="M43.4,16.4c-0.3,0.7-0.7,1.5-1.3,2.4c-0.9-0.6-1.5-1.3-2.1-2.6c0-0.5,0-0.9,0.3-1c0.8-0.1,1.2-0.2,1.9-0.1
	c0.4,0.1,0.6,0.2,0.8,0.5C43.2,16.1,43.3,16.3,43.4,16.4z"/>
<path class="st47" d="M7,47.1c0.4,0.4,0.8,0.9,1.3,1.5c-1.1,0.6-2.3,1-4,1.3c-0.3-0.8-0.2-1.6,0.3-2.7C5.6,47,6.3,47,7,47.1z"/>
<path class="st48" d="M44.9,59.7c-1.7,0.2-3.4,0.4-5.3,0.8c1.4-0.7,3-1.6,5-2.2C45,59,44.9,59.4,44.9,59.7z"/>
<path class="st49" d="M54.4,34.1c-0.6,0-0.8,0-1.3-0.2c1.9-0.5,4.2-1,6.6-1.2C58.3,33.3,56.5,33.7,54.4,34.1z"/>
<path class="st50" d="M27.7,16.7c0.2,0.1,0.5,0.2,1.1,0.3c-0.3,0.9-1.1,1.7-2.2,2.3C26.3,19,26,19,25.9,18.7
	c-0.4-1.1-0.7-1.8-0.6-2.6c0.8-0.1,1.3-0.2,1.8-0.1C27.3,16.4,27.5,16.6,27.7,16.7z"/>
<path class="st51" d="M12.2,47.9c0.5-1.2,1.3-2.5,2.6-3.8c0.8-0.1,1-0.1,1.2-0.1C14.9,45.3,13.7,46.6,12.2,47.9z"/>
<path class="st52" d="M43.9,32.8c-0.7-0.2-1.5-0.4-2.5-0.7c-0.4-0.6-0.5-1-0.7-1.8c-0.2-0.3,0-0.5,0.5-0.4c1.3,0.7,2.1,1.4,2.9,2.2
	C44,32.3,43.9,32.8,43.9,32.8z"/>
<path class="st53" d="M16,43.7C15.8,44,15.6,44,15.2,44c0.1-1.1,0.4-2.2,0.9-3.7c0.8-0.3,1.5-0.3,2.5-0.4C18,41.1,17,42.2,16,43.7z"
	/>
<path class="st54" d="M31.1,49c0.3,0.2,0.5,0.4,0.9,0.9c-1.2,0.1-2.5,0-3.5-0.5C29.6,49,30.3,49,31.1,49z"/>
<path class="st55" d="M1.2,53.9c0-1,0-2,0-3.4C1.6,50.1,2,50,2.6,50c0.3,1.1,0.3,2.1,0,3.6C2,53.9,1.6,53.9,1.2,53.9z"/>
<path class="st56" d="M30.9,48.7C30.3,49,29.6,49,28.4,49c-0.7-0.5-1.1-0.9-1.5-1.7C28.1,47.5,29.4,47.9,30.9,48.7z"/>
<path class="st57" d="M2.9,64.9c0.5,0,0.8,0.3,1.1,0.8c0.1,0.4,0,0.6-0.2,1.2C3.3,67.6,3,67.8,2.7,68c-0.2,0-0.4-0.2-0.7-0.7
	C2.1,66.4,2.4,65.8,2.9,64.9z"/>
<path class="st58" d="M21.5,65.1c-0.3-0.5-0.2-1-0.1-1.9c0.7-0.3,1.4-0.3,2.4,0.2c0.3,0.6,0.3,0.9,0.2,1.1c0,0,0.1,0.3,0.1,0.5
	C23.3,65.2,22.6,65.2,21.5,65.1z"/>
<path class="st59" d="M20.2,31.2c-0.2-0.5-0.4-1-0.6-1.7c0.6-0.6,1.1-0.9,2-1.4c0.3,0.6,0.4,1.4,0,2.5
	C20.8,31.2,20.5,31.2,20.2,31.2z"/>
<path class="st60" d="M20.2,31.6c0.3-0.4,0.6-0.5,1.3-0.6c0.3,1.5,0.1,3-0.4,4.8C20.6,34.7,20.4,33.4,20.2,31.6z"/>
<path class="st61" d="M48.3,55.9c0.5,0,0.8,0,1.5,0.2c-0.4,0.7-1.3,1.4-2.4,1.8C47,57.4,47,57.2,47,57c0,0,0.1-0.4,0.2-0.6
	C47.5,56.1,47.8,56,48.3,55.9z"/>
<path class="st62" d="M2.9,68.5c0.2-0.6,0.6-0.8,1-1.2c0.3,0.6,0.6,1.4,0.7,2.5C4,69.6,3.5,69.2,2.9,68.5z"/>
<path class="st63" d="M46.7,57c0.3,0.1,0.3,0.3,0.4,0.9c0,0.3,0,0.8,0,1c-0.5,0.5-1.1,0.7-1.8,0.9C44.9,59.4,45,59,45,58.4
	C45.4,57.8,45.9,57.5,46.7,57z"/>
<path class="st64" d="M40,15.3c0,0,0,0.4,0,0.6c-0.7-0.2-1.3-0.7-2.1-1.4c0.4-0.3,0.8-0.4,1.6-0.1C40,14.9,40,15.1,40,15.3z"/>
<path class="st65" d="M4.8,72c-0.3-0.5-0.4-1-0.3-1.8c0.7,0.6,1.5,1.5,1.9,2.6C5.7,72.7,5.4,72.4,4.8,72z"/>
<path class="st66" d="M38.6,26.1C38.9,27,39,28,39,29.5C38.8,28.7,38.6,27.5,38.6,26.1z"/>
<path class="st67" d="M1.1,54.2C1.6,53.9,2,53.9,2.6,54c0.2,0.6,0.1,1.1-0.3,2c-0.5,0.3-0.8,0.2-1.2,0.1C1,55.5,1,55,1.1,54.2z"/>
<path class="st68" d="M21.2,22.9c-0.6,0.1-0.9,0-1.2-0.8c-0.1-0.7,0-0.9,0.3-1.1c0.5,0,0.7-0.1,1.1,0c0.4,0.2,0.5,0.3,0.6,0.4
	C21.8,21.8,21.6,22.3,21.2,22.9z"/>
<path class="st69" d="M22.3,21.3c-0.4-0.1-0.5-0.2-0.9-0.7c-0.4-0.7-0.5-1.1-0.2-1.5c0.8-0.1,1.3-0.1,1.9,0.2c0,0.2,0.1,0.7,0.1,1
	c0,0.5,0,0.7,0,0.9C22.8,21.2,22.7,21.2,22.3,21.3z"/>
<path class="st70" d="M69,6.8C68.5,7,68.1,7,67.3,7.1C66.7,7,66.4,6.8,66,6.3C66.3,6,66.8,6,67.9,6C68.5,6,69,6,69,6
	C69,6.2,69,6.4,69,6.8z"/>
<path class="st71" d="M9,77c0.7,0.4,1.3,0.9,2,1.6c0,0.3,0,0.4-0.3,0.3C10,78.2,9.5,77.6,9,77L9,77z"/>
<path class="st72" d="M23,20c0,0,0-0.4,0.2-0.7c0.5-0.3,0.6-0.3,1.2-0.3c0.7,0,1.2,0,1.6,0c0,0,0.3,0,0.4,0
	c-0.2,0.6-0.6,1.3-1.7,1.6C23.6,20.2,23.3,20.1,23,20z"/>
<path class="st73" d="M64.5,0.7c0.4,0.2,0.4,0.5,0.5,1c-0.7,0.4-1.4,0.4-2.5,0.4C62.8,1.6,63.4,1.2,64.5,0.7z"/>
<path class="st74" d="M20.6,59c-0.3,0.3-0.6,0.3-1.1,0.2C19.7,59.1,20.2,58.9,20.6,59z"/>
<path class="st75" d="M20.2,38.8C20,38.5,20,38,20,37.2C20.2,37.5,20.3,38.1,20.2,38.8z"/>
<path class="st76" d="M24.2,64.3c-0.2,0-0.1-0.2-0.1-0.8c0-0.4,0.4-0.4,0.6-0.4C24.7,63.4,24.5,63.7,24.2,64.3z"/>
<path class="st77" d="M64.2,5.9C64,5.8,64,5.4,64,5.2c0.3-0.1,0.5,0,0.9,0.4C64.8,5.9,64.7,5.9,64.2,5.9z"/>
<path class="st77" d="M68.9,5.9C69,6,68.5,6,68.3,6C68.3,5.9,68.6,5.8,68.9,5.9z"/>
<path class="st47" d="M9,49c0.1-0.3,0.3-0.3,0.7-0.2C9.7,49,9.4,49.1,9,49z"/>
<path class="st78" d="M23,20.3c0.3-0.2,0.6,0,1.2,0.4c0,0.5-0.4,0.6-1,0.6C23,20.9,23,20.7,23,20.3z"/>
<g>
	<path class="st23" d="M71.3,79.9c3.9-3.7,7.4-7.4,10.7-11.2v-1.1C76.6,70.3,71.9,73.3,71.3,79.9z"/>
</g>
<path class="st79" d="M10.1,17.2c-0.6-0.3-1.2-0.5-1.9-1C7.9,13.4,7.9,11,7.9,7.7c2.5,0.5,4.4,0.9,6.7,1.9c0.3,1.2,0.3,1.9,0.2,2.6
	c0,0,0,0-0.2,0s-0.5,0-0.8,0c0,0.8,0.3,1.5,0.6,2.3c0,0.1,0,0.3-0.3,0.5c-0.8,0.7-1.4,1.2-2.4,1.9C11,17,10.6,17.1,10.1,17.2z"/>
<path class="st80" d="M14.9,12.2c0.1-0.7,0.1-1.4,0.2-2.4c0.3-0.6,0.6-0.9,1.4-1.4c0.9-0.2,1.3-0.2,1.6,0.1
	C16.9,9.9,15.9,11,14.9,12.2z"/>
<path class="st81" d="M18.1,8.1c-0.4,0-0.8,0-1.5,0c-0.3-0.2-0.2-0.4-0.3-0.8c1.1-0.8,2.3-1.3,3.8-1.6c0.2,0.3,0.1,0.5-0.4,1.1
	C19,7.5,18.5,7.8,18.1,8.1z"/>
<path class="st82" d="M28,8c0,0,0.5,0,0.9-0.1C29.6,7.5,29.8,7.2,30,7c0,0,0,0,0.3-0.2C30.6,6.1,30.8,5.5,31,5
	c0.5-0.6,0.9-1.2,1.7-1.5C33,4.9,33,6,33,7.1c-0.3,0.5-0.5,1-1.2,1.9c-0.5,1-0.7,1.5-0.9,2.1c0,0,0,0-0.3,0c-0.4,0-0.6,0-1,0
	s-0.6,0-1,0.1c-0.7,0.6-1.1,1.1-1.8,1.7C26,13,25.6,13,24.9,13c-0.2,0-0.7-0.1-0.7-0.4c-0.1-0.7-0.2-1.1-0.3-1.7
	c0.1-0.6,0.1-0.7,0.1-1c0,0,0.1-0.1,0.4-0.1C25.8,9.3,26.9,8.6,28,8z"/>
<path class="st25" d="M33.3,6.9C33,6,33,4.9,32.9,3.4c0.1-0.7,0.3-0.9,0.8-1.3c0.8,0.4,1.4,0.9,2.2,1.7C35.2,5,34.4,5.9,33.3,6.9z"
	/>
<path class="st83" d="M47.7,9.2c0.5,0.9,0.7,1.8,0.2,2.8c-1.3-0.3-2-0.6-2.7-1.1c0.1-0.7,0.1-1,0.1-1.4C46.1,9.3,46.8,9.3,47.7,9.2z
	"/>
<path class="st84" d="M45.1,9.3c0.3,0.5,0.3,0.9,0.1,1.5C45.1,11,44.9,11,44.7,11c-0.2,0.2-0.4,0.3-0.4,0.3c0,0.2,0.1,0.4,0.2,0.9
	c0,0.2,0,0.7-0.3,0.7c-1,0-1.6,0-2.3-0.2c0-0.4,0-0.6,0-0.7c0-0.4,0-0.8,0.1-1.5C42.9,9.8,43.9,9.5,45.1,9.3z"/>
<path class="st85" d="M31.2,10.8c-0.1-0.4,0.1-0.9,0.5-1.6C31.8,9.6,31.6,10.1,31.2,10.8z"/>
<path class="st85" d="M29.9,11c0.2,0,0.3,0,0.8,0c0.3,0.2,0.3,0.3,0,0.8C30.3,12,30.1,12,29.9,12c0,0,0,0,0-0.3
	C29.9,11.3,29.9,11.2,29.9,11z"/>
<path class="st86" d="M29.9,12c0.2,0,0.4,0,0.8,0c0.3,0.2,0.3,0.3,0.3,0.7c-0.2,0.2-0.4,0.2-0.9,0C29.9,12.5,29.9,12,29.9,12z"/>
<path class="st87" d="M13,22.1c-0.4,0.7-0.8,1.3-1.4,2.4c-0.5,0.7-0.7,1-1.1,1.5c-0.7,0.7-1.1,1.3-1.6,2c-0.2,0.1-0.5,0.1-0.9,0.1
	C7.4,28,7.2,28,7,27.6c0-0.6,0-0.8,0-1.1c0,0,0,0,0.3-0.3c0.2-1.4,0.1-2.5,0-3.6c0.6-0.5,1.2-1,2.3-1.6c1.5-0.1,2.5-0.1,3.4,0.2
	C13,21.7,13,21.9,13,22.1z"/>
<path class="st88" d="M2.9,33c-0.5-0.5-0.6-1-0.9-1.8c0.8-1.5,1.6-2.7,2.9-3.9c0.6,0.4,0.9,0.6,1.1,0.9c-0.3,0.8-0.6,1.3-0.9,2
	C5.1,30.5,5,31,5,31C4.4,31.6,3.8,32.3,2.9,33z"/>
<path class="st80" d="M13,21c-1,0-1.9,0-3.2,0c-0.1-1.1,0-2.1,0.2-3.5c0.5-0.4,1-0.5,1.9-0.4c1,0.4,1.5,0.6,2.1,1.1
	c0.1,0.2,0,0.7-0.1,1C13.6,19.9,13.3,20.4,13,21z"/>
<path class="st89" d="M7.1,23c0.2,0.8,0.3,1.9,0.1,3.3C7,25.4,7,24.4,7.1,23z"/>
<path class="st90" d="M6.1,28c-0.3-0.1-0.6-0.3-0.8-0.8c0.3-0.3,0.7-0.5,1.4-0.6C7,26.8,7,27,6.8,27.6C6.5,28,6.1,28,6.1,28z"/>
<path class="st91" d="M58.1,5.2c0.6-0.1,1.1,0.1,1.8,0.4C59.6,5.9,59.2,6,58.4,6C58,5.8,58,5.6,58.1,5.2z"/>
<path class="st17" d="M60.7,3C60.6,3,60.7,3,60.7,3S60.8,2.9,60.7,3z"/>
<path class="st92" d="M18,8.4c0.5-0.6,1-1,1.7-1.4c0.7,0.2,1.2,0.6,2.1,1.2c0.6,0.5,0.9,0.6,1.2,0.7c0.2,0,0.3,0,0.8,0.3
	c0.3,0.2,0.3,0.6,0.3,0.6S24,9.9,23.7,9.9c-1.5,0.3-2.6,0.7-4,1.1c-0.7,0.4-1.1,0.7-1.8,1.2c-0.5,0.5-0.7,0.8-1,1.1c0,0,0,0.1-0.4,0
	c-0.7-0.2-1-0.2-1.4-0.3c0,0,0-0.1,0-0.2c0-0.2-0.1-0.5-0.1-0.5l0,0C15.9,11,16.9,9.9,18,8.4z"/>
<path class="st93" d="M24.4,9.9C24.1,9.8,24,9.4,24,9.2c1.1-0.5,2.2-0.9,3.6-1.2C26.9,8.6,25.8,9.3,24.4,9.9z"/>
<path class="st94" d="M21,5c-0.3-0.3-0.3-0.9,0.1-1.8C21.7,2.6,21.9,2.3,22,2c0.4,0,0.9-0.1,1.6,0.2C24,2.4,24,2.9,24,2.9
	C23.1,3.5,22.2,4.2,21,5z"/>
<path class="st95" d="M30.8,5.2c0.1,0.4-0.1,0.9-0.6,1.6C30.1,6.4,30.3,5.9,30.8,5.2z"/>
<path class="st22" d="M24.2,2.8C24,2.9,24,2.4,24,2.1c0.2-0.3,0.3-0.3,0.8-0.3C24.8,2.2,24.7,2.5,24.2,2.8z"/>
<path class="st95" d="M29.7,7.1c0,0.2-0.2,0.4-0.6,0.8C29.1,7.7,29.3,7.4,29.7,7.1z"/>
<path class="st93" d="M22.9,8.7c-0.2,0.1-0.5,0-0.8-0.5C22.3,8.1,22.5,8.3,22.9,8.7z"/>
<path class="st96" d="M8.8,77.2c0.7,0.4,1.2,1,2,1.7c-0.5,0.4-1.2,0.7-2.2,0.9C8.3,79,8.4,78.2,8.8,77.2z"/>
<path class="st97" d="M21.8,2.1c0.1,0.2,0,0.5-0.6,0.7C21.1,2.6,21.3,2.3,21.8,2.1z"/>
<path class="st98" d="M4.9,36.4c0-0.6,0.1-1.1,0.4-2.3c0.6-1.3,0.8-1.9,1.5-2.2c0.6,1,0.8,1.7,0.8,2.7c-0.6,1.1-1,2-1.5,2.9
	c-0.1,0-0.4-0.1-0.6-0.3C5.1,36.7,5,36.5,4.9,36.4z"/>
<path class="st98" d="M1.2,36.1c-0.3-0.3-0.4-0.5-0.6-1c0.9,0.1,1.9,0.4,3.1,1.4c0.2,1,0.2,1.3-0.1,1.5c-0.7-0.4-1.2-0.6-1.6-0.9
	C1.9,36.9,1.7,36.6,1.2,36.1z"/>
<path class="st87" d="M6.3,31.5c-0.2,0.6-0.4,1.2-1,2.2C5,33.3,5,32.6,5,31.4c0-0.4,0.1-0.9,0.4-0.9C5.8,30.7,6,31,6.3,31.4V31.5z"
	/>
<path class="st99" d="M4,38.2c0-0.3,0-0.6,0-1.3c0-0.4,0.4-0.5,0.6-0.5c0.3,0.2,0.4,0.4,0.7,1.1C5.2,38.4,5,38.7,4.6,39
	C4.2,38.6,4.1,38.4,4,38.2z"/>
<path class="st100" d="M4.8,39c0.2-0.3,0.5-0.7,0.8-1.3c0-0.3,0.3-0.2,0.7,0C7,37.9,7.4,38,7.8,38.1c-0.2,2.7-0.5,5.4-0.7,8.5
	C6.3,47,5.6,47,4.6,46.9c-0.3-0.1-0.7-0.2-1-0.4C3.2,45.8,3,45.4,2.8,45c0.3-1.1,0.6-2.1,1.1-3.7C4.3,40.1,4.6,39.5,4.8,39z"/>
<path class="st101" d="M4.6,38.9c-0.1,0.6-0.3,1.2-0.7,1.9C3.5,40.9,3.2,41,2.5,41C2,39.9,1.9,38.8,2,37.4c0.6,0,1.1,0.3,1.8,0.7
	C4.1,38.4,4.2,38.6,4.6,38.9z"/>
<path class="st102" d="M2.6,45c0.4,0.4,0.6,0.8,0.9,1.6C3.3,47,3,47,2.4,47C2,46.8,2,46.7,2,46.2C2,45.5,2.1,45.3,2.6,45z"/>
<path class="st103" d="M2.6,59.8c0.1,1.2,0.3,2.4,0.4,4c-0.4-0.1-0.8-0.6-1.3-1.5c0-0.8,0.1-1.2,0.4-2.1C2.3,59.8,2.6,59.8,2.6,59.8
	z"/>
<path class="st71" d="M2.6,59.4c0,0.4-0.3,0.4-0.4,0.4c-0.3,0-0.5,0-1,0c-0.1-0.6,0.1-1.2,0.5-1.9C2.1,58.2,2.3,58.6,2.6,59.4z"/>
<path class="st104" d="M72.9,23c-0.4,0.3-0.9,0.6-1.8,1.1c-0.8,0.4-1,0.6-1.1,0.9c0,0,0,0-0.3,0c-1.4,0-2.5,0-3.6-0.1
	c-0.1-0.4-0.3-0.8-0.1-1.7c0.4-1.1,0.5-1.7,0.8-2.5c-0.1-1.1-0.4-1.9-0.7-2.8c-0.1-1-0.2-2-0.1-3.6c0.2-1.1,0.1-1.5,0-1.9
	c1.3,0.7,2.5,1.3,4,2.5c0.4,0.8,0.7,1,1,1c1.2,1,2.3,2,3.5,3.3c-0.4,0.9-0.9,1.5-1.5,2.7C72.9,22.6,72.9,22.8,72.9,23z"/>
<path class="st105" d="M44,31.8c-0.8-0.6-1.6-1.3-2.8-1.9c0.4-2,1.1-4,1.8-6.4c0.9-1.3,1.7-2.2,3.1-3.3c0.9-0.1,1.3-0.1,1.7-0.1
	c0.1,0,0.2-0.2,0.2-0.2c0.5,3.8,0.9,7.6,1.2,11.7c-0.6,0.9-1,1.4-1.4,1.9c-0.8-0.1-1.6-0.1-2.7-0.6C44.6,32.3,44.3,32,44,31.8z"/>
<path class="st106" d="M65.6,10c0.4,0.2,0.4,0.4,0.2,1c-0.5,0.7-0.5,0.9-0.3,1.5c-0.2,0.7-0.3,1.1-0.4,1.5c-4,5.6-10.5,4.6-16.5,5.9
	C48.1,20,48,20.2,48,19.8c-0.4-1-0.7-1.6-1-2.5c0.4-0.9,0.9-1.5,1.3-2.1c0.4,0,0.8-0.1,1.9-0.1c8.7,2.3,11.4,1.1,11.8-4.9
	C63,10.1,64.1,10.1,65.6,10z"/>
<path class="st107" d="M65.8,25.3c1.4-0.3,2.5-0.3,3.9-0.3c-1,0.8-2.4,1.6-4,2.4C65.4,26.7,65.5,26.1,65.8,25.3z"/>
<path class="st108" d="M65.8,18.2c0.5,0.6,0.8,1.5,0.7,2.4c-0.4,0.2-0.8,0.1-0.8,0.1C65.7,20,65.6,19.2,65.8,18.2z"/>
<path class="st109" d="M48.2,33.7c0.1-0.6,0.5-1.1,1.2-1.7c0.4,0.1,0.4,0.3,0.6,0.9c0,0.5,0,0.9,0,0.9C49.5,33.8,49,33.8,48.2,33.7z
	"/>
<path class="st1" d="M65.5,21.2c0.2-0.4,0.6-0.4,0.8-0.2c0.1,0.7-0.1,1.3-0.4,2.1C65.6,22.6,65.5,22.1,65.5,21.2z"/>
<path class="st108" d="M65.2,14.1c-0.1-0.5,0-0.9,0.3-1.6c0.2-0.2,0.4-0.5,0.4-0.5s0.2,0.2,0.1,0.3c0,0.5,0,0.9,0,1.6
	C65.8,14.3,65.4,14.3,65.2,14.1z"/>
<path class="st110" d="M50.2,33.9c-0.3-0.1-0.3-0.5-0.2-0.7c0.3-0.1,0.6,0.1,1,0.5C50.9,33.9,50.7,33.9,50.2,33.9z"/>
<path class="st111" d="M9,27.9c0.4-0.6,0.8-1.2,1.6-1.7c0.7,0.4,1.1,0.7,1.4,1.3c1,1.1,2,1.8,2.8,2.7C14.5,31,14.3,31.5,14,32
	c-1.4,0.4-2.7,0.8-4.4,0.8c-0.1-0.9,0.1-1.6,0.3-2.6C9.6,29.2,9.3,28.6,9,27.9z"/>
<path class="st112" d="M10,30.6c-0.2,0.6-0.4,1.3-0.6,2.2c-0.1,0.4-0.2,0.6-0.6,1.1c-0.5,0.4-0.7,0.4-1,0.3c-0.2-0.7-0.4-1.4-1-2.4
	c-0.5-0.3-0.5-0.4-0.4-0.5c0.1,0,0.2-0.1,0.5,0.3C8,31.6,9,31.1,10,30.6z"/>
<path class="st113" d="M7.5,34.5c0.5-0.2,0.7-0.2,1.1-0.3c-0.1,1.1-0.4,2.2-0.7,3.6C7.4,38,7,37.9,6.4,37.6
	C6.5,36.5,6.9,35.6,7.5,34.5z"/>
<path class="st114" d="M14.4,32c-0.1-0.5,0.1-1,0.7-1.9c0.6-0.6,0.7-0.9,1.2-1.2c0.7,0,1.1,0.1,1.6,0.1c-0.1,0.8-0.2,1.6-0.6,2.7
	C16.3,32,15.5,32,14.4,32z"/>
<path class="st115" d="M61.5,10.1c-0.1,6.1-2.7,7.3-11.2,4.9C53.7,13.4,57.4,11.7,61.5,10.1z"/>
<path class="st116" d="M47.8,15.1c0,0.7-0.5,1.3-1,2.5c-0.4,0.9-0.7,1.1-1,1.4c-0.6-0.6-1.2-1.3-1.6-2.4c0.7-0.9,1.1-1.3,1.6-1.7
	C46.4,15,46.9,15,47.8,15.1z"/>
<path class="st117" d="M46,14.6c-0.6,0.7-1,1.1-1.7,1.7c-0.2,0.2-0.4-0.1-0.4-0.4c-0.2-0.7-0.5-0.7-0.9-0.6c-0.2,0-0.3-0.1-0.8-0.6
	C42,13.9,42,13.4,42,13c0.7,0,1.3-0.1,2.7,0c1.1,0.1,1.4,0.1,1.7,0.1C46.3,13.5,46.2,13.9,46,14.6z"/>
<path class="st118" d="M46.7,13c-0.5,0-0.9,0-1.6,0c-0.5,0-0.4-0.5-0.3-1c0.1-0.7,0.1-0.8,0.2-1c0,0,0.2,0,0.3,0.1
	c0.8,0.3,1.5,0.6,2.5,0.9C47.6,12.3,47.3,12.7,46.7,13z"/>
<path class="st119" d="M65.9,11.8c0,0.2-0.2,0.5-0.4,0.4c-0.4-0.3-0.4-0.6,0.1-1C65.9,11.2,66,11.6,65.9,11.8z"/>
<path class="st108" d="M70.9,15.8c-0.3,0.3-0.6,0.1-0.9-0.4C70.3,15.2,70.6,15.4,70.9,15.8z"/>
<path class="st120" d="M44,32.1c0.3,0,0.6,0.2,1,0.6c-0.1,0.2-0.3,0.2-0.7,0.2C43.9,32.8,44,32.3,44,32.1z"/>
<path class="st121" d="M73.1,22.9c-0.2-0.1-0.2-0.3-0.1-0.7c0.2-0.1,0.4,0.1,0.5,0.3C73.5,22.6,73.3,22.7,73.1,22.9z"/>
<path class="st107" d="M70.2,24.9c-0.1-0.2,0.1-0.5,0.6-0.8C70.9,24.3,70.7,24.6,70.2,24.9z"/>
<path class="st122" d="M13,21.3c0.3-0.8,0.6-1.3,1.3-2.2c0.9-0.9,1.5-1.4,2.3-1.8c1.6,0.7,2.8,1.3,4.1,2c0.1,0.4,0.2,0.7,0.3,1.4
	c0,0.2-0.2,0.2-1,0.3s-1,0.1-1.2,0.2c0,0,0,0.1,0-0.2c-0.7-0.2-1.2-0.2-1.8-0.2c-1.1,0.4-2.2,0.8-3.6,1.3C13,21.9,13,21.7,13,21.3z"
	/>
<path class="st123" d="M16,28.9c-0.1,0.3-0.3,0.6-0.8,0.9c-1.2-0.6-2.2-1.3-3.1-2.5c0-0.6,0.1-1,0.1-1c1.1-0.3,2.1-0.7,3.5-0.7
	C16,26.9,16,27.9,16,28.9z"/>
<path class="st124" d="M16.3,29C16,28,16,26.9,16,25.6c0.7,0.1,1.4,0.5,2.1,1.4c0,0.8,0,1.2-0.1,1.9C17.4,29,17,29,16.3,29z"/>
<path class="st125" d="M17.3,20.9c0.3-0.2,0.9-0.2,1.5,0.1C18.4,21.2,18,21.1,17.3,20.9z"/>
<path class="st126" d="M12.1,25.9c0.1,0.4,0.1,0.8,0,1.1c-0.4-0.1-0.7-0.3-1.2-0.8c0-0.6,0.2-0.9,0.7-1.3
	C11.9,24.9,11.9,25.2,12.1,25.9z"/>
<path class="st127" d="M18.9,21.4c0.1-0.3,0.3-0.4,0.8-0.4c0.3,0.2,0.3,0.4,0.2,0.9C19.6,22,19.3,21.8,18.9,21.4z"/>
<path class="st128" d="M42,12.7c0,0.7,0,1.2,0,2c-0.4,0.4-0.9,0.4-1.6,0.5C40,15.1,40,14.9,40,14.4c0.5-0.9,1-1.5,1.7-2.3
	C42,12.1,42,12.3,42,12.7z"/>
<path class="st129" d="M45.9,19.3c0.2-0.5,0.5-0.8,0.9-1.4c0.5,0.3,0.8,0.9,1,1.9c-0.4,0.4-0.8,0.3-1.4,0.3
	C46.1,19.8,46,19.7,45.9,19.3z"/>
<path class="st64" d="M43.1,15.6c0.3-0.5,0.6-0.4,0.9,0.2c0.1,0.2-0.2,0.5-0.4,0.6C43.3,16.3,43.2,16.1,43.1,15.6z"/>
<path class="st130" d="M29.9,12c0,0,0,0.5-0.1,0.7c0,0.2-0.4,0.2-0.8,0.2s-0.9,0-1.1,0s-0.7-0.1-0.7-0.1c0.4-0.5,0.8-1.1,1.6-1.5
	C29.4,11.7,29.6,11.9,29.9,12L29.9,12z"/>
<path class="st131" d="M27.8,16.5c-0.3,0.1-0.4-0.1-0.6-0.8c0.1-0.8,0.3-1.1,0.6-1.3c0,0.2,0.2,0.6,0.2,0.8s0,0.7,0,0.7
	S27.8,16.4,27.8,16.5z"/>
<path class="st85" d="M27.9,15.1c0,0-0.1-0.4-0.1-0.9c0.1-0.8,0.2-1,0.2-1.2c0,0,0.5,0,0.7,0c0.2,0.4,0.2,0.9-0.1,1.7
	C28.3,15,28.1,15,27.9,15.1z"/>
<path class="st86" d="M27.9,15.3c0.2-0.3,0.4-0.3,0.8-0.3c0.1,0.3-0.1,0.5-0.6,0.9C27.9,16,27.9,15.5,27.9,15.3z"/>
<path class="st132" d="M27.8,12.9c0.2,0.3,0.1,0.5,0,1.1c-0.3,0.7-0.5,1.1-0.7,1.6c-0.5,0.3-0.9,0.4-1.8,0.5c-0.4,0-0.4,0-0.4-0.4
	c0.1-1.2,0.2-1.9,0.2-2.7c0.4,0,0.9,0,1.7-0.1C27.2,12.8,27.6,12.9,27.8,12.9z"/>
<path class="st69" d="M25.9,18.7c-0.3,0.3-0.7,0.3-1.5-0.1c-0.3-1.1-0.3-1.9-0.1-2.6c0.2,0,0.6,0.1,0.6,0.1s0,0,0.1,0
	C25.2,16.9,25.5,17.6,25.9,18.7z"/>
<path class="st133" d="M24.1,15.9c0,0.8,0,1.5,0,2.7C23.9,19,23.7,19,23.2,19c-0.8,0-1.3,0-2.1,0.1c-1.6-0.6-2.9-1.2-4.7-2
	c-0.8-0.1-1-0.1-1.1-0.4c0.3-0.8,0.5-1.2,1-1.9c0.4-0.6,0.5-1,0.6-1.4c0,0,0-0.1,0.3-0.2c0.5-0.5,0.7-0.8,1-1.1c0.4-0.3,0.9-0.6,2-1
	c1.7,0,2.8,0,3.8,0c0.1,0.4,0.2,0.8,0.2,1.8C24.1,14.4,24.1,15.1,24.1,15.9z"/>
<path class="st134" d="M16,15c-0.2,0.5-0.4,1-1,1.8c-0.5,0.6-0.8,0.9-1,1.1c-0.5-0.2-1.1-0.5-1.7-1c0.5-0.8,1.1-1.4,2.3-2
	C15.5,14.9,15.8,15,16,15z"/>
<path class="st135" d="M14.5,14.4c-0.3-0.7-0.6-1.4-0.5-2c0.5,0.4,0.7,0.5,1,0.5c0,0,0,0.1-0.1,0.4C14.8,13.9,14.6,14.1,14.5,14.4z"
	/>
<path class="st136" d="M14.5,14.5c0.1-0.3,0.2-0.6,0.4-1.1c0.4-0.3,0.7-0.2,1.4-0.1c0.3,0.5,0.2,0.9-0.1,1.5c-0.5,0.2-0.8,0.1-1.4,0
	C14.5,14.8,14.5,14.6,14.5,14.5z"/>
<path class="st136" d="M15,12.7c-0.2,0.1-0.5,0-0.7-0.4c-0.1-0.2,0.3-0.2,0.4-0.2S15,12.6,15,12.7z"/>
<path class="st137" d="M23.9,10.8C22.8,11,21.8,11,20.3,11c0.7-0.4,1.9-0.7,3.3-1C24,10.2,24,10.3,23.9,10.8z"/>
<path class="st138" d="M24.3,16c-0.2-0.8-0.2-1.6-0.2-2.8c0.1-0.4,0.5-0.3,0.8-0.3c0.2,0.8,0.1,1.6,0,2.8C24.9,16.1,24.5,16,24.3,16
	z"/>
<path class="st41" d="M29.9,11.8c-0.3,0.1-0.6,0-0.9-0.5c0-0.2,0.2-0.2,0.6-0.3C29.9,11.2,29.9,11.3,29.9,11.8z"/>
<path class="st139" d="M44.7,11c0.1,0.1,0.1,0.3,0,0.7c-0.2,0-0.3-0.2-0.3-0.4C44.4,11.3,44.5,11.2,44.7,11z"/>
<path class="st126" d="M9.9,30.3C9,31.1,8,31.6,7,31.4c0.4-1.5,0.9-2.4,1.3-3.2c0,0,0.4-0.1,0.5-0.1C9.3,28.6,9.6,29.2,9.9,30.3z"/>
<path class="st140" d="M8,28.1C7.9,29,7.5,29.8,6.8,31c-0.2,0.3-0.4,0.3-0.5,0.4C6,31,5.8,30.7,5.4,30.2c0-0.7,0.3-1.2,0.6-2
	C6.1,28,6.5,28,6.7,28C7.2,28,7.4,28,8,28.1z"/>
<path class="st141" d="M14.1,18.1c0.2-0.5,0.4-0.7,0.9-1.1c0.4-0.1,0.6-0.1,1.1,0c-0.3,0.6-0.8,1.1-1.7,1.6
	C14.2,18.8,14.2,18.4,14.1,18.1z"/>
<path class="st136" d="M17.8,12.2c0,0.2-0.2,0.5-0.7,1C17.1,12.9,17.3,12.6,17.8,12.2z"/>
<g>
	<path class="st142" d="M48.4,50.4c-2.1,1.6-3.6,3.2-1.3,6.1c0,0-0.1,0.4-0.7,0.7c-0.5,0.3-1,0.6-2.2,1c-1.6,0.9-3.3,1.8-5.7,2.6
		c-2.2,0-4.4-0.2-6.5,0.2c-2.4,0.4-4.7,1.4-7.4,2.2c0,0-0.4,0.1-1.1,0c-0.7-0.1-1.4-0.1-2.4-0.8c-0.2-1-0.3-1.9-0.4-3.5
		c-0.5,0.2-0.9,0.3-1.5,1.3c0.7,1.7,1.3,3.4,2.7,5.1c0.7,0,1.5,0,2.4,0.7c1,0.3,2.1,1.1,3,0.9c6.1-1.5,12.3-3.1,18.3-5
		c0.7-0.2,1-1.7,1.6-3.1c-0.1-0.1-0.1-0.6,0.5-0.7c0.8-0.6,1.7-1.3,3.2-2C53.9,53,49.7,52.3,48.4,50.4z"/>
	<path class="st142" d="M28.1,49.7c1.3,0.1,2.6,0.2,4.7,0.3c3.5-0.8,4.6-2.1,1-4.6c-1.6-1.1-2.9-2.5-4.6-4c-1.5,1.6-6.4,1.4-2.3,6.2
		C27.3,48.1,27.7,48.5,28.1,49.7z"/>
	<path class="st131" d="M82,0c-4.7,0-9.3,0-14,0c-0.2,0.3-0.4,0.6-0.9,0.9c-0.8,0.6-1.4,1-2.1,1.2C64.1,2,63.4,2,62.3,2
		c-0.4-0.1-0.5,0.1-0.4,0.2c0.5,0.9,1,1.7,1.7,2.6c0.6,0.1,0.9,0.3,1.2,0.7c0.2,0.2,0.6,0.4,0.8,0.4c0.7,0.1,1.2,0,2,0
		c0.7-0.1,0.9-0.2,1.3-0.1C69,6.2,69,6.3,69,6.8c4.5,2.3,7.6,7.3,6.9,11.6C76,24.9,70,31.4,64,31.2c-1.4,0.6-2.5,1.2-3.9,1.9
		c-2,0.3-3.8,0.7-5.9,1.1c-1.5,3.9-8.6,5.7-11.3,2.7c-1.1-1.3-1.6-3-2.2-4.7c0.2-0.7,0.1-1.1-0.2-1.9c-0.1-0.4-0.6-0.5-0.6-0.5
		s-0.5,0.1-0.7,0.1c-0.5-1.2-0.7-2.4-0.7-3.8c0.7-1.4,1.2-2.6,1.9-4c0.6-1,0.9-1.7,1.3-2.8c-0.6-1.1-1.2-1.9-1.8-3
		c-0.6-0.8-1.3-1.2-2-2c-1.4,0-2.8,0.4-4.6,0.7c-1.4,0.7-2.4,1.4-3.8,2.1c-1.1,0.9-1.8,1.7-2.8,2.2c-0.6,0.4-1,1.1-1.8,1.7
		c-0.8,0.1-1.2,0.3-1.8,0.3c-0.4,0-0.6,0-1,0.1c-0.4,0.5-0.6,1-1,1.6c0.1,1.5,0.4,2.9,0.7,4.7c0,1.1,0.1,1.9,0.1,3
		c-0.2,1.9-0.4,3.4-0.9,5.2c-0.7,0.1-0.9,0.2-1,0.8c0.1,0.8,0.2,1.4,0.1,2.1c-0.4,0.4-0.6,0.7-1.1,1c-1.1,1.3-2,2.4-3,3.9
		c-1.2,1.6-2.3,2.9-3.8,4.2c-0.8,0.3-1.3,0.6-2,1C9.7,49,9.4,49.1,9,49c0-0.2-0.3-0.3-0.6-0.3c-1.4,0.4-2.6,0.8-4.2,1.1
		c-0.5,0-0.7,0-1.1,0.1c-0.2,1.1-0.2,2.2-0.2,3.6c-0.2,1-0.3,1.5-0.7,2.4c-0.3,0.3,0,0.4,0.2,0.3c4.3,1.4,5.6,6.9,2.1,9.7
		c-0.4,0.2-0.4,0.4-0.5,0.8c0.2,1.1,0.4,1.9,0.6,3C4.5,70,4.5,70,4.5,70c0.7,0.9,1.4,1.8,1.8,2.9c0.7,1.3,1.6,2.5,2.6,3.9
		c0.8,0.7,1.4,1.1,2.1,1.9c0.9,1.1,1.8,1.9,3.3,3C31,82,47,82,63,82c2.6-5,6-9.2,10.1-12.7c2.7-2.3,5.6-4.3,8.9-6V0z M29.2,41.4
		c1.7,1.5,3,2.9,4.6,4c3.6,2.5,2.5,3.8-1,4.6c-2.1-0.1-3.4-0.2-4.7-0.3c-0.4-1.2-0.8-1.6-1.2-2.1C22.8,42.8,27.7,43,29.2,41.4z
		 M50.9,56.1c-1.5,0.7-2.4,1.4-3.2,2c-0.6,0.1-0.6,0.6-0.5,0.7c-0.6,1.4-0.9,2.9-1.6,3.1c-6,1.9-12.2,3.5-18.3,5
		c-0.9,0.2-2-0.6-3-0.9c-0.9-0.7-1.7-0.7-2.4-0.7c-1.4-1.7-2-3.4-2.7-5.1c0.6-1,1-1.1,1.5-1.3c0.1,1.6,0.2,2.5,0.4,3.5
		c1,0.7,1.7,0.7,2.4,0.8c0.7,0.1,1.1,0,1.1,0c2.7-0.8,5-1.8,7.4-2.2c2.1-0.4,4.3-0.2,6.5-0.2c2.4-0.8,4.1-1.7,5.7-2.6
		c1.2-0.4,1.7-0.7,2.2-1c0.6-0.3,0.7-0.7,0.7-0.7c-2.3-2.9-0.8-4.5,1.3-6.1C49.7,52.3,53.9,53,50.9,56.1z"/>
	<path class="st143" d="M71.3,80C71,80,71,80,71,80c0,0.4,0,0.9,0.5,1.7c3.6,0.1,7.1,0.2,10.5,0.2V69C78.5,72.8,75,76.4,71.3,80z"/>
	<path class="st144" d="M73.1,69.3c-4,3.5-7.3,7.7-9.7,12.7c2.2,0,3.9,0,5.6,0c0.4-0.7,0.8-1.3,1.6-2c0.4,0,0.3-0.1,0.3-0.1
		c1-6.5,5.6-9.6,11.1-12.3v-4.2C78.8,65,75.8,67,73.1,69.3z"/>
	<path class="st144" d="M82,63.3c-3.3,1.7-6.3,3.7-8.9,6C75.8,67,78.8,65,82,63.3L82,63.3z"/>
</g>
</svg>